<svg width="32" height="32" viewBox="0 0 32 32" fill="none" xmlns="http://www.w3.org/2000/svg">
<rect width="32" height="32" fill="#FBC938"/>
<g clip-path="url(#clip0_2798_11572)">
<path d="M28.6954 13.594C28.6954 13.594 28.6928 13.5922 28.691 13.5913C28.6692 13.5716 28.506 13.4101 28.6247 13.097C28.6282 13.088 28.6247 13.0772 28.6168 13.0719C28.479 12.992 27.4152 12.3649 27.2712 11.8832C27.1184 11.3718 26.8627 11.1799 26.2667 10.8515C26.2588 10.847 26.2545 10.8381 26.2562 10.8291C26.2937 10.6882 26.5756 9.60095 26.4674 9.19815C26.4648 9.18828 26.4552 9.182 26.4447 9.1838C26.3671 9.19725 26.0564 9.26633 25.9857 9.5552L25.8888 10.1285L25.8731 9.01963C25.8731 9.00527 25.8583 8.9954 25.8452 9.00168C25.7047 9.06628 25.0615 9.40987 24.6801 10.3752C24.6775 10.3823 24.6714 10.3868 24.6644 10.3877C24.5536 10.4012 23.6312 10.525 22.6293 11.118C21.562 11.7495 20.5349 12.1819 20.4703 12.1739C20.4057 12.1658 19.9127 12.0743 18.9579 12.3317C18.0032 12.5892 15.4419 12.0931 13.8998 12.1416C13.8998 12.1416 13.5237 12.1541 13.035 12.3972C13.0385 12.3928 13.0411 12.3892 13.0446 12.3847C12.6475 12.2151 11.9049 12.2196 11.4947 12.2304C10.7878 12.2492 10.0975 12.4726 9.48228 12.8234C8.78151 13.2235 8.25965 13.8676 7.58069 14.2982C7.00734 14.6615 6.24984 14.9298 5.64158 14.492C5.56129 14.4346 5.50108 14.3592 5.46617 14.2596C5.46442 14.2605 5.01935 14.5512 5.14938 14.9002C5.15026 14.902 5.152 14.9029 5.152 14.9047C5.1616 14.9307 5.17382 14.9558 5.19127 14.9827C4.77762 14.8724 4.52803 14.4391 4.63537 14.0129C4.7174 13.6891 4.99579 13.5249 5.29949 13.4854C3.41012 12.5659 1.25458 16.9644 5.2672 18.0688C7.65575 18.7263 9.80954 16.3678 10.8227 15.2626C10.917 15.1594 11.0357 15.0267 11.1657 14.8813C11.15 14.9343 11.1343 14.9881 11.1194 15.0437C10.5417 17.1708 9.86888 17.578 9.56781 17.6498C9.46483 17.674 9.38716 17.761 9.36534 17.8669C9.20651 18.6357 8.67941 21.3001 8.91678 21.6384C9.19517 22.034 9.47268 22.0124 9.96488 21.99C10.4571 21.9676 10.5426 21.5944 10.478 21.4401C10.4143 21.2858 10.1944 21.1683 9.99629 21.1683C9.80954 21.1683 9.90204 19.7132 10.3768 18.7595C10.4309 18.651 10.5391 18.581 10.6578 18.5738C11.4502 18.5254 14.55 18.1612 15.0204 15.4008C15.0247 15.3756 15.0614 15.3792 15.0596 15.4052C15.0396 15.6878 14.9636 16.1463 14.7097 16.6935C14.7044 16.7052 14.7097 16.7186 14.7219 16.7222C15.0544 16.8038 18.8139 17.753 20.3298 17.3663C20.3551 17.36 20.3551 17.3591 20.3804 17.3529C20.0392 16.8164 20.1518 16.0969 20.1701 15.8592C20.1238 16.4719 20.4197 17.1322 20.5087 17.3152V17.3726C20.5087 17.3726 21.418 17.5269 22.7227 18.4043C24.0274 19.2816 24.318 19.5705 24.3669 19.6853C24.4157 19.8002 24.3415 20.7574 24.9847 20.9189C24.9847 20.9189 25.2701 21.2517 25.6078 21.1503C25.9455 21.049 25.9866 20.8713 25.9778 20.77C25.9691 20.6686 25.5336 20.2712 25.2125 19.2897C24.8913 18.3083 22.7594 17.3053 22.3815 16.7401C22.3815 16.7401 22.3509 16.7141 22.3544 16.6298C22.5508 15.869 22.2829 15.3765 22.2829 15.3765C22.5752 15.7201 22.4941 16.3077 22.4339 16.5858C22.8327 16.3589 23.1076 16.1158 23.2428 15.8664C23.2524 15.8493 23.2777 15.8547 23.2795 15.8744C23.2865 15.9417 23.2917 16.0476 23.2716 16.1247C23.242 16.2342 24.0509 15.1262 24.3154 14.8114C24.3293 14.7943 24.3555 14.8105 24.3485 14.8311C24.3215 14.9154 24.2866 15.0338 24.2909 15.0805C24.2979 15.1558 25.0222 13.8012 26.0991 13.8129C27.176 13.8245 27.5408 14.3027 28.3542 14.0605C29.137 13.8272 28.7251 13.6101 28.6928 13.594H28.6954ZM20.1753 15.8269C20.1788 15.7919 20.1814 15.7722 20.1814 15.7722C20.1788 15.7901 20.1771 15.8089 20.1753 15.8269Z" fill="#010101"/>
<path d="M5.55019 14.8663C5.55019 14.8663 6.43422 15.3427 7.23361 14.8815C8.22062 14.3128 9.95988 12.3122 11.2733 12.5939C11.2733 12.5939 10.8622 12.5769 10.1239 13.1447C9.25213 13.8149 8.1124 15.7221 6.96831 15.9706C5.54234 16.2792 5.54932 14.8663 5.54932 14.8663H5.55019Z" fill="#010101"/>
<path d="M15.8051 17.0983L15.7039 17.0615C15.6926 17.0507 14.6296 16.8022 14.6296 16.8022C14.6296 16.8022 14.2483 17.5235 13.2988 18.0734C13.2988 18.0734 13.4532 18.3058 13.4986 18.3767C13.5423 18.4449 13.9114 18.9777 13.1557 19.8094C13.0963 19.8748 13.085 19.9735 13.1304 20.0507C13.1391 20.065 13.1469 20.0785 13.1539 20.091C13.2133 20.2005 13.2778 20.3081 13.3424 20.4149C13.5187 20.7029 13.7028 21.0617 13.8948 21.3398C13.9585 21.4313 14.0222 21.5228 14.0894 21.6125C14.1366 21.6753 14.1968 21.7588 14.2526 21.8153C14.2579 21.8207 14.2631 21.8243 14.2683 21.8287L14.2666 21.8314C14.5642 21.966 15.0276 21.9023 15.1681 21.8018C15.2676 21.7319 15.2475 21.3829 15.0852 21.312C14.956 21.2555 14.7422 21.3335 14.6698 21.3694L13.9559 20.004C13.9559 20.0031 13.9559 20.0013 13.9559 20.0004C13.9708 19.8085 14.7152 19.1903 15.23 18.653C16.1996 17.9111 15.8043 17.0983 15.8043 17.0983H15.8051Z" fill="#010101"/>
<path d="M18.9171 21.2762C18.8115 21.2762 18.6396 21.3552 18.6396 21.3552C18.6396 21.3552 18.6335 21.3058 18.6317 21.2709C18.6291 21.1937 18.6003 20.2374 18.781 19.9431C18.9442 19.6776 20.2296 17.7497 20.3518 17.4348C20.3335 17.4402 20.33 17.4411 20.3073 17.4465C19.9163 17.5461 19.3761 17.5568 18.7845 17.5165C18.438 18.3481 18.0366 19.2963 18.0366 19.2963C18.0366 19.2963 17.9641 20.8205 17.9467 21.1704C17.9406 21.2969 17.9275 21.4296 17.951 21.5561C17.9685 21.6521 18.0043 21.7616 18.0915 21.8118C18.2827 21.9222 18.9878 21.9697 19.1999 21.7741C19.2732 21.7059 19.2758 21.2762 18.918 21.2753L18.9171 21.2762Z" fill="#010101"/>
<path d="M20.3555 17.4275C20.3598 17.4159 20.3625 17.4069 20.3625 17.4006C20.3564 17.4024 20.3502 17.4051 20.3433 17.4069C20.3476 17.4141 20.3511 17.4213 20.3555 17.4275Z" fill="#010101"/>
<path d="M28.7349 13.1079C28.7349 13.1079 28.6485 13.229 28.672 13.3672C28.6956 13.5053 28.8614 13.6426 28.8893 13.6426C28.9173 13.6426 29.1991 13.4677 28.7349 13.1088V13.1079Z" fill="#010101"/>
<path d="M15.0519 14.7523C15.0519 14.7523 14.1748 12.9832 12.3701 13.6561C12.3701 13.6561 12.6817 13.0765 13.5343 12.689C14.3869 12.3014 18.1447 12.9788 18.9973 12.7545C19.8499 12.5302 20.2583 12.628 20.4914 12.5804C20.7244 12.5329 24.3294 10.3224 24.7597 10.823C24.7597 10.823 24.6244 11.1944 24.8496 11.4384C24.8496 11.4384 22.4017 12.7204 22.1058 14.668C22.1102 14.755 21.0516 14.0966 20.2391 14.9901C20.2391 14.9901 17.8611 13.4058 15.0519 14.7523Z" fill="#010101"/>
<path d="M26.7945 11.5092C26.7945 11.5092 26.997 12.322 27.7056 12.7643C27.7056 12.7643 26.8984 12.1138 26.1226 12.1237C26.1226 12.1237 26.7579 12.0609 26.7945 11.5083V11.5092Z" fill="#010101"/>
</g>
<defs>
<clipPath id="clip0_2798_11572">
<rect width="26" height="13" fill="white" transform="translate(3 9)"/>
</clipPath>
</defs>
</svg>
