<?xml version="1.0" encoding="UTF-8"?>
<svg id="Layer_2" data-name="Layer 2" xmlns="http://www.w3.org/2000/svg" viewBox="0 0 259.95 78.25">
  <defs>
    <style>
      .cls-1 {
        fill: currentColor;
      }
    </style>
  </defs>
  <g id="Layer_1-2" data-name="Layer 1">
    <g>
      <path class="cls-1" d="M0,23.78v-4.64l8.69-.42,3.12-.08v5.14H0ZM6.24,62.48v-.51l1.77-4.38V13.07c0-2.19.35-4.1,1.05-5.73.7-1.63,1.64-2.99,2.83-4.09,1.18-1.1,2.54-1.91,4.09-2.45,1.55-.53,3.19-.8,4.93-.8.67,0,1.43.07,2.28.21.84.14,1.7.35,2.57.63.87.28,1.69.67,2.45,1.18s1.39,1.15,1.9,1.94l-3.12,4.81-.59-.08c-.51-1.18-1.25-2.09-2.23-2.74-.98-.65-2.04-.97-3.16-.97-1.57,0-2.95.63-4.13,1.9-1.18,1.26-1.77,3.19-1.77,5.78v44.94l2.19,4.38v.51H6.24ZM11.8,18.63l14.33-.25.17,5.4h-14.5v-5.14Z"/>
      <path class="cls-1" d="M47.05,63.32c-4.16,0-7.86-.98-11.09-2.95-3.23-1.97-5.76-4.67-7.59-8.09-1.83-3.43-2.74-7.34-2.74-11.72,0-3.26.53-6.27,1.6-9.02,1.07-2.75,2.56-5.16,4.47-7.21,1.91-2.05,4.16-3.64,6.75-4.76,2.58-1.12,5.45-1.69,8.6-1.69,4.16,0,7.85.98,11.09,2.95,3.23,1.97,5.78,4.65,7.63,8.05,1.85,3.4,2.78,7.29,2.78,11.68,0,3.26-.54,6.28-1.6,9.06-1.07,2.78-2.57,5.2-4.51,7.25-1.94,2.05-4.2,3.64-6.79,4.76-2.59,1.12-5.45,1.69-8.6,1.69ZM47.05,58.26c1.63,0,3.15-.28,4.55-.84,1.4-.56,2.71-1.36,3.92-2.4,1.21-1.04,2.22-2.29,3.04-3.75.81-1.46,1.43-3.11,1.86-4.93.42-1.83.63-3.75.63-5.78,0-3.48-.6-6.53-1.81-9.15-1.21-2.61-2.87-4.68-4.97-6.2-2.11-1.52-4.51-2.28-7.21-2.28-1.57,0-3.09.28-4.55.84-1.46.56-2.78,1.36-3.96,2.4-1.18,1.04-2.16,2.29-2.95,3.75-.79,1.46-1.41,3.08-1.85,4.85-.45,1.77-.67,3.7-.67,5.78,0,3.37.59,6.41,1.77,9.11s2.84,4.81,4.97,6.32c2.14,1.52,4.55,2.28,7.25,2.28Z"/>
      <path class="cls-1" d="M68.47,62.48v-.51l4.38-4.38,13.83-19.73,9.61-14,.76-4.64.17-.51h10.2v.51l-4.38,4.72-12.73,18.04-10.62,15.68-.76,4.3-.17.51h-10.29ZM97.22,62.48l-.25-.51-.76-4.3-22.34-33.73-4.22-4.72v-.51h11.13l.17.51.93,4.64,22.43,33.73,4.22,4.38v.51h-11.3Z"/>
      <path class="cls-1" d="M112.06,78.25v-.51l1.69-4.72V25.3l-1.69-5.31v-.42l8.68-1.1v8.09c1.24-2.64,3.2-4.75,5.9-6.32,2.7-1.57,5.59-2.36,8.68-2.36,3.93,0,7.38.97,10.33,2.91s5.27,4.62,6.96,8.05c1.69,3.43,2.53,7.36,2.53,11.8,0,3.26-.52,6.28-1.56,9.06-1.04,2.78-2.5,5.19-4.38,7.21-1.88,2.02-4.08,3.6-6.58,4.72-2.5,1.12-5.24,1.69-8.22,1.69-1.8,0-3.58-.28-5.35-.84s-3.36-1.36-4.76-2.4c-1.41-1.04-2.59-2.23-3.54-3.58v16.53l2.36,4.72v.51h-11.05ZM133.73,58.35c1.63,0,3.18-.29,4.64-.89,1.46-.59,2.75-1.4,3.88-2.45,1.12-1.04,2.11-2.29,2.95-3.75.84-1.46,1.48-3.08,1.9-4.85.42-1.77.63-3.67.63-5.69,0-3.37-.58-6.37-1.73-8.98s-2.74-4.64-4.76-6.07c-2.02-1.43-4.38-2.15-7.08-2.15-2.31,0-4.43.55-6.37,1.64-1.94,1.1-3.53,2.63-4.76,4.6-1.24,1.97-2,4.24-2.28,6.83v9.53c.39,2.36,1.19,4.47,2.4,6.32,1.21,1.85,2.68,3.3,4.43,4.34,1.74,1.04,3.79,1.56,6.16,1.56Z"/>
      <path class="cls-1" d="M168.72,57.59l1.69,4.38v.51h-10.37v-.51l1.69-4.38V7.42l-1.69-5.31v-.42l8.68-1.1v57Z"/>
      <path class="cls-1" d="M191.06,63.32c-2.81,0-5.3-.52-7.46-1.56s-3.84-2.45-5.02-4.22-1.77-3.86-1.77-6.28.59-4.62,1.77-6.45c1.18-1.83,2.89-3.32,5.14-4.47,2.25-1.15,4.95-2.04,8.09-2.66l13.83-2.36v-2.61c0-2.19-.44-4.05-1.31-5.57-.87-1.52-2.05-2.66-3.54-3.41-1.49-.76-3.22-1.14-5.19-1.14-2.08,0-3.92.39-5.52,1.18-1.6.79-2.85,1.94-3.75,3.46-.9,1.52-1.46,3.32-1.69,5.4l-6.91-1.77c.45-2.42,1.45-4.6,2.99-6.53,1.54-1.94,3.57-3.5,6.07-4.68,2.5-1.18,5.47-1.77,8.9-1.77s6.25.6,8.81,1.81c2.56,1.21,4.54,2.97,5.94,5.27,1.4,2.31,2.11,5.09,2.11,8.35v24.03l1.69,4.64v.51h-8.68v-22.68l-12.06,2.19c-2.98.67-5.27,1.7-6.87,3.08-1.6,1.38-2.4,3.27-2.4,5.69,0,1.46.34,2.74,1.01,3.84s1.64,1.97,2.91,2.61c1.26.65,2.74.97,4.43.97,2.58,0,4.81-.6,6.66-1.81,1.85-1.21,3.36-2.77,4.51-4.68,1.15-1.91,1.87-3.91,2.15-5.99l.76,6.16c-.67,1.85-1.52,3.5-2.53,4.93-1.01,1.43-2.18,2.63-3.5,3.58-1.32.96-2.8,1.69-4.43,2.19-1.63.51-3.35.76-5.14.76Z"/>
      <path class="cls-1" d="M219.98,62.48v-.51l1.77-4.38V25.3l-1.77-5.31v-.42l8.77-1.1v8.18c.9-1.69,2.04-3.19,3.42-4.51,1.38-1.32,2.96-2.36,4.76-3.12,1.8-.76,3.77-1.14,5.9-1.14,2.98,0,5.63.62,7.97,1.85,2.33,1.24,4.15,2.97,5.44,5.19,1.29,2.22,1.94,4.91,1.94,8.05v24.62l1.77,4.38v.51h-10.46v-.51l1.69-4.38v-23.44c0-2.3-.41-4.23-1.22-5.78-.82-1.55-1.97-2.71-3.46-3.5-1.49-.79-3.25-1.18-5.27-1.18s-3.82.48-5.57,1.43c-1.74.96-3.2,2.33-4.38,4.13-1.18,1.8-2.02,3.82-2.53,6.07v22.26l1.69,4.38v.51h-10.46Z"/>
    </g>
  </g>
</svg>