<svg width="90" height="76" viewBox="0 0 90 76" fill="none" xmlns="http://www.w3.org/2000/svg">
<path d="M55.873 17.887H61.055C61.608 17.887 62.055 17.439 62.055 16.887V7.87305C62.055 7.32105 61.608 6.87305 61.055 6.87305H55.873C55.32 6.87305 54.873 7.32105 54.873 7.87305V16.887C54.873 17.439 55.32 17.887 55.873 17.887ZM56.873 8.87405H60.055V15.888H56.873V8.87405Z" fill="#270E15"/>
<path d="M47.1973 17.887H52.3793C52.9323 17.887 53.3793 17.439 53.3793 16.887V7.87305C53.3793 7.32105 52.9323 6.87305 52.3793 6.87305H47.1973C46.6443 6.87305 46.1973 7.32105 46.1973 7.87305V16.887C46.1973 17.439 46.6453 17.887 47.1973 17.887ZM48.1973 8.87405H51.3793V15.888H48.1973V8.87405Z" fill="#270E15"/>
<path d="M38.5215 17.887H43.7035C44.2565 17.887 44.7035 17.439 44.7035 16.887V7.87305C44.7035 7.32105 44.2565 6.87305 43.7035 6.87305H38.5215C37.9685 6.87305 37.5215 7.32105 37.5215 7.87305V16.887C37.5215 17.439 37.9695 17.887 38.5215 17.887ZM39.5215 8.87405H42.7035V15.888H39.5215V8.87405Z" fill="#270E15"/>
<path d="M68.8301 17.887H74.0121C74.5651 17.887 75.0121 17.439 75.0121 16.887V7.87305C75.0121 7.32105 74.5651 6.87305 74.0121 6.87305H68.8301C68.2771 6.87305 67.8301 7.32105 67.8301 7.87305V16.887C67.8301 17.439 68.2771 17.887 68.8301 17.887ZM69.8301 8.87405H73.0121V15.888H69.8301V8.87405Z" fill="#270E15"/>
<path d="M32.0957 25.8867H74.0117C74.5647 25.8867 75.0117 25.4397 75.0117 24.8867C75.0117 24.3337 74.5647 23.8867 74.0117 23.8867H32.0957C31.5427 23.8867 31.0957 24.3337 31.0957 24.8867C31.0957 25.4397 31.5427 25.8867 32.0957 25.8867Z" fill="#270E15"/>
<path d="M41.9017 39.6621H32.0947C31.5417 39.6621 31.0947 40.1101 31.0947 40.6621C31.0947 41.2151 31.5417 41.6621 32.0947 41.6621H41.9017C42.4547 41.6621 42.9017 41.2151 42.9017 40.6621C42.9017 40.1101 42.4547 39.6621 41.9017 39.6621Z" fill="#270E15"/>
<path d="M21.3948 33.8008H9.67578C9.12278 33.8008 8.67578 34.2478 8.67578 34.8008V46.5198C8.67578 47.0728 9.12278 47.5198 9.67578 47.5198H21.3948C21.9478 47.5198 22.3948 47.0728 22.3948 46.5198V34.8008C22.3948 34.2488 21.9468 33.8008 21.3948 33.8008ZM20.3948 45.5198H10.6758V35.8008H20.3948V45.5198Z" fill="#270E15"/>
<path d="M23.0818 8.33789H9.67578C9.12278 8.33789 8.67578 8.78589 8.67578 9.33789C8.67578 9.89089 9.12278 10.3379 9.67578 10.3379H23.0818C23.6348 10.3379 24.0818 9.89089 24.0818 9.33789C24.0818 8.78589 23.6348 8.33789 23.0818 8.33789Z" fill="#270E15"/>
<path d="M23.0818 14.4219H9.67578C9.12278 14.4219 8.67578 14.8699 8.67578 15.4219C8.67578 15.9739 9.12278 16.4219 9.67578 16.4219H23.0818C23.6348 16.4219 24.0818 15.9739 24.0818 15.4219C24.0818 14.8699 23.6348 14.4219 23.0818 14.4219Z" fill="#270E15"/>
<path d="M82.11 36.36V1C82.11 0.45 81.66 0 81.11 0H1C0.45 0 0 0.45 0 1V53.4C0 53.95 0.45 54.4 1 54.4H44.75C45.22 66.46 55.18 76.14 67.37 76.14C79.85 76.14 90 65.99 90 53.51C90 46.66 86.94 40.51 82.11 36.36ZM2 52.4V2H80.11V34.81C76.48 32.33 72.089 30.87 67.37 30.87C55.26 30.87 45.34 40.43 44.76 52.4H2ZM67.37 74.14C55.99 74.14 46.73 64.89 46.73 53.51C46.73 42.13 55.99 32.87 67.37 32.87C72.309 32.87 76.84 34.62 80.4 37.53C80.42 37.55 80.46 37.57 80.48 37.59C85.07 41.38 88 47.11 88 53.51C88 64.89 78.74 74.14 67.37 74.14Z" fill="#270E15"/>
<path d="M76.86 66.8201C74.19 68.7601 70.82 69.8301 67.37 69.8301C58.37 69.8301 51.04 62.5101 51.04 53.5101C51.04 50.3301 51.98 47.1701 53.69 44.6101C54 44.1501 54.62 44.0301 55.08 44.3401C55.54 44.6501 55.66 45.2701 55.35 45.7301C53.861 47.9601 53.04 50.7201 53.04 53.5101C53.04 61.4001 59.47 67.8301 67.37 67.8301C70.4 67.8301 73.349 66.9001 75.68 65.2101C76.13 64.8801 76.75 64.9801 77.08 65.4301C77.4 65.8701 77.3 66.5001 76.86 66.8201Z" fill="#270E15"/>
<path d="M83.8001 53.5097C83.8001 56.6497 82.9101 59.6297 81.1701 62.3797C80.9811 62.6797 80.6501 62.8497 80.3201 62.8497C80.1391 62.8497 79.9501 62.7997 79.7901 62.6897C79.3201 62.3897 79.1801 61.7797 79.4801 61.3097C81.0191 58.8897 81.7991 56.2597 81.7991 53.5097C81.7991 45.6097 75.3291 39.1797 67.3691 39.1797C64.3591 39.1797 61.5181 40.0897 59.1691 41.8097C58.7191 42.1297 58.0991 42.0397 57.7691 41.5897C57.4401 41.1397 57.5401 40.5197 57.9901 40.1897C60.6901 38.2197 63.9291 37.1797 67.3701 37.1797C76.4301 37.1797 83.8001 44.5097 83.8001 53.5097Z" fill="#270E15"/>
<path d="M71.1201 61.1992C70.3401 61.9792 69.3701 62.4792 68.3701 62.6792V63.3092C68.3701 63.8592 67.9201 64.3092 67.3701 64.3092C66.8091 64.3092 66.3701 63.8592 66.3701 63.3092V62.6692C65.8801 62.5692 65.4001 62.4092 64.9501 62.1492C63.0401 61.2592 61.9101 59.0292 62.2101 56.6492C62.2701 56.0992 62.7701 55.7092 63.3201 55.7792C63.8701 55.8492 64.2591 56.3492 64.1901 56.8992C64.0001 58.3892 64.7001 59.8192 65.8701 60.3792C66.3001 60.6192 66.7601 60.7392 67.2201 60.7592C67.2701 60.7492 67.3211 60.7292 67.3701 60.7292C67.4191 60.7292 67.4601 60.7592 67.5101 60.7592C68.3101 60.7292 69.0901 60.3992 69.7001 59.7792C70.8801 58.5992 70.9101 56.7192 69.7691 55.3992C69.1391 54.6692 68.4101 54.5692 67.2691 54.4692C65.8091 54.3292 64.0091 54.1592 62.7691 51.8292C61.7301 49.7592 62.1201 47.3092 63.7301 45.6992C64.4591 44.9692 65.3791 44.5192 66.3701 44.3292V43.6992C66.3701 43.1492 66.8091 42.6992 67.3701 42.6992C67.9201 42.6992 68.3701 43.1492 68.3701 43.6992V44.3292C68.8801 44.4292 69.3901 44.5992 69.8601 44.8492C71.8301 45.8292 72.9401 48.0792 72.5191 50.3092C72.4191 50.8492 71.9001 51.2092 71.3491 51.1092C70.8091 51.0092 70.4501 50.4892 70.5491 49.9392C70.8091 48.5892 70.1501 47.2292 68.9491 46.6292C68.5091 46.3892 68.0391 46.2692 67.5691 46.2392C67.4991 46.2592 67.4391 46.2792 67.3691 46.2792C67.2891 46.2792 67.2291 46.2592 67.1591 46.2392C66.3991 46.2792 65.6791 46.5792 65.1381 47.1092C64.1591 48.0992 63.9091 49.6592 64.5381 50.9192C65.2581 52.2692 66.1281 52.3492 67.4481 52.4692C68.6281 52.5792 70.0971 52.7192 71.2781 54.0992C73.1201 56.2092 73.0501 59.2692 71.1201 61.1992Z" fill="#270E15"/>
</svg>
