<?xml version="1.0" encoding="UTF-8"?>
<svg id="Layer_2" data-name="Layer 2" xmlns="http://www.w3.org/2000/svg" viewBox="0 0 10.67 110.33">
  <defs>
    <style>
      .cls-1 {
        fill: #270e15;
      }
    </style>
  </defs>
  <g id="Layer_1-2" data-name="Layer 1">
    <path class="cls-1" d="M5.33,99.67C2.39,99.67,0,102.05,0,105s2.39,5.33,5.33,5.33,5.33-2.39,5.33-5.33-2.39-5.33-5.33-5.33ZM5.33,0h-1s0,2.02,0,2.02h2V0h-1ZM5.33,6.06h-1v4.04h2v-4.04h-1ZM5.33,14.13h-1v4.04h2v-4.04h-1ZM5.33,22.21h-1v4.04h2v-4.04h-1ZM5.33,30.29h-1v4.04h2v-4.04h-1ZM5.33,38.37h-1v4.04h2v-4.04h-1ZM5.33,46.44h-1v4.04h2v-4.04h-1ZM5.33,54.52h-1v4.04h2v-4.04h-1ZM5.33,62.6h-1v4.04h2v-4.04h-1ZM5.33,70.67h-1v4.04h2v-4.04h-1ZM5.33,78.75h-1v4.04h2v-4.04h-1ZM5.33,86.83h-1v4.04h2v-4.04h-1ZM5.33,94.9h-1v4.04h2v-4.04h-1ZM5.33,102.98h-1v2.02h2v-2.02h-1ZM5.33,99.67C2.39,99.67,0,102.05,0,105s2.39,5.33,5.33,5.33,5.33-2.39,5.33-5.33-2.39-5.33-5.33-5.33ZM5.33,0h-1s0,2.02,0,2.02h2V0h-1ZM5.33,6.06h-1v4.04h2v-4.04h-1ZM5.33,14.13h-1v4.04h2v-4.04h-1ZM5.33,22.21h-1v4.04h2v-4.04h-1ZM5.33,30.29h-1v4.04h2v-4.04h-1ZM5.33,38.37h-1v4.04h2v-4.04h-1ZM5.33,46.44h-1v4.04h2v-4.04h-1ZM5.33,54.52h-1v4.04h2v-4.04h-1ZM5.33,62.6h-1v4.04h2v-4.04h-1ZM5.33,70.67h-1v4.04h2v-4.04h-1ZM5.33,78.75h-1v4.04h2v-4.04h-1ZM5.33,86.83h-1v4.04h2v-4.04h-1ZM5.33,94.9h-1v4.04h2v-4.04h-1ZM5.33,102.98h-1v2.02h2v-2.02h-1Z"/>
  </g>
</svg>