<svg width="90" height="92" viewBox="0 0 90 92" fill="none" xmlns="http://www.w3.org/2000/svg">
<path d="M89 71.9118H60.666V63.8758V54.8418C60.666 54.2888 60.218 53.8418 59.666 53.8418H30.332C29.78 53.8418 29.332 54.2888 29.332 54.8418V63.8758V72.9118V80.8238H1C0.448 80.8238 0 81.2708 0 81.8238V90.8578C0 91.4098 0.448 91.8578 1 91.8578H30.332H59.666H89C89.552 91.8578 90 91.4098 90 90.8578V81.8238V72.9118C90 72.3598 89.552 71.9118 89 71.9118ZM88 80.8248H60.666V73.9128H88V80.8248ZM58.666 71.9118H31.332V64.8758H58.666V71.9118ZM31.332 73.9118H58.666V80.8238H31.332V73.9118ZM31.332 55.8418H58.666V62.8758H31.332V55.8418ZM2 82.8248H29.332V89.8588H2V82.8248ZM31.332 82.8248H58.666V89.8588H31.332V82.8248ZM88 89.8588H60.666V82.8248H88V89.8588Z" fill="#270E15"/>
<path d="M31.0804 40.9209L16.5704 18.1709C16.3904 17.8809 16.0704 17.7109 15.7304 17.7109C15.3904 17.7109 15.0704 17.8809 14.8904 18.1609L0.16036 41.0609C-0.0396396 41.3709 -0.0496396 41.7609 0.12036 42.0809C0.30036 42.4009 0.630361 42.6009 1.00036 42.6009H5.82036V66.4809C5.82036 67.0309 6.26036 67.4809 6.82036 67.4809H24.1504C24.7004 67.4809 25.1504 67.0309 25.1504 66.4809V42.6009H30.3304H30.3404C30.9404 42.5809 31.3504 42.1609 31.3504 41.6009C31.3504 41.3409 31.2504 41.1009 31.0804 40.9209ZM24.1504 40.6009C23.5904 40.6009 23.1504 41.0509 23.1504 41.6009V65.4809H7.82036V41.6009C7.82036 41.0509 7.37036 40.6009 6.82036 40.6009H2.83036L15.7204 20.5609L28.5104 40.6009H24.1504Z" fill="#270E15"/>
<path d="M55.3299 0C42.9799 0 32.9199 10.06 32.9199 22.41C32.9199 34.77 42.9799 44.83 55.3299 44.83C67.7599 44.83 77.8699 34.77 77.8699 22.41C77.8699 10.06 67.7599 0 55.3299 0ZM55.3299 42.83C44.0799 42.83 34.9199 33.67 34.9199 22.41C34.9199 11.16 44.0799 2 55.3299 2C66.6599 2 75.8699 11.16 75.8699 22.41C75.8699 33.67 66.6599 42.83 55.3299 42.83Z" fill="#270E15"/>
<path d="M55.3344 38.6358C58.7464 38.6358 61.9834 37.6328 64.6954 35.7358C65.1484 35.4198 65.2584 34.7968 64.9414 34.3428C64.6264 33.8918 64.0024 33.7798 63.5484 34.0968C61.1394 35.7818 58.3764 36.6358 55.3334 36.6358C47.5584 36.6358 41.2324 30.2558 41.2324 22.4128C41.2324 19.7348 42.0124 17.0218 43.4294 14.7778C43.7244 14.3098 43.5844 13.6928 43.1174 13.3978C42.6514 13.1048 42.0334 13.2428 41.7384 13.7098C40.0994 16.3078 39.2324 19.3168 39.2324 22.4128C39.2334 31.3588 46.4564 38.6358 55.3344 38.6358Z" fill="#270E15"/>
<path d="M47.2433 10.8594C49.6173 9.19641 52.4143 8.31641 55.3343 8.31641C63.1773 8.31641 69.5583 14.6404 69.5583 22.4144C69.5583 25.2164 68.7983 27.8984 67.3623 30.1734C67.0673 30.6404 67.2063 31.2584 67.6733 31.5534C67.8393 31.6574 68.0243 31.7074 68.2063 31.7074C68.5383 31.7074 68.8623 31.5434 69.0523 31.2414C70.6923 28.6464 71.5583 25.5944 71.5583 22.4144C71.5583 13.5384 64.2803 6.31641 55.3343 6.31641C52.0023 6.31641 48.8083 7.32141 46.0963 9.22141C45.6433 9.53841 45.5343 10.1614 45.8513 10.6144C46.1673 11.0664 46.7923 11.1774 47.2433 10.8594Z" fill="#270E15"/>
<path d="M59.4108 20.1908C59.9598 20.2628 60.4608 19.8778 60.5338 19.3318C60.8338 17.0708 59.7578 14.9238 57.7858 13.8568C57.3248 13.6108 56.8338 13.4498 56.3338 13.3578V12.7598C56.3338 12.2078 55.8858 11.7598 55.3338 11.7598C54.7818 11.7598 54.3338 12.2078 54.3338 12.7598V13.3978C53.3958 13.5988 52.5108 14.0438 51.8138 14.7418C50.1508 16.2578 49.7598 18.7418 50.8558 20.7688C52.0678 23.1068 53.8978 23.2898 55.3688 23.4368C56.4938 23.5488 57.2128 23.6518 57.7648 24.2688C58.8688 25.6728 58.7988 27.5618 57.5958 28.7608C57.0608 29.2958 56.3098 29.5868 55.5348 29.6248C55.4678 29.6098 55.4058 29.5848 55.3338 29.5848C55.2698 29.5848 55.2138 29.6088 55.1528 29.6208C54.7408 29.5968 54.3308 29.5068 53.9508 29.3328C52.7468 28.6848 52.0428 27.2708 52.2388 25.8968C52.3168 25.3498 51.9368 24.8438 51.3898 24.7658C50.8458 24.6878 50.3368 25.0668 50.2588 25.6148C49.9458 27.8028 51.0748 30.0548 53.0588 31.1208C53.4738 31.3108 53.9018 31.4428 54.3338 31.5278V32.1908C54.3338 32.7428 54.7818 33.1908 55.3338 33.1908C55.8858 33.1908 56.3338 32.7428 56.3338 32.1908V31.5458C57.3408 31.3668 58.2798 30.9058 59.0098 30.1738C60.9398 28.2498 61.0768 25.2458 59.2988 22.9858C58.1598 21.7058 56.7228 21.5608 55.5688 21.4458C54.2298 21.3118 53.3458 21.2228 52.6238 19.8318C51.9578 18.6008 52.1788 17.1138 53.1948 16.1858C54.1618 15.2198 55.6608 14.9888 56.8388 15.6178C58.0878 16.2938 58.7438 17.6148 58.5508 19.0668C58.4788 19.6158 58.8628 20.1178 59.4108 20.1908Z" fill="#270E15"/>
</svg>
