<svg width="100" height="100" viewBox="0 0 100 100" fill="none" xmlns="http://www.w3.org/2000/svg">
<path d="M32.3957 38.7705C33.9421 38.7705 35.1957 37.5303 35.1957 36.0005C35.1957 34.4706 33.9421 33.2305 32.3957 33.2305C30.8493 33.2305 29.5957 34.4706 29.5957 36.0005C29.5957 37.5303 30.8493 38.7705 32.3957 38.7705Z" fill="#F9EFD8"/>
<path d="M16.6666 54.8248C18.1307 54.8248 19.3176 53.7561 19.3176 52.4378C19.3176 51.1195 18.1307 50.0508 16.6666 50.0508C15.2025 50.0508 14.0156 51.1195 14.0156 52.4378C14.0156 53.7561 15.2025 54.8248 16.6666 54.8248Z" fill="#F9EFD8"/>
<path d="M48.4586 47.0103C49.9227 47.0103 51.1096 45.8489 51.1096 44.4163C51.1096 42.9836 49.9227 41.8223 48.4586 41.8223C46.9945 41.8223 45.8076 42.9836 45.8076 44.4163C45.8076 45.8489 46.9945 47.0103 48.4586 47.0103Z" fill="#F9EFD8"/>
<path d="M58.8301 45.9297H69.8401V88.8697H58.8301V45.9297Z" fill="#F9EFD8"/>
<path d="M27.2793 54.9512H38.2993V88.8712H27.2793V54.9512Z" fill="#F9EFD8"/>
<path d="M17.0158 48.9373C14.9788 48.9373 13.3848 50.4753 13.3848 52.4383C13.3848 54.4063 14.9788 55.9473 17.0158 55.9473C18.9478 55.9473 20.5198 54.3733 20.5198 52.4383C20.5198 51.7953 20.3318 51.2023 20.0298 50.6833L31.1448 39.0063C31.6428 39.2593 32.1978 39.4173 32.7878 39.4173C33.7818 39.4173 34.6768 38.9963 35.3148 38.3293L45.1308 43.6773C45.0818 43.9193 45.0568 44.1713 45.0568 44.4313C45.0568 46.3623 46.6288 47.9323 48.5628 47.9323C50.4928 47.9323 52.0628 46.3623 52.0628 44.4313C52.0628 43.7903 51.8968 43.2033 51.6268 42.6863L68.8398 29.0733V32.1593C68.8398 32.7123 69.2868 33.1593 69.8398 33.1593C70.3928 33.1593 70.8398 32.7123 70.8398 32.1593V26.4023C70.8398 25.8493 70.3928 25.4023 69.8398 25.4023H64.0838C63.5308 25.4023 63.0838 25.8493 63.0838 26.4023C63.0838 26.9553 63.5308 27.4023 64.0838 27.4023H67.7298L50.2278 41.2423C49.7338 40.9683 49.1728 40.7993 48.5618 40.7993C47.5598 40.7993 46.6708 41.2173 46.0388 41.8943L36.2258 36.5493C36.2648 36.3433 36.2898 36.1333 36.2898 35.9163C36.2898 33.9833 34.7178 32.4113 32.7858 32.4113C30.8188 32.4113 29.1588 34.0163 29.1588 35.9163C29.1588 36.5453 29.3538 37.1353 29.6708 37.6513L18.5678 49.3163C18.0978 49.0813 17.5758 48.9373 17.0158 48.9373ZM17.0158 53.9463C16.0858 53.9463 15.3848 53.2983 15.3848 52.4373C15.3848 51.5953 16.1018 50.9363 17.0158 50.9363C17.8438 50.9363 18.5198 51.6093 18.5198 52.4373C18.5198 53.2703 17.8438 53.9463 17.0158 53.9463ZM48.5628 42.7993C48.8458 42.7993 49.1038 42.8823 49.3248 43.0193C49.4978 43.1653 49.6568 43.2503 49.7798 43.4593C49.9558 43.7283 50.0628 44.0603 50.0628 44.4313C50.0628 45.2593 49.3888 45.9323 48.5628 45.9323C47.7328 45.9323 47.0568 45.2593 47.0568 44.4313C47.0568 43.5003 47.7028 42.7993 48.5628 42.7993ZM32.7868 34.4113C33.6168 34.4113 34.2908 35.0863 34.2908 35.9163C34.2908 36.7443 33.6168 37.4173 32.7868 37.4173C32.4408 37.4173 32.1108 37.2953 31.8378 37.1023C31.8008 37.0493 31.5918 36.8563 31.5238 36.8173C31.3028 36.5593 31.1608 36.2463 31.1608 35.9173C31.1598 35.1283 31.9358 34.4113 32.7868 34.4113Z" fill="#270E15"/>
<path d="M94 12.008H87.867V6C87.867 5.447 87.42 5 86.867 5C86.314 5 85.867 5.447 85.867 6V12.008H6C5.447 12.008 5 12.455 5 13.008C5 13.561 5.447 14.008 6 14.008H11.508V16.889C11.508 17.442 11.955 17.889 12.508 17.889C13.061 17.889 13.508 17.442 13.508 16.889V14.008H27.029V16.889C27.029 17.442 27.476 17.889 28.029 17.889C28.582 17.889 29.029 17.442 29.029 16.889V14.008H42.681V16.889C42.681 17.442 43.128 17.889 43.681 17.889C44.234 17.889 44.681 17.442 44.681 16.889V14.008H58.201V16.889C58.201 17.442 58.648 17.889 59.201 17.889C59.754 17.889 60.201 17.442 60.201 16.889V14.008H73.847V16.889C73.847 17.442 74.294 17.889 74.847 17.889C75.4 17.889 75.847 17.442 75.847 16.889V14.008H85.867V23.274H82.984C82.431 23.274 81.984 23.721 81.984 24.274C81.984 24.827 82.431 25.274 82.984 25.274H85.867V38.921H82.984C82.431 38.921 81.984 39.368 81.984 39.921C81.984 40.474 82.431 40.921 82.984 40.921H85.867V54.443H82.984C82.431 54.443 81.984 54.89 81.984 55.443C81.984 55.996 82.431 56.443 82.984 56.443H85.867V70.089H82.984C82.431 70.089 81.984 70.536 81.984 71.089C81.984 71.642 82.431 72.089 82.984 72.089H85.867V85.616H82.984C82.431 85.616 81.984 86.063 81.984 86.616C81.984 87.169 82.431 87.616 82.984 87.616H85.867V94C85.867 94.553 86.314 95 86.867 95C87.42 95 87.867 94.553 87.867 94V14.008H94C94.553 14.008 95 13.561 95 13.008C95 12.455 94.553 12.008 94 12.008Z" fill="#270E15"/>
<path d="M71.8397 87.8697H70.8397V45.9297C70.8397 45.3797 70.3897 44.9297 69.8397 44.9297H58.8297C58.2687 44.9297 57.8297 45.3797 57.8297 45.9297V87.8697H55.0697V63.3297C55.0697 62.7797 54.6197 62.3297 54.0697 62.3297H43.0497C42.4997 62.3297 42.0497 62.7797 42.0497 63.3297V87.8697H39.2997V54.9497C39.2997 54.3887 38.8497 53.9497 38.2997 53.9497H27.2797C26.7297 53.9497 26.2797 54.3887 26.2797 54.9497V87.8697H23.5197V67.3397C23.5197 66.7897 23.0707 66.3397 22.5197 66.3397H11.5097C10.9597 66.3397 10.5097 66.7897 10.5097 67.3397V87.8697H9.74973C7.42973 87.8697 6.21973 89.6597 6.21973 91.4297C6.21973 93.2097 7.42973 94.9997 9.74973 94.9997H71.8397C73.8097 94.9997 75.3497 93.4097 75.3497 91.3697C75.3497 89.4397 73.7797 87.8697 71.8397 87.8697ZM59.8297 46.9297H68.8397V87.8697H59.8297V46.9297ZM44.0497 64.3297H53.0707V87.8697H44.0497V64.3297ZM28.2797 55.9497H37.2997V87.8697H28.2797V55.9497ZM12.5097 68.3397H21.5197V87.8697H12.5097V68.3397ZM71.8397 92.9997H9.74973C8.61973 92.9997 8.21973 92.1597 8.21973 91.4297C8.21973 90.7097 8.61973 89.8697 9.74973 89.8697H71.8397C72.6697 89.8697 73.3497 90.5397 73.3497 91.3697C73.3497 92.2897 72.6897 92.9997 71.8397 92.9997Z" fill="#270E15"/>
</svg>
