<svg width="93" height="90" viewBox="0 0 93 90" fill="none" xmlns="http://www.w3.org/2000/svg">
<path d="M24.1777 39.2402H12.4727C11.9197 39.2402 11.4727 39.6882 11.4727 40.2402V51.9442C11.4727 52.4962 11.9197 52.9442 12.4727 52.9442H24.1777C24.7307 52.9442 25.1777 52.4962 25.1777 51.9442V40.2402C25.1777 39.6882 24.7307 39.2402 24.1777 39.2402ZM23.1777 50.9442H13.4727V41.2402H23.1777V50.9442Z" fill="#270E15"/>
<path d="M24.1777 57.0215H12.4727C11.9197 57.0215 11.4727 57.4695 11.4727 58.0215V69.7255C11.4727 70.2775 11.9197 70.7255 12.4727 70.7255H24.1777C24.7307 70.7255 25.1777 70.2775 25.1777 69.7255V58.0215C25.1777 57.4695 24.7307 57.0215 24.1777 57.0215ZM23.1777 68.7265H13.4727V59.0225H23.1777V68.7265Z" fill="#270E15"/>
<path d="M34.3867 52.9442H45.9767C46.5297 52.9442 46.9767 52.4962 46.9767 51.9442V40.2402C46.9767 39.6882 46.5297 39.2402 45.9767 39.2402H34.3867C33.8337 39.2402 33.3867 39.6882 33.3867 40.2402V51.9442C33.3867 52.4972 33.8337 52.9442 34.3867 52.9442ZM35.3867 41.2402H44.9767V50.9442H35.3867V41.2402Z" fill="#270E15"/>
<path d="M80.364 46.676V15.916C80.364 13.088 78.063 10.788 75.235 10.788H69.463V4.443C69.463 1.952 67.512 0 65.02 0C62.573 0 60.581 1.993 60.581 4.443V10.787H45.598V4.443C45.598 1.952 43.649 0 41.159 0C38.708 0 36.716 1.993 36.716 4.443V10.787H21.736V4.443C21.735 1.993 19.742 0 17.293 0C14.803 0 12.852 1.952 12.852 4.443V10.787H5.131C2.301 10.787 0 13.088 0 15.915V72.826C0 75.59 2.301 77.838 5.131 77.838H49.196C53.085 85.07 60.725 90 69.494 90C82.193 90 92.525 79.669 92.525 66.972C92.526 58.202 87.596 50.564 80.364 46.676ZM62.58 4.443C62.58 3.096 63.676 2 65.02 2C66.412 2 67.463 3.05 67.463 4.443V15.916C67.463 17.263 66.367 18.359 65.02 18.359C63.745 18.359 62.581 17.194 62.581 15.916L62.58 4.443ZM38.715 4.443C38.715 3.096 39.811 2 41.159 2C42.55 2 43.598 3.05 43.598 4.443V15.916C43.598 17.263 42.504 18.359 41.159 18.359C39.88 18.359 38.716 17.194 38.716 15.916L38.715 4.443ZM14.852 4.443C14.852 3.05 15.901 2 17.293 2C18.639 2 19.734 3.096 19.734 4.443V15.916C19.734 17.194 18.57 18.359 17.293 18.359C15.947 18.359 14.852 17.263 14.852 15.916V4.443ZM2 15.916C2 14.162 3.375 12.788 5.131 12.788H12.852V15.916C12.852 18.366 14.844 20.359 17.293 20.359C19.701 20.359 21.734 18.324 21.734 15.916V12.788H36.714V15.916C36.714 18.324 38.749 20.359 41.157 20.359C43.604 20.359 45.596 18.366 45.596 15.916V12.788H60.578V15.916C60.578 18.324 62.611 20.359 65.017 20.359C67.466 20.359 69.46 18.366 69.46 15.916V12.788H75.231C76.985 12.788 78.36 14.162 78.36 15.916V29.259H2V15.916ZM5.131 75.838C3.404 75.838 2 74.487 2 72.826V31.258H78.363V45.722C75.632 44.578 72.635 43.944 69.494 43.944C69.291 43.944 69.091 43.954 68.889 43.959V40.24C68.889 39.688 68.442 39.24 67.889 39.24H56.186C55.633 39.24 55.186 39.688 55.186 40.24V48.948C51.082 52.213 48.112 56.844 46.977 62.151V58.023C46.977 57.471 46.53 57.023 45.977 57.023H34.387C33.834 57.023 33.387 57.471 33.387 58.023V69.727C33.387 70.279 33.834 70.727 34.387 70.727H45.977C46.276 70.727 46.537 70.59 46.719 70.382C47.003 72.286 47.521 74.115 48.242 75.838H5.131ZM66.889 44.095C63.351 44.496 60.055 45.701 57.186 47.524V41.24H66.889V44.095ZM44.977 59.022V68.726H35.387V59.022H44.977ZM69.494 88C57.898 88 48.465 78.567 48.465 66.972C48.465 55.377 57.899 45.944 69.494 45.944C81.092 45.944 90.525 55.377 90.525 66.972C90.526 78.567 81.092 88 69.494 88Z" fill="#270E15"/>
<path d="M77.8582 78.8991C75.4502 80.6511 72.5573 81.5771 69.4953 81.5771C61.3823 81.5771 54.7802 75.0251 54.7802 66.9721C54.7802 64.1341 55.6162 61.3161 57.1342 59.0371C57.4412 58.5781 57.3163 57.9571 56.8573 57.6511C56.3943 57.3431 55.7752 57.4691 55.4702 57.9291C53.7362 60.5321 52.7812 63.7441 52.7812 66.9721C52.7812 76.1281 60.2793 83.5771 69.4963 83.5771C72.9843 83.5771 76.2833 82.5191 79.0353 80.5161C79.4823 80.1911 79.5822 79.5661 79.2562 79.1191C78.9302 78.6731 78.3032 78.5731 77.8582 78.8991Z" fill="#270E15"/>
<path d="M79.6369 53.7931C76.8129 51.5861 73.2109 50.3711 69.4939 50.3711C66.0059 50.3711 62.6779 51.3821 59.8669 53.2951C59.4099 53.6061 59.2929 54.2281 59.6029 54.6851C59.9139 55.1411 60.5369 55.2581 60.9919 54.9491C63.4689 53.2621 66.4079 52.3711 69.4939 52.3711C72.8139 52.3711 75.8939 53.4081 78.4039 55.3691C82.0229 58.1971 84.0989 62.4261 84.0989 66.9721C84.0989 69.7851 83.3019 72.4611 81.7299 74.9251C81.4329 75.3901 81.5699 76.0081 82.0349 76.3061C82.2029 76.4121 82.3889 76.4631 82.5719 76.4631C82.9019 76.4631 83.2259 76.3001 83.4159 76.0011C85.1969 73.2111 86.0999 70.1731 86.0999 66.9731C86.0999 61.8061 83.7439 57.0021 79.6369 53.7931Z" fill="#270E15"/>
<path d="M65.4344 69.3181C64.8874 69.2171 64.3684 69.5741 64.2664 70.1171C63.8504 72.3411 64.9224 74.6081 66.9614 75.7731C67.4554 76.0371 67.9734 76.2061 68.4944 76.3031V76.9531C68.4944 77.5051 68.9414 77.9531 69.4944 77.9531C70.0474 77.9531 70.4944 77.5051 70.4944 76.9531V76.2791C71.4744 76.0681 72.4084 75.5711 73.1854 74.7951C75.1014 72.8781 75.2324 69.7891 73.4664 67.5841C72.2714 66.1891 70.7594 66.0521 69.5444 65.9421C68.1924 65.8191 67.3004 65.7371 66.5794 64.2981C65.8994 63.1121 66.1284 61.5181 67.0734 60.4821C68.1884 59.4601 69.6844 59.2521 70.9974 59.9511C72.2264 60.5641 72.9014 61.9611 72.6424 63.3471C72.5384 63.8891 72.8964 64.4121 73.4394 64.5141C73.9904 64.6181 74.5054 64.2571 74.6074 63.7151C75.0314 61.4561 73.9144 59.1731 71.9164 58.1731C71.4594 57.9301 70.9804 57.7691 70.4944 57.6681V56.9941C70.4944 56.4421 70.0474 55.9941 69.4944 55.9941C68.9414 55.9941 68.4944 56.4421 68.4944 56.9941V57.6441C67.4824 57.8281 66.5024 58.2971 65.6624 59.0691C64.0744 60.8001 63.7364 63.3601 64.8164 65.2421C66.0094 67.6281 67.8694 67.7971 69.3634 67.9331C70.5524 68.0411 71.3144 68.1451 71.9274 68.8591C73.0324 70.2411 72.9664 72.1851 71.7714 73.3801C70.6894 74.4631 69.2074 74.7031 67.9254 74.0221C66.6524 73.2941 65.9704 71.8731 66.2304 70.4851C66.3344 69.9421 65.9774 69.4201 65.4344 69.3181Z" fill="#270E15"/>
</svg>
