<svg width="1400" height="227" viewBox="0 0 1400 227" fill="none" xmlns="http://www.w3.org/2000/svg">
<g clip-path="url(#clip0_1585_11243)">
<path d="M233.333 0.5C361.92 0.5 466.167 105.347 466.167 234.689C466.167 364.032 361.921 468.88 233.333 468.88C104.746 468.88 0.5 364.032 0.5 234.689C0.500246 105.348 104.746 0.500174 233.333 0.5Z" stroke="black"/>
<path d="M699.999 0.5C828.586 0.5 932.833 105.347 932.833 234.689C932.833 364.032 828.587 468.88 699.999 468.88C571.412 468.88 467.166 364.032 467.166 234.689C467.166 105.348 571.412 0.500183 699.999 0.5Z" stroke="black"/>
<path d="M1166.67 0.5C1295.25 0.5 1399.5 105.347 1399.5 234.689C1399.5 364.032 1295.25 468.88 1166.67 468.88C1038.08 468.88 933.834 364.032 933.834 234.689C933.834 105.348 1038.08 0.500183 1166.67 0.5Z" stroke="black"/>
<circle cx="467.335" cy="233.335" r="232.835" stroke="black" stroke-dasharray="5 5"/>
<circle cx="933.335" cy="233.335" r="232.835" stroke="black" stroke-dasharray="5 5"/>
</g>
<defs>
<clipPath id="clip0_1585_11243">
<rect width="1400" height="227" fill="white"/>
</clipPath>
</defs>
</svg>
