<?xml version="1.0" encoding="UTF-8"?>
<svg id="Layer_1" data-name="Layer 1" xmlns="http://www.w3.org/2000/svg" viewBox="0 0 1400 199">
  <defs>
    <style>
        .cls-1, .cls-2 {
        fill: currentColor;
        stroke: #270e15;
        stroke-miterlimit: 10;
        stroke-width: .5px;
        }

      .cls-2 {
        stroke-dasharray: 8 5;
      }
    </style>
  </defs>
  <path class="cls-1" d="M346.03,1200.63c190.97,0,345.78-268.71,345.78-600.19S537,.25,346.03.25.25,268.96.25,600.44s154.81,600.19,345.78,600.19Z"/>
  <path class="cls-2" d="M581.97,1200.63c190.97,0,345.78-268.71,345.78-600.19S772.94.25,581.97.25,236.2,268.96,236.2,600.44s154.81,600.19,345.78,600.19Z"/>
  <path class="cls-1" d="M817.91,1200.63c190.97,0,345.78-268.71,345.78-600.19S1008.88.25,817.91.25s-345.78,268.71-345.78,600.19,154.81,600.19,345.78,600.19Z"/>
  <path class="cls-2" d="M1053.84,1200.63c190.97,0,345.78-268.71,345.78-600.19S1244.81.25,1053.84.25s-345.78,268.71-345.78,600.19,154.81,600.19,345.78,600.19Z"/>
</svg>