<svg width="20" height="20" viewBox="0 0 20 20" fill="none" xmlns="http://www.w3.org/2000/svg">
<path d="M16.6667 7.50016L17.0202 7.85372L17.3738 7.50016L17.0202 7.14661L16.6667 7.50016ZM12.8536 2.97994L12.5 2.62639L11.7929 3.3335L12.1464 3.68705L12.5 3.3335L12.8536 2.97994ZM12.5 11.6668L12.8536 12.0204L17.0202 7.85372L16.6667 7.50016L16.3131 7.14661L12.1464 11.3133L12.5 11.6668ZM16.6667 7.50016L17.0202 7.14661L12.8536 2.97994L12.5 3.3335L12.1464 3.68705L16.3131 7.85372L16.6667 7.50016Z" fill="#FEFCF7"/>
<path d="M2.83301 16.6667V17.1667H3.83301V16.6667H3.33301H2.83301ZM6.66634 7.5V7V7.5ZM3.33301 16.6667H3.83301V10.8333H3.33301H2.83301V16.6667H3.33301ZM3.33301 10.8333H3.83301C3.83301 10.0819 4.13152 9.36122 4.66287 8.82986L4.30932 8.47631L3.95576 8.12276C3.23688 8.84165 2.83301 9.81667 2.83301 10.8333H3.33301ZM4.30932 8.47631L4.66287 8.82986C5.19422 8.29851 5.91489 8 6.66634 8V7.5V7C5.64968 7 4.67465 7.40387 3.95576 8.12276L4.30932 8.47631ZM6.66634 7.5V8H16.6663V7.5V7H6.66634V7.5Z" fill="#FEFCF7"/>
</svg>
