<svg width="1033" height="842" viewBox="0 0 1033 842" fill="none" xmlns="http://www.w3.org/2000/svg">
<path d="M784.541 195.311C686.384 255.896 556.684 300.449 452.5 227.629C438.81 218.064 428.419 205.458 422.534 189.015C422.249 189.229 346.055 237.563 368.316 295.646C368.53 295.973 368.729 296.101 368.771 296.3C370.378 300.634 372.524 304.869 375.452 309.246C304.632 290.913 261.914 218.661 280.252 147.716C294.269 93.8114 341.975 66.4823 394.046 59.8028C70.4481 -93.3992 -298.653 639.299 388.559 823.07C627.391 886.966 852.476 779.71 1033 642.738V0C948.473 62.8157 874.596 139.758 784.541 195.311Z" fill="#A3A3A3"/>
</svg>
