<svg width="24" height="24" viewBox="0 0 24 24" fill="none" xmlns="http://www.w3.org/2000/svg">
<rect width="24" height="24" fill="#270E15"/>
<g clip-path="url(#clip0_2322_3948)">
<path d="M9.66728 12C9.66728 10.7114 10.7116 9.66648 12.0002 9.66648C13.2889 9.66648 14.3338 10.7114 14.3338 12C14.3338 13.2886 13.2889 14.3335 12.0002 14.3335C10.7116 14.3335 9.66728 13.2886 9.66728 12ZM8.40583 12C8.40583 13.9852 10.015 15.5944 12.0002 15.5944C13.9854 15.5944 15.5947 13.9852 15.5947 12C15.5947 10.0148 13.9854 8.40558 12.0002 8.40558C10.015 8.40558 8.40583 10.0148 8.40583 12ZM14.897 8.26306C14.8969 8.4292 14.9461 8.59163 15.0383 8.7298C15.1306 8.86797 15.2617 8.97569 15.4152 9.03933C15.5687 9.10297 15.7375 9.11967 15.9005 9.08732C16.0635 9.05498 16.2132 8.97504 16.3307 8.85761C16.4482 8.74018 16.5283 8.59054 16.5607 8.42761C16.5932 8.26467 16.5767 8.09577 16.5131 7.94226C16.4496 7.78874 16.342 7.65751 16.2039 7.56515C16.0658 7.4728 15.9034 7.42347 15.7373 7.4234H15.737C15.5143 7.4235 15.3007 7.51199 15.1432 7.66943C14.9857 7.82686 14.8971 8.04037 14.897 8.26306ZM9.17224 17.6978C8.48977 17.6668 8.11883 17.5531 7.87232 17.457C7.5455 17.3298 7.31232 17.1783 7.06715 16.9334C6.82198 16.6886 6.67022 16.4556 6.54355 16.1288C6.44745 15.8824 6.33377 15.5114 6.30275 14.8289C6.26881 14.091 6.26204 13.8694 6.26204 12.0001C6.26204 10.1307 6.26937 9.90969 6.30275 9.17122C6.33383 8.48874 6.44835 8.11842 6.54355 7.87129C6.67078 7.54447 6.82232 7.31129 7.06715 7.06612C7.31198 6.82095 7.54494 6.66919 7.87232 6.54252C8.11872 6.44642 8.48977 6.33274 9.17224 6.30172C9.9101 6.26778 10.1317 6.26101 12.0002 6.26101C13.8687 6.26101 14.0906 6.26834 14.8291 6.30172C15.5116 6.3328 15.8819 6.44732 16.129 6.54252C16.4558 6.66919 16.689 6.82129 16.9342 7.06612C17.1793 7.31095 17.3305 7.54447 17.4578 7.87129C17.5539 8.11769 17.6676 8.48874 17.6986 9.17122C17.7325 9.90969 17.7393 10.1307 17.7393 12.0001C17.7393 13.8694 17.7325 14.0904 17.6986 14.8289C17.6675 15.5114 17.5533 15.8823 17.4578 16.1288C17.3305 16.4556 17.179 16.6888 16.9342 16.9334C16.6893 17.178 16.4558 17.3298 16.129 17.457C15.8826 17.5531 15.5116 17.6668 14.8291 17.6978C14.0912 17.7318 13.8696 17.7385 12.0002 17.7385C10.1309 17.7385 9.90988 17.7318 9.17224 17.6978ZM9.11428 5.04239C8.36909 5.07633 7.85988 5.19449 7.41519 5.36753C6.95464 5.54622 6.56477 5.78596 6.17518 6.17494C5.78559 6.56391 5.54647 6.9544 5.36777 7.41494C5.19473 7.85992 5.07657 8.36885 5.04264 9.11404C5.00814 9.86041 5.00024 10.099 5.00024 12C5.00024 13.901 5.00814 14.1396 5.04264 14.886C5.07657 15.6312 5.19473 16.1401 5.36777 16.5851C5.54647 17.0453 5.78564 17.4363 6.17518 17.8251C6.56472 18.2139 6.95464 18.4533 7.41519 18.6325C7.86072 18.8055 8.36909 18.9237 9.11428 18.9576C9.86104 18.9915 10.0993 19 12.0002 19C13.9012 19 14.1398 18.9921 14.8862 18.9576C15.6315 18.9237 16.1403 18.8055 16.5853 18.6325C17.0456 18.4533 17.4357 18.214 17.8253 17.8251C18.2149 17.4361 18.4535 17.0453 18.6327 16.5851C18.8058 16.1401 18.9245 15.6312 18.9579 14.886C18.9918 14.139 18.9997 13.901 18.9997 12C18.9997 10.099 18.9918 9.86041 18.9579 9.11404C18.9239 8.36879 18.8058 7.85964 18.6327 7.41494C18.4535 6.95468 18.2143 6.56453 17.8253 6.17494C17.4363 5.78534 17.0456 5.54622 16.5859 5.36753C16.1403 5.19449 15.6314 5.07577 14.8868 5.04239C14.1404 5.00846 13.9018 5 12.0008 5C10.0998 5 9.86104 5.0079 9.11428 5.04239Z" fill="#FBC938"/>
<path d="M9.66728 12C9.66728 10.7114 10.7116 9.66648 12.0002 9.66648C13.2889 9.66648 14.3338 10.7114 14.3338 12C14.3338 13.2886 13.2889 14.3335 12.0002 14.3335C10.7116 14.3335 9.66728 13.2886 9.66728 12ZM8.40583 12C8.40583 13.9852 10.015 15.5944 12.0002 15.5944C13.9854 15.5944 15.5947 13.9852 15.5947 12C15.5947 10.0148 13.9854 8.40558 12.0002 8.40558C10.015 8.40558 8.40583 10.0148 8.40583 12ZM14.897 8.26306C14.8969 8.4292 14.9461 8.59163 15.0383 8.7298C15.1306 8.86797 15.2617 8.97569 15.4152 9.03933C15.5687 9.10297 15.7375 9.11967 15.9005 9.08732C16.0635 9.05498 16.2132 8.97504 16.3307 8.85761C16.4482 8.74018 16.5283 8.59054 16.5607 8.42761C16.5932 8.26467 16.5767 8.09577 16.5131 7.94226C16.4496 7.78874 16.342 7.65751 16.2039 7.56515C16.0658 7.4728 15.9034 7.42347 15.7373 7.4234H15.737C15.5143 7.4235 15.3007 7.51199 15.1432 7.66943C14.9857 7.82686 14.8971 8.04037 14.897 8.26306ZM9.17224 17.6978C8.48977 17.6668 8.11883 17.5531 7.87232 17.457C7.5455 17.3298 7.31232 17.1783 7.06715 16.9334C6.82198 16.6886 6.67022 16.4556 6.54355 16.1288C6.44745 15.8824 6.33377 15.5114 6.30275 14.8289C6.26881 14.091 6.26204 13.8694 6.26204 12.0001C6.26204 10.1307 6.26937 9.90969 6.30275 9.17122C6.33383 8.48874 6.44835 8.11842 6.54355 7.87129C6.67078 7.54447 6.82232 7.31129 7.06715 7.06612C7.31198 6.82095 7.54494 6.66919 7.87232 6.54252C8.11872 6.44642 8.48977 6.33274 9.17224 6.30172C9.9101 6.26778 10.1317 6.26101 12.0002 6.26101C13.8687 6.26101 14.0906 6.26834 14.8291 6.30172C15.5116 6.3328 15.8819 6.44732 16.129 6.54252C16.4558 6.66919 16.689 6.82129 16.9342 7.06612C17.1793 7.31095 17.3305 7.54447 17.4578 7.87129C17.5539 8.11769 17.6676 8.48874 17.6986 9.17122C17.7325 9.90969 17.7393 10.1307 17.7393 12.0001C17.7393 13.8694 17.7325 14.0904 17.6986 14.8289C17.6675 15.5114 17.5533 15.8823 17.4578 16.1288C17.3305 16.4556 17.179 16.6888 16.9342 16.9334C16.6893 17.178 16.4558 17.3298 16.129 17.457C15.8826 17.5531 15.5116 17.6668 14.8291 17.6978C14.0912 17.7318 13.8696 17.7385 12.0002 17.7385C10.1309 17.7385 9.90988 17.7318 9.17224 17.6978ZM9.11428 5.04239C8.36909 5.07633 7.85988 5.19449 7.41519 5.36753C6.95464 5.54622 6.56477 5.78596 6.17518 6.17494C5.78559 6.56391 5.54647 6.9544 5.36777 7.41494C5.19473 7.85992 5.07657 8.36885 5.04264 9.11404C5.00814 9.86041 5.00024 10.099 5.00024 12C5.00024 13.901 5.00814 14.1396 5.04264 14.886C5.07657 15.6312 5.19473 16.1401 5.36777 16.5851C5.54647 17.0453 5.78564 17.4363 6.17518 17.8251C6.56472 18.2139 6.95464 18.4533 7.41519 18.6325C7.86072 18.8055 8.36909 18.9237 9.11428 18.9576C9.86104 18.9915 10.0993 19 12.0002 19C13.9012 19 14.1398 18.9921 14.8862 18.9576C15.6315 18.9237 16.1403 18.8055 16.5853 18.6325C17.0456 18.4533 17.4357 18.214 17.8253 17.8251C18.2149 17.4361 18.4535 17.0453 18.6327 16.5851C18.8058 16.1401 18.9245 15.6312 18.9579 14.886C18.9918 14.139 18.9997 13.901 18.9997 12C18.9997 10.099 18.9918 9.86041 18.9579 9.11404C18.9239 8.36879 18.8058 7.85964 18.6327 7.41494C18.4535 6.95468 18.2143 6.56453 17.8253 6.17494C17.4363 5.78534 17.0456 5.54622 16.5859 5.36753C16.1403 5.19449 15.6314 5.07577 14.8868 5.04239C14.1404 5.00846 13.9018 5 12.0008 5C10.0998 5 9.86104 5.0079 9.11428 5.04239Z" fill="#FBC938"/>
</g>
<defs>
<clipPath id="clip0_2322_3948">
<rect width="14" height="14" fill="white" transform="translate(5 5)"/>
</clipPath>
</defs>
</svg>
