<svg width="24" height="24" viewBox="0 0 24 24" fill="none" xmlns="http://www.w3.org/2000/svg">
<rect width="24" height="24" fill="#270E15"/>
<g clip-path="url(#clip0_457_1375)">
<path d="M6 7.39394C6 6.98989 6.1464 6.65656 6.43919 6.39394C6.73198 6.13131 7.11262 6 7.58108 6C8.04119 6 8.41344 6.12928 8.69788 6.38788C8.99066 6.65454 9.13707 7.00201 9.13707 7.4303C9.13707 7.81818 8.99486 8.1414 8.71042 8.4C8.41764 8.66666 8.03282 8.8 7.55598 8.8H7.54344C7.08333 8.8 6.71107 8.66666 6.42664 8.4C6.14221 8.13333 6 7.79797 6 7.39394ZM6.16313 18V9.90302H8.94884V18H6.16313ZM10.4923 18H13.278V13.4788C13.278 13.1959 13.3115 12.9778 13.3784 12.8242C13.4955 12.5495 13.6733 12.3172 13.9117 12.1273C14.1501 11.9374 14.4492 11.8424 14.8089 11.8424C15.7458 11.8424 16.2143 12.4525 16.2143 13.6727V18H19V13.3576C19 12.1616 18.7072 11.2545 18.1216 10.6364C17.536 10.0182 16.7622 9.70908 15.8002 9.70908C14.721 9.70908 13.8803 10.1576 13.278 11.0545V11.0788H13.2654L13.278 11.0545V9.90302H10.4923C10.509 10.1616 10.5174 10.9656 10.5174 12.3151C10.5174 13.6646 10.509 15.5596 10.4923 18Z" fill="#FBC938"/>
</g>
<defs>
<clipPath id="clip0_457_1375">
<rect width="13" height="12" fill="white" transform="translate(6 6)"/>
</clipPath>
</defs>
</svg>
