<svg viewBox="0 0 165 51" version="1.1" xmlns="http://www.w3.org/2000/svg" xmlns:xlink="http://www.w3.org/1999/xlink">
    <g stroke="none" stroke-width="1" fill="#2D205D" fill-rule="evenodd">
        <path d="M72.5042696,28.7193459 C71.5652143,31.2913142 70.4398687,32.5965381 67.5519885,32.587303 C63.531159,32.5749896 62.0263894,29.0556565 62.0377949,25.2515754 C62.0492005,21.8338282 63.4710899,18.9154676 67.3717811,18.9277811 C69.7745461,18.935477 71.30897,19.9405609 72.1902373,22.5610903 L73.2387857,22.5641687 L73.1292926,19.0462979 L73.0836705,17.6148613 L72.1773111,17.6117829 L71.4983018,18.226685 C70.5037396,17.8542036 69.2149147,17.5809993 67.577841,17.5763276 C62.8483479,17.56099 59.1004908,20.8241267 59.0844809,26.0380959 C59.0715968,30.2515987 62.0294309,33.9217713 67.3649378,33.9387885 C69.951712,33.9463981 71.4983018,33.438469 73.1163664,32.6696491 L73.5741083,28.7224243 L72.5042696,28.7193459 Z" id="Path"></path>
        <path d="M83.7493282,28.8357078 C83.7576498,26.0951994 82.5311751,23.964206 80.3086175,23.9572621 C78.4289862,23.9511229 77.5758525,25.5641826 77.5689674,27.7936836 C77.5606452,30.534192 78.8068894,32.6651854 81.0096774,32.6721295 C82.8885484,32.6782685 83.7424424,31.0852181 83.7493282,28.8357078 Z M75.0002983,28.501706 C75.0117373,24.9023356 77.665576,22.6397424 80.8781336,22.649714 C84.1515207,22.6605213 86.3474654,24.978525 86.3376139,28.128455 C86.3269355,31.7270558 83.6527189,33.9888795 80.4394009,33.9789079 C77.1660138,33.9688701 74.990447,31.651636 75.0002983,28.501706 Z" id="Shape"></path>
        <path d="M96.287765,26.3796397 C96.2915668,24.9889914 95.5859447,24.5164634 94.3336175,24.5126155 C93.3025576,24.5095371 92.0479493,25.0166966 91.2586866,25.6077414 L91.2396774,31.7429093 C91.2366359,32.6833478 91.8426498,32.7880119 92.7718203,32.913455 L92.7695392,33.8131052 L87.2728341,33.7961743 L87.2751152,32.8965241 C88.2050461,32.7764681 88.8118203,32.6764215 88.8148618,31.7352134 L88.8353917,25.0474802 L87.4028571,24.2455679 L87.4043779,23.6930026 L90.6412673,22.6602134 L91.3681797,22.6625222 L91.2617281,24.6873123 C92.1536406,23.7083944 93.7123963,22.6902274 95.3289401,22.694845 C97.32947,22.7017713 98.7209447,23.6876155 98.713341,26.0594905 L98.6958525,31.7667666 C98.6935714,32.707205 99.2988249,32.8110996 100.228756,32.9373123 L100.225714,33.8361929 L94.7290092,33.8192619 L94.7320507,32.9196118 C95.6619816,32.7995558 96.2687558,32.6995091 96.2717972,31.7583011 L96.287765,26.3796397 Z" id="Path"></path>
        <path d="M101.663571,32.9824872 L101.551037,30.2619882 L102.601866,30.2650665 C102.97977,32.0043389 103.906659,32.907837 105.563502,32.9124546 C106.897189,32.9170721 107.748041,32.3468062 107.751083,31.2216663 C107.754124,30.2812279 107.088802,29.9318342 105.978664,29.6209201 L104.524839,29.1868715 C102.788157,28.6904863 101.679539,27.8893436 101.684862,25.9468995 C101.691705,23.9221094 103.210922,22.7200105 105.594677,22.7276697 C107.050023,22.732324 108.201221,23.0632475 109.128111,23.6181215 L109.121267,26.1131309 L108.110737,26.1100525 C107.792143,24.5339331 106.925323,23.8767036 105.490507,23.8728557 C104.460207,23.8697773 103.751544,24.3576971 103.748502,25.3396934 C103.745461,26.1577671 104.209286,26.5071607 105.178756,26.7957568 L106.753479,27.2513538 C108.691659,27.7885273 109.800276,28.6512372 109.794218,30.6760273 C109.78735,32.8231822 108.065876,34.0660693 105.539931,34.0576468 C103.842788,34.0529863 102.510622,33.5989285 101.663571,32.9824872 Z" id="Path"></path>
        <path d="M115.228548,31.8178674 C115.225507,32.7590754 115.831521,32.86297 116.760691,32.9884131 L116.75765,33.8880632 L111.261705,33.8711323 L111.264747,32.9714821 C112.194677,32.8514261 112.800691,32.7513795 112.803733,31.8101715 L112.824263,25.1224382 L111.392488,24.3205259 L111.394009,23.7687302 L114.629378,22.7351715 L115.357051,22.7374802 L115.249839,24.8438468 L115.228548,31.8178674 Z" id="Path"></path>
        <path d="M114.037811,17.9884143 C114.987512,17.9914984 115.652074,18.6887465 115.649043,19.5891663 C115.645991,20.4680376 114.977627,21.1614378 114.027926,21.1583696 C113.097995,21.1560507 112.433433,20.4580329 112.436464,19.5791617 C112.439516,18.6787419 113.10788,17.9861113 114.037811,17.9884143 Z" id="Path"></path>
        <path d="M122.160829,31.8397237 C122.157788,32.7809317 122.763802,32.8848263 123.692972,33.0102694 L123.689931,33.9099196 L118.193986,33.8929886 L118.196267,32.9933384 C119.126198,32.8732825 119.732972,32.7732358 119.736014,31.8320278 L119.773272,19.5201341 L118.340737,18.8405866 L118.342258,18.3088002 L121.578387,17.3375782 L122.30606,17.3398869 L122.199608,19.0983991 L122.160829,31.8397237 Z" id="Path"></path>
        <path d="M128.992742,31.8612722 C128.9897,32.8024802 129.595714,32.9063748 130.524885,33.0318179 L130.522604,33.9314681 L125.025899,33.9145371 L125.02894,33.0148869 C125.958871,32.894831 126.564885,32.7947843 126.567926,31.8535763 L126.588456,25.1658431 L125.155922,24.3639308 L125.158203,23.8121351 L128.393571,22.7785763 L129.121244,22.7808851 L129.014032,24.8872517 L128.992742,31.8612722 Z" id="Path"></path>
        <path d="M127.802005,18.0315838 C128.751705,18.0346724 129.416267,18.7319205 129.413236,19.6315707 C129.410945,20.5112116 128.74182,21.2046118 127.79212,21.2015436 C126.862949,21.1992246 126.197627,20.5012069 126.200658,19.621566 C126.202949,18.7219159 126.872074,18.0285157 127.802005,18.0315838 Z" id="Path"></path>
        <path d="M139.801382,32.1611043 C138.969539,33.2015894 137.693641,34.1589588 136.017028,34.1535716 C134.077327,34.1474149 132.705622,33.1615707 132.713226,30.7681472 L132.729954,25.3687069 C132.732235,24.6737675 132.429608,24.40672 131.500438,24.2812769 L131.136982,24.2189401 L131.139263,23.3185203 L134.656728,22.8182871 L135.263502,22.8205959 L135.15553,24.9269625 L135.138802,30.4287582 C135.13424,31.8394159 135.900691,32.3942899 136.99182,32.3973683 C138.123249,32.4012162 139.034931,31.8309504 139.804424,31.2406752 L139.821912,25.391025 C139.824194,24.6960856 139.522327,24.4290381 138.593157,24.303595 L138.24947,24.2412582 L138.252512,23.341608 L141.769977,22.8406052 L142.356221,22.842914 L142.248249,24.948511 L142.228479,31.5138795 C142.226198,32.2095884 142.447465,32.4150688 143.316567,32.4989541 L143.841221,32.5420511 L143.83894,33.4617106 L140.118456,34.1658851 L139.694171,34.1651155 L139.801382,32.1611043 Z" id="Path"></path>
        <path d="M159.611267,22.8965544 C161.530438,22.9027111 162.841313,24.0109201 162.83447,26.0564891 L162.816221,31.9669368 C162.81318,32.9073753 163.379654,33.0120395 164.308065,33.1374826 L164.305783,34.0379023 L158.869908,34.0202018 L158.872189,33.1205516 C159.80288,33.0004956 160.389124,32.900449 160.391406,31.959241 L160.408134,26.5805796 C160.411935,25.312296 159.767143,24.7174033 158.534585,24.7135553 C157.625945,24.710477 156.572834,25.1576085 155.8847,25.7686626 L155.865691,31.9453883 C155.86265,32.8858268 156.427604,32.9897214 157.357535,33.1151645 L157.354493,34.0155842 L151.939147,33.9986533 L151.942189,33.0982335 C152.871359,32.9789471 153.437074,32.8781309 153.440115,31.9376924 L153.456843,26.5582615 C153.460645,25.2907475 152.836382,24.6958548 151.603825,24.6920068 C150.694424,24.6889285 149.622304,25.1352904 148.93341,25.7471141 L148.914401,31.9230702 C148.911359,32.8642783 149.496843,32.9681729 150.426014,33.093616 L150.423733,33.9940357 L144.946797,33.9763352 L144.949839,33.076685 C145.87977,32.956629 146.486544,32.8565824 146.489585,31.9161439 L146.510115,25.2276411 L145.077581,24.4257288 L145.079862,23.8739331 L148.315991,22.8411439 L149.042903,22.8434527 L148.935691,24.826685 C149.706705,23.8677764 151.063203,22.8696187 152.659977,22.8750059 C154.195922,22.8796234 155.366129,23.5784107 155.765323,24.92981 C156.516567,23.9301132 157.974194,22.8911673 159.611267,22.8965544 Z" id="Path"></path>
        <path d="M7.94197465,38.4624266 L8.05070737,38.5078324 C8.13967051,38.5393855 8.28566129,38.5940264 8.44533871,38.6409714 C8.80271198,38.7425572 9.17529263,38.7933501 9.57372581,38.7941197 L11.9901774,38.7948893 L11.9886567,41.2491104 C11.9886567,42.0895021 12.2289332,42.9006495 12.6828733,43.5932801 C12.756629,43.7071794 12.8311452,43.8018389 12.9056613,43.8964984 C12.9619286,43.970379 12.9923433,44.0119368 13.0273203,44.0534947 C13.0524124,44.0765824 13.101076,44.133532 13.1558226,44.1989471 C13.1786336,44.223574 13.3040945,44.3413212 13.3276659,44.3651785 L13.3307074,37.4457988 L6.4972894,37.4427204 C6.88203594,37.829824 7.43862581,38.251559 7.94197465,38.4624266 Z" id="Path"></path>
        <path d="M37.2821682,44.0517246 C37.3171452,44.0109364 37.3475599,43.968609 37.4038272,43.8947284 C37.4783433,43.8000688 37.5536198,43.7061789 37.6273756,43.5922797 C38.082076,42.8996491 38.3231129,42.0885017 38.3231129,41.2481099 L38.3246336,38.7938888 L40.7410853,38.795428 C41.1395184,38.795428 41.5113387,38.7446351 41.8694724,38.6438188 C42.0291498,38.5968739 42.1751406,38.542233 42.2641037,38.5106799 L42.3728364,38.4660437 C42.8762005,38.2544065 43.4335507,37.8342106 43.8182972,37.4471071 L36.9848641,37.4440287 L36.9818226,44.3634084 C37.005394,44.3395511 37.1300945,44.2210343 37.1536659,44.1964075 C37.2084124,44.1317619 37.257076,44.0748123 37.2821682,44.0517246 Z" id="Path"></path>
        <path d="M13.1730829,6.73498909 C13.117576,6.8004042 13.0696728,6.85735382 13.0445806,6.87967192 C13.0088433,6.92122976 12.9791889,6.96281838 12.9229217,7.03746856 C12.8476452,7.13135849 12.773129,7.226018 12.6986129,7.33991726 C12.2446728,8.03254785 12.0036359,8.84292565 12.0036359,9.68408703 L12.0021152,12.1383081 L9.58566359,12.1367689 C9.18723041,12.1367689 8.81541014,12.1867923 8.45651613,12.2883781 C8.29683871,12.335323 8.15160829,12.3899639 8.06188479,12.4215171 L7.95391244,12.4661533 C7.44978041,12.6770208 6.89319055,13.0979863 6.50768364,13.4850898 L13.3411244,13.4881682 L13.3449263,6.56875774 C13.3205945,6.59261502 13.195894,6.71036222 13.1730829,6.73498909 Z" id="Path"></path>
        <path d="M19.0269332,48.1871141 C19.1425092,48.1871141 19.2489608,48.1771094 19.3698594,48.1671048 L19.7029009,48.121699 C19.9500207,48.0855283 20.1971406,48.0193436 20.4541452,47.9169882 C20.5552742,47.881587 20.6107811,47.8561906 20.6510806,47.8354117 C21.1559654,47.5960693 21.5741682,47.2851551 21.9376244,46.8918949 L22.2303664,46.5702064 L16.5260806,46.5678977 C15.8250207,46.5671281 15.1338456,46.4293715 14.4837304,46.1684807 C13.8077627,45.8929676 13.2025092,45.4989378 12.6885,44.9987046 C12.5676014,44.8709527 12.4467028,44.748588 12.3258041,44.6108314 C12.280182,44.5646561 12.2193525,44.4876971 12.1493986,44.3907288 C12.1189839,44.3553277 12.0687995,44.289143 12.0034078,44.1814005 C11.9577857,44.1206029 11.9174862,44.0644229 11.8718641,43.9982382 C11.8216797,43.9258967 11.7813802,43.859712 11.7410806,43.773518 C11.6908963,43.696559 11.6498364,43.6249872 11.6102972,43.5380236 C11.519053,43.3794882 11.4483387,43.2117176 11.3882696,43.068574 C11.281818,42.8030656 11.1966567,42.5429443 11.131265,42.2520395 C11.1114954,42.200477 11.1016106,42.1442969 11.0909654,42.093504 C11.0506659,41.9195768 11.0354585,41.7918249 11.0156889,41.6594555 C11.0058041,41.5470954 10.995159,41.4393529 10.9852742,41.3223753 C10.9753894,41.2661952 10.9753894,41.2200199 10.9753894,41.1846187 L10.9761498,39.8216757 L9.56414516,39.8155189 C9.45313134,39.8109014 9.38241705,39.8055143 9.30181797,39.7901225 C8.80225576,39.7493342 8.28292396,39.6161952 7.76815438,39.4014798 C7.35979839,39.2383268 6.97657258,39.0236113 6.63440668,38.7681076 L6.5127477,38.6657521 C6.48233295,38.6457428 6.45267857,38.6195768 6.42758641,38.604185 C6.34698733,38.5433874 6.27095046,38.4764331 6.19035138,38.4002437 C6.0686924,38.2978883 5.90293203,38.1293482 5.73641129,37.9407988 C5.69611175,37.9046281 5.65048963,37.848448 5.59042051,37.7714891 C5.57521313,37.7514798 5.55468318,37.7260833 5.5250288,37.6899126 C5.46952189,37.6337326 5.42922235,37.572935 5.38360023,37.495976 C5.26270161,37.332823 5.15168779,37.1588958 5.06120392,36.9957428 L4.76922235,36.4031589 C4.74336982,36.3469788 4.72360023,36.2907988 4.69318548,36.2038352 C4.67797811,36.1784387 4.64756336,36.0922447 4.6224712,36.0152857 C4.44682604,35.5050479 4.345697,34.9894229 4.32592742,34.4838025 L4.32364631,28.434059 L4.00581221,28.730351 C3.60205645,29.112837 3.29486751,29.5314937 3.08728687,29.9863212 L3.04242512,30.087907 C3.02721774,30.1233081 3.01201037,30.1594788 3.00136521,30.1794882 C2.89035138,30.470393 2.8196371,30.7305143 2.77933756,31.0014098 L2.73903802,31.3284854 C2.72839286,31.4354583 2.72383065,31.5378137 2.72839286,31.6701831 L2.72687212,34.1921281 C2.72687212,35.4834993 3.05915323,36.7394695 3.68873848,37.8268995 C4.79735599,39.7624173 6.76442972,41.0907288 8.94824654,41.3824033 L9.3763341,41.4385833 L9.43184101,41.8726318 C9.7185,44.0836626 11.0232926,46.0699732 12.9348594,47.193574 C14.0183848,47.8377204 15.2593065,48.1855749 16.5253203,48.1863445 L19.0269332,48.1871141 Z" id="Path"></path>
        <path d="M15.1044194,1.75928479 C15.6541659,1.6630861 16.1134286,1.61691073 16.5468387,1.61691073 L19.0484516,1.61844991 C19.1944424,1.61844991 19.3313088,1.62383703 19.4871843,1.63922882 C19.5578986,1.63922882 19.6339355,1.64923349 19.7190968,1.66462528 C19.7852488,1.66924282 19.845318,1.68001707 19.9259171,1.7000264 C20.2536359,1.7515889 20.57147,1.83855252 20.9090737,1.97630905 C20.9949954,2.0017055 21.115894,2.05865513 21.2322304,2.11945271 C21.9887972,2.47731185 22.6989816,3.08528759 23.2236359,3.83025028 C23.324765,3.97878106 23.4251336,4.13731651 23.5361475,4.32124841 C23.54147,4.32586595 23.5612396,4.35664953 23.5863318,4.41282957 L23.611424,4.46439207 C23.6570461,4.54596856 23.6973456,4.62215793 23.7429677,4.71912621 C23.7680599,4.77068871 23.8030369,4.85226521 23.848659,4.96462528 C23.8585438,4.98463461 23.8935207,5.05620644 23.9292581,5.16856651 C23.9596728,5.23475121 23.984765,5.30632304 24.0098571,5.38251241 C24.0448341,5.47948069 24.0805714,5.58722323 24.1102258,5.72497976 C24.1505253,5.85273162 24.1908249,5.98510103 24.2212396,6.1490236 C24.2417696,6.24599188 24.2562166,6.32218125 24.271424,6.40451964 L24.2919539,6.52688437 C24.3071613,6.6284702 24.3216083,6.72620807 24.3269309,6.83318102 C24.3467005,6.98636782 24.3565853,7.12412435 24.3672304,7.267268 L24.3657097,9.34977733 L24.3702719,11.7955329 C24.4349032,11.7901458 24.4964931,11.7847587 24.5618848,11.7847587 C24.6272765,11.7801411 24.688106,11.7801411 24.7527373,11.774754 C24.9496728,11.7693669 25.1519309,11.7647493 25.3534286,11.7647493 C25.4340276,11.7647493 25.5146267,11.7647493 25.5952258,11.7701365 C25.6606175,11.7647493 25.7267696,11.7701365 25.7868387,11.7755236 C25.8529908,11.7701365 25.9130599,11.7701365 25.9738894,11.7755236 L25.9799724,9.35593405 L25.9807327,7.31344338 C25.9860553,7.13028106 26.0012627,6.99714207 26.01647,6.83933773 C26.0263548,6.73699002 26.0415622,6.64002174 26.051447,6.54767099 L26.0772995,6.3999021 C26.0925069,6.31293848 26.1130369,6.23136968 26.1274839,6.13901894 C26.152576,6.02204132 26.1784286,5.91506838 26.2088433,5.81271297 L26.2339355,5.72574935 C26.2696728,5.58799282 26.3046498,5.47640233 26.3548341,5.34865047 C26.3700415,5.30247509 26.3905714,5.23629039 26.4255484,5.1547139 C26.4559631,5.06236315 26.4917005,4.97616912 26.5418848,4.87843125 C26.5616544,4.81763368 26.5875069,4.75144897 26.6278065,4.67987715 C26.6627834,4.60830532 26.6985207,4.53673349 26.7334977,4.47054879 L26.8551567,4.25660289 C26.9099032,4.14886035 27.00647,4.0057167 27.1228065,3.83794618 C27.6626682,3.0775917 28.3637281,2.48039021 29.1712396,2.09328666 C29.2411935,2.05711595 29.3674147,2.00632304 29.4936359,1.96014767 C29.7909401,1.83778293 30.104212,1.7515889 30.4471382,1.7000264 C30.5079677,1.6854042 30.5680369,1.67539953 30.6539585,1.66462528 C30.7246728,1.65462062 30.7953871,1.64461595 30.8813088,1.64461595 C31.021977,1.62922416 31.1580829,1.62383703 31.3048341,1.62460662 L33.806447,1.62537621 C34.2406175,1.6261458 34.703682,1.67155159 35.2587512,1.77467659 L36.0609401,1.91782024 L36.1012396,1.92243778 L35.9400415,1.80546017 L35.097553,1.20748909 C34.981977,1.12591259 34.8709631,1.04895364 34.7599493,0.982768937 C34.7348571,0.961990019 34.7044424,0.946598228 34.6793502,0.931206437 C34.5934286,0.880413526 34.5128295,0.834238153 34.4269078,0.788832369 C34.3972535,0.773440578 34.3668387,0.758048787 34.336424,0.742656996 C34.2657097,0.706486287 34.1904332,0.671085168 34.1197189,0.635684049 C34.064212,0.609518004 34.0087051,0.584121549 33.9577604,0.558725093 C33.8368618,0.502545056 33.7258479,0.46098722 33.6254793,0.42635569 C33.4893733,0.37479319 33.4239816,0.348627146 33.3479447,0.328617817 L33.282553,0.307838899 C33.2072765,0.282442444 33.146447,0.262433116 33.0552028,0.241654198 C32.9289816,0.205483489 32.8080829,0.174699907 32.6826221,0.150073041 C32.602023,0.129294123 32.4704793,0.108515205 32.3594654,0.0931234142 L32.1176682,0.0523351679 C32.0674839,0.046948041 31.8196037,0.03155625 31.7846267,0.0269387127 C31.4166083,-0.00923507463 31.1489585,0.00077266791 30.8265622,0.0261691231 C30.7657327,0.0307866604 30.7155484,0.0307866604 30.6600415,0.0361737873 L30.4129217,0.0769620336 C30.292023,0.0923538246 30.2007788,0.102358489 30.0950876,0.123137407 C30.0144885,0.138529198 29.9483364,0.153151399 29.8730599,0.16854319 L29.5651106,0.25550681 C29.4738664,0.280903265 29.3833825,0.30629972 29.308106,0.342470429 C28.6876452,0.545642071 28.1576682,0.815768004 27.6428986,1.18363181 C27.522,1.25520364 27.4566083,1.30599655 27.406424,1.34678479 C27.249788,1.46376241 27.1182442,1.57073535 26.9973456,1.67847789 C26.9015392,1.76467192 26.8156175,1.84163088 26.740341,1.91858983 C26.6240046,2.03094991 26.5327604,2.12253106 26.4521613,2.21411222 C26.3259401,2.34186409 26.2407788,2.43344524 26.1548571,2.54580532 C25.85147,2.93367845 25.7108018,3.13223256 25.6446498,3.22920084 L25.1755023,3.94414953 L24.7063548,3.22920084 C24.5504793,2.9890889 24.1976682,2.55504039 24.1976682,2.55504039 C24.1071843,2.42728853 24.0212627,2.33570737 23.9452258,2.25874841 C23.8190046,2.11560476 23.7285207,2.02864114 23.6380369,1.94244711 C23.5323456,1.82931744 23.4365392,1.74774095 23.3209631,1.65077267 C23.2297189,1.56919618 23.0282212,1.40604319 22.9825991,1.36987248 L22.8867926,1.29830065 C22.8464931,1.26751707 22.8061935,1.23750308 22.7712166,1.21672416 C22.5841659,1.08897229 22.4427373,0.992004011 22.3020691,0.910427519 C22.1910553,0.844242817 21.6717235,0.577964832 21.5356175,0.517167257 L21.1120922,0.35863181 C21.0064009,0.317073974 20.8946267,0.276285728 20.7995806,0.256276399 L20.7182212,0.236267071 C20.6482673,0.210101026 20.577553,0.194709235 20.4916313,0.173930317 L20.4209171,0.158538526 C20.3859401,0.143916325 20.3456406,0.138529198 20.319788,0.133142071 L20.2194194,0.118519869 C20.1540276,0.0977409515 20.0779908,0.0877362873 20.0072765,0.0769620336 L19.7000876,0.0361737873 C19.6445806,0.0261691231 19.5883134,0.0261691231 19.5487742,0.0207819963 C19.3617235,0.00539020522 19.2058479,-2.93098879e-14 19.049212,-2.93098879e-14 C18.9283134,-2.93098879e-14 18.7009631,0.0100077425 18.6005945,0.0153948694 L18.4941429,0.0200124067 C18.4135438,0.0253995336 18.2926452,0.0407913246 18.166424,0.0561831157 L18.0455253,0.076192444 C17.9246267,0.0915842351 17.8037281,0.111593563 17.6919539,0.137759608 C17.5459631,0.167773601 17.4197419,0.198557183 17.2737512,0.239345429 C17.1977143,0.253967631 17.1277604,0.280133675 17.0464009,0.310917257 C17.0167465,0.320921922 16.990894,0.326309049 16.9658018,0.336313713 C16.8950876,0.356323041 16.8449032,0.371714832 16.7992811,0.39249375 C16.6183134,0.453291325 16.5126221,0.494079571 16.4107327,0.544872481 C16.2799493,0.601052519 16.1841429,0.647227892 16.0883364,0.698020802 L15.9970922,0.744196175 C15.9727604,0.75420084 15.9522304,0.764205504 15.9423456,0.774210168 C15.7902719,0.851169123 15.7051106,0.901962034 15.6245115,0.952754944 C15.5081751,1.02432677 15.3317696,1.14207397 15.2306406,1.2136458 C15.1401567,1.27444338 15.054235,1.34601521 14.953106,1.41758703 L14.3326452,1.90242845 L14.3881521,1.8916542 L15.1044194,1.75928479 Z" id="Path"></path>
        <path d="M2.78486544,19.921629 C2.83048756,20.1971421 2.90044147,20.4626505 3.00157051,20.7235413 L3.10193917,20.9582661 C3.30875945,21.412324 3.62583318,21.8417549 4.00905899,22.2042316 L4.32689309,22.5005236 L4.32993456,16.7270628 C4.32993456,16.4615544 4.35046452,16.2014331 4.38011889,15.9405423 C4.45615576,15.4456962 4.56792995,15.0370441 4.73369032,14.6391663 C4.83025714,14.3890497 4.95115576,14.1289285 5.09258433,13.8888165 L5.33514194,13.510948 L5.36555668,13.4647727 C5.56705438,13.1692503 5.80961198,12.8883501 6.08182396,12.633616 L6.1221235,12.5974452 C6.16774562,12.5620441 6.18751521,12.5366477 6.20804516,12.5212559 C6.30917419,12.4296747 6.3745659,12.3781122 6.44528018,12.3273193 C6.57074101,12.2257335 6.69772258,12.1233781 6.84371336,12.0264098 C7.74169355,11.4238212 8.7910023,11.1082895 9.8806106,11.109059 L10.9899885,11.1098286 L10.9907488,9.99161502 C10.9907488,9.47599002 11.0561406,8.96575215 11.1930069,8.48552826 C11.2538364,8.27619991 11.3192281,8.09765513 11.3899424,7.90371856 L11.4203571,7.83291632 C11.8446429,6.79092285 12.5913249,5.89819897 13.5296198,5.28098046 C13.8322465,5.08242635 14.1599654,4.90849911 14.5036521,4.77074258 C14.91197,4.60297206 15.3354954,4.49061199 15.7643433,4.42981441 C15.9916935,4.3936437 16.2585829,4.37363438 16.5460023,4.37363438 L22.2510484,4.37671273 L21.9529839,4.0550243 C21.590288,3.66176404 21.1720853,3.35008027 20.7234677,3.13536479 C20.6269009,3.08457188 20.5721544,3.06379296 20.5212097,3.04301404 C20.2185829,2.92603643 19.9767857,2.85908214 19.7190207,2.81829389 L19.3867396,2.77750564 C19.2711636,2.76211385 19.164712,2.75672673 19.0491359,2.75672673 L16.547523,2.75518755 C15.4221774,2.75518755 14.3127995,3.02454389 13.3136751,3.54016889 C13.1927765,3.60096646 13.0711175,3.66253363 12.9555415,3.73410546 C11.0432143,4.86155415 9.73614055,6.85171273 9.44720046,9.06195084 L9.39169355,9.49599935 L8.96284562,9.55140979 C6.77908203,9.84154506 4.81124793,11.1629303 3.70567189,13.0869042 C3.06011889,14.1989611 2.73696221,15.4241477 2.73620184,16.7262932 L2.73468111,19.2936439 C2.72935853,19.3959993 2.73468111,19.4975852 2.7445659,19.5945535 L2.78486544,19.921629 Z" id="Path"></path>
        <path d="M31.3043779,2.76252174 C31.1880415,2.76252174 31.0823502,2.76790886 30.9713364,2.78253106 L30.6785945,2.81331465 C30.3812903,2.86410756 30.1288479,2.93029226 29.8771659,3.03264767 C29.7760369,3.06804879 29.72053,3.09344524 29.6802304,3.11422416 C29.1958756,3.34356185 28.7670276,3.65986315 28.3982488,4.05774095 L28.1009447,4.37942938 L33.8052304,4.38173815 C34.0979724,4.38173815 34.3602995,4.40251707 34.6173041,4.44330532 C34.9244931,4.47947603 35.252212,4.56105252 35.6004608,4.68418685 C35.6460829,4.69419151 35.7069124,4.71497043 35.7920737,4.75575868 L35.8475806,4.775768 C35.8878802,4.79115979 35.9236175,4.80655159 35.9639171,4.8273305 C36.1045853,4.88351054 36.2460138,4.94969524 36.372235,5.01664953 L36.4931336,5.0928389 C36.5889401,5.13901427 36.6748618,5.19519431 36.780553,5.26676614 C36.8109677,5.28138834 36.8413825,5.30216726 36.8763594,5.32756371 C36.8809217,5.33295084 36.8862442,5.33833797 36.896129,5.3429555 C36.9767281,5.39374841 37.052765,5.45608517 37.1485714,5.52688741 C37.1835484,5.55228386 37.2192857,5.57844991 37.2489401,5.59845924 L37.3751613,5.70620177 C37.426106,5.74699002 37.4816129,5.7923958 37.541682,5.84857584 C37.5819816,5.87935942 37.6222811,5.92014767 37.6724654,5.98171483 C37.8899309,6.19104319 38.0967512,6.43115513 38.2883641,6.6912764 C38.3689631,6.8090236 38.4335945,6.89598722 38.5096313,7.01838274 C38.5446083,7.06917565 38.595553,7.15613927 38.6404147,7.24849002 L38.6860369,7.32467938 C38.7567512,7.45781838 38.8168203,7.58018312 38.8723272,7.71255252 C38.8974194,7.75872789 38.9331567,7.84030438 38.9628111,7.927268 L38.9985484,8.0088445 C39.1042396,8.33053293 39.1749539,8.57064487 39.2297005,8.80536968 L39.3102995,9.2902111 C39.3255069,9.39256651 39.3308295,9.50492659 39.3407143,9.63806558 C39.3559217,9.72964674 39.3559217,9.86740326 39.3559217,10.0051598 L39.3551613,11.1133687 L40.439447,11.1133687 C40.5002765,11.1133687 40.5603456,11.1133687 40.6318203,11.124143 L40.7169816,11.1287605 C40.7975806,11.1287605 40.8781797,11.1341477 40.9542166,11.1441523 L41.5290553,11.2264984 C41.6043318,11.2418902 41.6803687,11.257282 41.7708525,11.2826785 C41.8415668,11.2980702 41.9069585,11.313462 41.9624654,11.3334714 L42.0126498,11.3488632 C42.0932488,11.3696421 42.1746083,11.3950385 42.2650922,11.4312092 C42.3456912,11.4566057 42.4567051,11.5020115 42.5730415,11.5481868 C42.6734101,11.5889751 42.7547696,11.6251458 42.8399309,11.665934 L42.9053226,11.6967176 C43.1379954,11.8190824 43.3493779,11.9468342 43.5660829,12.0999826 C43.6117051,12.1207615 43.681659,12.1769415 43.7576959,12.2331215 C43.8785945,12.314698 44.020023,12.4316757 44.191106,12.5955982 C44.2519355,12.6517783 44.327212,12.7187326 44.3926037,12.7949219 L44.428341,12.830323 C44.4990553,12.9018949 44.52947,12.9380656 44.5796544,12.9888585 C44.5948618,13.0042503 44.6351613,13.0558128 44.6754608,13.1066057 C44.7705069,13.2135786 44.836659,13.3005423 44.8967281,13.392893 C45.0183871,13.5406542 45.108871,13.6784107 45.1947926,13.8369462 C45.3506682,14.071671 45.4814516,14.3417969 45.612235,14.6742596 C45.8745622,15.3484201 46.0106682,16.0425898 46.0099078,16.7467643 L46.0076267,22.5202251 L46.3254608,22.2247027 C46.7185714,21.8568389 47.0265207,21.4335646 47.2493088,20.9587279 L47.3504378,20.7139984 C47.4355991,20.4792736 47.5063134,20.2137652 47.5519355,19.932865 L47.592235,19.6165637 C47.6074424,19.5195954 47.6074424,19.41724 47.6074424,19.2794835 L47.6089645,16.7475339 C47.6097235,15.4453883 47.2820046,14.2202018 46.637212,13.1127624 C45.5285945,11.1818622 43.5668433,9.85893778 41.3830645,9.56726334 L40.954977,9.5110833 L40.89947,9.07703479 C40.6128111,6.86597323 39.3072581,4.87504506 37.3964516,3.74528759 C37.31053,3.69449468 37.2253687,3.64831931 37.1341244,3.60214394 C36.1106682,3.05573535 34.965553,2.76406091 33.8059908,2.76329132 L31.3043779,2.76252174 Z" id="Path"></path>
        <path d="M7.17179724,24.6493715 C7.21970046,24.6493715 14.9488479,24.6524499 23.2330645,24.6562979 L23.2330645,26.298602 L7.20981567,26.281671 L6.9664977,26.298602 C6.8668894,26.3055283 6.7916129,26.3124546 6.70645161,26.3224592 L6.63117512,26.3332335 C6.5490553,26.3440077 6.49735023,26.3540124 6.449447,26.3578604 L6.36428571,26.3747913 C6.2578341,26.3886439 6.15214286,26.4024965 6.01831797,26.4440544 C5.91186636,26.4679117 5.82290323,26.4956169 5.73089862,26.5202438 L5.67615207,26.5379443 C5.54917051,26.5618016 5.44347926,26.5964331 5.29976959,26.6487652 C5.16214286,26.7010973 5.0252765,26.7457335 4.96064516,26.780365 C4.84050691,26.8319275 4.73785714,26.8773333 4.64205069,26.9288958 C4.5325576,26.9812279 4.44739631,27.0258641 4.35767281,27.0781962 L4.27935484,27.1166757 C4.12880184,27.192865 3.97140553,27.299838 3.76914747,27.4491383 C2.99889401,28.0340264 2.42025346,28.7305049 2.05451613,29.5208734 L2.02334101,29.5932148 C1.98912442,29.6694042 1.95870968,29.7463632 1.9412212,29.7871514 C1.80739631,30.144241 1.71539171,30.4905563 1.65380184,30.8892036 L1.61958525,31.2116617 C1.5990553,31.3571141 1.5990553,31.5164191 1.5990553,31.6687979 L1.5990553,34.1907428 C1.59601382,34.634796 1.64315668,35.1057848 1.73896313,35.6637372 L1.86974654,36.3979257 L1.15347926,35.4621048 C1.09264977,35.3897633 1.0409447,35.3027997 0.976313364,35.1919788 C0.880506912,35.0326738 0.811313364,34.901074 0.742880184,34.7764005 L0.664562212,34.6140171 C0.623502304,34.5339798 0.582442396,34.4508641 0.537580645,34.3400432 C0.496520737,34.2530796 0.462304147,34.1568809 0.428087558,34.059143 L0.377142857,33.9206169 C0.35281106,33.8652064 0.332281106,33.7997913 0.315552995,33.7266803 L0.291221198,33.650491 C0.280576037,33.6120115 0.26764977,33.5673753 0.239516129,33.4773333 C0.202258065,33.3318809 0.165,33.2002811 0.140668203,33.0686813 C0.123179724,32.9955702 0.109493088,32.9193809 0.0965668203,32.8324173 L0.0486635945,32.5176551 C0.0448617512,32.4660926 0.0342165899,32.3929816 0.0311751152,32.3267969 L0.0136866359,32.129782 C6.57252031e-14,31.9912559 6.57252031e-14,31.8527298 6.57252031e-14,31.7103557 C6.57252031e-14,31.3671188 0.0136866359,31.1039191 0.0517050691,30.8514938 L0.171082949,30.2034993 L0.332281106,29.6316943 C0.561912442,28.9421421 0.883548387,28.3218529 1.32152074,27.7223426 C1.34889401,27.6877111 1.38006912,27.6469229 1.4583871,27.549185 C1.56179724,27.4175852 1.67737327,27.279059 1.84237327,27.0951271 C1.85910138,27.0712699 1.8902765,27.0397167 1.96859447,26.9635273 C2.15032258,26.7695908 2.33129032,26.6002811 2.54039171,26.4332801 C2.72135945,26.2747447 2.93730415,26.1046654 3.19050691,25.9315077 L3.88548387,25.452823 L3.18062212,24.9818342 C2.95479263,24.8294555 2.73580645,24.6663025 2.51986175,24.4762139 C2.2735023,24.2684247 2.04767281,24.0537092 1.83857143,23.8174452 L1.7906682,23.772809 C1.77013825,23.7520301 1.74960829,23.7281729 1.72907834,23.7004676 L1.64695853,23.6096561 C1.59221198,23.5473193 1.53746544,23.4919089 1.46218894,23.3780096 C1.42417051,23.3333734 1.38006912,23.2702671 1.33520737,23.204852 L1.30099078,23.1594462 C0.876705069,22.5876411 0.555069124,21.9642736 0.322396313,21.2608688 L0.26764977,21.0907895 C0.247119816,21.022296 0.236474654,20.9699639 0.222788018,20.9253277 L0.181728111,20.7375479 C0.161198157,20.6613585 0.140668203,20.5751645 0.120138249,20.4674219 L0.0965668203,20.3119648 C0.079078341,20.2457801 0.0653917051,20.1595861 0.0555069124,20.0764704 C0.0212903226,19.8263538 0.00380184332,19.5500712 0.00760368664,19.2583967 C0.00760368664,19.1375712 0.00760368664,19.0336766 0.0106451613,18.9151598 L0.0311751152,18.7319975 C0.0342165899,18.6104023 0.0418202765,18.5103557 0.0623502304,18.354129 L0.0760368664,18.264087 C0.0965668203,18.1363352 0.117096774,18.0078137 0.151313364,17.8346561 C0.181728111,17.7030563 0.202258065,17.5953137 0.253202765,17.4360087 C0.26764977,17.3705936 0.277534562,17.3144135 0.304907834,17.262851 L0.336082949,17.1520301 C0.345967742,17.1104723 0.363456221,17.0550618 0.400714286,16.9688678 L0.42124424,16.9203837 C0.455460829,16.8087932 0.500322581,16.691046 0.548225806,16.584073 L0.585483871,16.5048053 C0.633387097,16.4001411 0.660760369,16.3308781 0.701820276,16.2585367 L0.787741935,16.0776831 C0.835645161,15.9914891 0.880506912,15.9152997 0.910921659,15.8560413 L0.999884793,15.7075105 C1.07211982,15.5928417 1.1162212,15.5235786 1.16792627,15.4581635 L1.41428571,15.1080003 L1.87278802,14.5431215 L1.74580645,15.2673053 C1.65,15.8252577 1.60589862,16.2893202 1.60589862,16.7287559 L1.60589862,19.2583967 C1.60589862,19.4177018 1.60589862,19.5770068 1.6233871,19.7193809 L1.6743318,20.1211066 C1.72907834,20.4643436 1.82108295,20.8006542 1.95186636,21.1431215 L2.07124424,21.4340264 C2.44458525,22.2382475 3.03995392,22.951657 3.79956221,23.4988352 C3.9333871,23.5896467 4.0740553,23.686615 4.21396313,23.772809 C4.2656682,23.8035926 4.30976959,23.8351458 4.36147465,23.8559247 C4.4671659,23.9182615 4.55308756,23.9628977 4.62836406,23.9944508 C4.71428571,24.0398566 4.799447,24.0744882 4.89221198,24.116046 C4.99790323,24.1683781 5.11119816,24.2130143 5.22373272,24.2545721 L5.61760369,24.382324 C5.71417051,24.4138771 5.80921659,24.438504 5.90882488,24.4585133 L5.98105991,24.4731355 C6.12096774,24.5146934 6.24034562,24.5354723 6.35364055,24.5524033 C6.6,24.597809 6.85320276,24.6285926 7.17179724,24.6493715 Z" id="Path"></path>
        <path d="M50.3201336,31.4645488 C50.326977,31.5507428 50.326977,31.6207755 50.326977,31.6931169 C50.326977,31.8347214 50.3201336,31.9701691 50.3094885,32.1333221 L50.2996037,32.3103277 C50.2889585,32.403448 50.2859171,32.4796374 50.2684286,32.5627531 L50.2448571,32.7397587 C50.2311705,32.8575059 50.2106406,32.9783314 50.1832673,33.0930003 C50.1596959,33.2246001 50.1216774,33.3561999 50.077576,33.5262792 C50.0562857,33.5878464 50.0464009,33.6371001 50.025871,33.6855842 L50.0015392,33.764852 C49.9916544,33.8202624 49.9711244,33.8895255 49.9467926,33.9557102 L49.912576,34.0419042 C49.8646728,34.1742736 49.8236129,34.2773986 49.7688664,34.3989937 C49.7346498,34.4790311 49.6935899,34.569073 49.65253,34.6552671 L49.5772535,34.8007195 C49.5126221,34.9261626 49.4403871,35.0500665 49.3749954,35.1647354 C49.3004793,35.2932568 49.2282442,35.4040777 49.1491659,35.5110507 L48.4579908,36.4183967 L48.584212,35.6842083 C48.6807788,35.1262559 48.7248802,34.6583454 48.7248802,34.2150618 L48.7279217,31.6931169 C48.7279217,31.5407382 48.7279217,31.3814331 48.7013088,31.1805702 L48.6632903,30.8550339 C48.6115853,30.5187232 48.5195806,30.1654816 48.4002028,29.8638025 C48.3690276,29.7737605 48.3386129,29.6906449 48.3036359,29.6106076 L48.2595346,29.5136393 C47.8861935,28.7071094 47.2976682,27.9960087 46.554788,27.4665311 C46.404235,27.3587885 46.253682,27.2548939 46.1267005,27.1825525 C46.0856406,27.1540777 46.0415392,27.1263725 45.9898341,27.1055936 C45.8841429,27.0401785 45.7982212,26.9986206 45.7024147,26.9601411 C45.5967235,26.8978044 45.5009171,26.8562465 45.4590968,26.8423939 C45.3359171,26.7839051 45.2226221,26.7384993 45.1070461,26.6969415 L44.925318,26.6315264 C44.8500415,26.6068995 44.774765,26.5791943 44.696447,26.5584154 C44.5588203,26.5207055 44.4318387,26.4891523 44.3603641,26.4722214 C44.250871,26.4475945 44.1687512,26.4268156 44.0828295,26.412963 L43.8813318,26.3752531 C43.8159401,26.3644788 43.7611935,26.3614005 43.6965622,26.3506262 L43.6037972,26.339852 C43.5391659,26.3267689 43.3916544,26.319073 43.3916544,26.319073 L27.1015161,26.3021421 L27.1015161,24.6567596 C35.4093041,24.6567596 43.162023,24.659838 43.162023,24.659838 C43.4806175,24.6459854 43.7307788,24.6152018 43.949765,24.5728743 C44.0866313,24.5597913 44.2060092,24.5382428 44.3124608,24.5043809 L44.4219539,24.4759061 C44.5246037,24.4558967 44.6204101,24.4312699 44.6858018,24.410491 L45.1207327,24.2681169 C45.226424,24.2334854 45.3359171,24.1857708 45.4317235,24.140365 C45.5313318,24.0949592 45.6134516,24.0603277 45.6545115,24.0403184 C45.7708479,23.9879863 45.8598111,23.9356542 45.952576,23.8871701 C46.030894,23.8486906 46.0719539,23.8248333 46.0787972,23.817907 C46.253682,23.7178604 46.404235,23.6170441 46.5509862,23.5100712 C47.2976682,22.9690497 47.8930369,22.2487139 48.2762627,21.4275618 L48.3925991,21.1397354 C48.5157788,20.8249732 48.6055023,20.4817363 48.6670922,20.131573 L48.7111935,19.7467783 C48.7317235,19.5982475 48.7317235,19.4420208 48.7317235,19.2827158 L48.7355253,16.7499965 C48.7355253,16.3105609 48.6906636,15.8464984 48.5948571,15.2916243 L48.4678756,14.5643622 L49.0054562,15.2392923 L49.1636129,15.4678604 C49.238129,15.5725245 49.3103641,15.6833454 49.3749954,15.7903184 C49.4403871,15.9049872 49.4951336,15.9950292 49.5460783,16.0989238 L49.6426452,16.285934 C49.6837051,16.3590451 49.7179217,16.4383128 49.7521382,16.5214285 L49.782553,16.5945395 C49.8372995,16.715365 49.8852028,16.8331122 49.9437512,17.0062699 C49.9642811,17.058602 49.9878525,17.1240171 50.0083825,17.1902018 L50.0395576,17.2971747 C50.0562857,17.3287279 50.0669309,17.3733641 50.0905023,17.4603277 L50.1110323,17.5365171 C50.1353641,17.6234807 50.155894,17.7273753 50.1863088,17.8551271 C50.2106406,17.969796 50.2212857,18.0498333 50.2380138,18.1190964 L50.2821152,18.4377064 C50.2958018,18.5346747 50.3034055,18.6416477 50.306447,18.7455423 L50.3201336,18.9263958 C50.326977,19.0433734 50.3307788,19.1618902 50.3307788,19.2827158 C50.3307788,19.4350945 50.326977,19.6013258 50.3094885,19.7852577 L50.2555023,20.2393156 C50.2517005,20.3047307 50.234212,20.3809201 50.213682,20.491741 L50.2037972,20.544073 C50.1931521,20.5994835 50.1832673,20.6618202 50.1596959,20.7518622 C50.1490507,20.814199 50.1285207,20.8803837 50.1079908,20.9457988 L50.083659,21.0427671 C50.0600876,21.1466617 50.0220691,21.2574826 49.9916544,21.3513725 C49.7893963,21.9431868 49.5088203,22.4980609 49.1560092,23.0144555 C49.1050645,23.0975712 49.0640046,23.1568296 49.0199032,23.2083921 L48.9643963,23.2807335 C48.8655484,23.4131029 48.7796267,23.5239238 48.6594885,23.658602 C48.584212,23.7455656 48.4990507,23.834838 48.4344194,23.907949 L48.3522995,23.994143 C48.2869078,24.0603277 48.2146728,24.1334387 48.0983364,24.2442596 C48.0641198,24.2788911 48.0200184,24.320449 47.9751567,24.3620068 L47.8010323,24.5043809 C47.5919309,24.6844648 47.3729447,24.8506962 47.1402719,25.0100012 L46.4490968,25.4740637 L47.1296267,25.9489005 C47.3934747,26.1397587 47.6056175,26.3021421 47.8071152,26.4683734 L47.9067235,26.5514891 C47.9781982,26.6176738 48.054235,26.6830889 48.1431982,26.7769788 C48.2146728,26.8393156 48.2869078,26.9047307 48.355341,26.9809201 L48.4579908,27.0994368 C48.526424,27.164852 48.5918157,27.2410413 48.6632903,27.324157 C48.6876221,27.3518622 48.7043502,27.3726411 48.7149954,27.3826458 L48.7454101,27.4211253 C48.8039585,27.4903883 48.8655484,27.5665777 48.9202949,27.6427671 L49.0259862,27.7782148 C49.0708479,27.826699 49.1012627,27.8859574 49.1423226,27.9405982 C49.5088203,28.4816197 49.7863548,29.0395721 49.9878525,29.6313865 C50.025871,29.7491337 50.0532442,29.8391757 50.0806175,29.9369135 L50.2106406,30.4733174 C50.2311705,30.5702857 50.2448571,30.6610973 50.2517005,30.7542176 L50.3201336,31.4645488 Z" id="Path"></path>
        <path d="M47.5463848,31.0232661 C47.5060853,30.7577577 47.435371,30.4968669 47.3403249,30.2467503 C47.3144724,30.1705609 47.2947028,30.1243855 47.2696106,30.0735926 L47.2293111,29.9712372 C47.0171682,29.527184 46.7046567,29.0985227 46.3221912,28.7406635 L46.0043571,28.4443715 L46.0013157,34.2132148 C46.0013157,34.3301924 46.0013157,34.4533268 45.9914309,34.5910833 C45.9914309,34.6210973 45.9807857,34.7080609 45.9709009,34.7896374 C45.9556935,34.9527904 45.9306014,35.1267176 45.8948641,35.2952577 C45.8347949,35.6315684 45.7283433,35.9740357 45.5967995,36.3057288 C45.5815922,36.3619089 45.5412926,36.4488725 45.5009931,36.5404536 L45.4660161,36.6174126 C45.3945415,36.7751785 45.3291498,36.9075479 45.2386659,37.0560786 C45.2234585,37.0814751 45.2029286,37.1122587 45.183159,37.1476598 L45.0166382,37.4131682 C44.9710161,37.4793529 44.9208318,37.5463072 44.8698871,37.6124919 L44.789288,37.7140777 C44.7185737,37.811046 44.6432972,37.9026271 44.5421682,38.0049826 C44.2539885,38.3420628 43.8000484,38.6991523 43.5734585,38.8623053 L43.5377212,38.8930889 C43.533159,38.8977064 43.512629,38.9130982 43.4822143,38.9338771 L43.2252097,39.0816383 C43.1697028,39.1170395 43.1339654,39.1378184 43.1088733,39.1532102 L42.7005553,39.3571514 C42.6655783,39.3725432 42.629841,39.387935 42.5796567,39.4079443 C42.4230207,39.474129 42.2618226,39.530309 42.0747719,39.5864891 C41.6664539,39.7242456 41.1973065,39.8104396 40.7380438,39.8358361 L39.3465691,39.8404536 L39.3404862,40.974059 C39.3404862,41.2234061 39.3252788,41.4689051 39.2903018,41.7090171 C39.2697719,41.9083408 39.2294724,42.1376785 39.1686429,42.3623986 L39.0827212,42.6425292 C39.0621912,42.7040964 39.0416613,42.7656635 39.0173295,42.84724 C39.0066843,42.8726365 38.9869147,42.9234294 38.9565,42.9950012 C38.93597,43.0565684 38.9108779,43.1227531 38.8705783,43.1989424 C38.8500484,43.2605096 38.8196336,43.3266943 38.7899793,43.3982661 C38.7542419,43.4644508 38.7040576,43.5714238 38.6531129,43.6683921 C38.6082512,43.7553557 38.5519839,43.8477064 38.4972373,43.9339005 L38.3299562,44.1840171 C37.694288,45.0921327 36.8312696,45.7809154 35.8230207,46.1787932 C35.1767074,46.4443016 34.4855323,46.576671 33.7844724,46.5759014 L28.0801866,46.5735926 L28.3729286,46.8952811 C28.7257396,47.2831542 29.1439424,47.594838 29.6130899,47.814171 C29.6784816,47.8503417 29.7142189,47.8657335 29.7644032,47.8865124 L29.8655323,47.9273007 C30.1118917,48.0242689 30.3597719,48.0904536 30.6114539,48.1266243 L30.9444954,48.1727997 C31.0600714,48.1828044 31.166523,48.192809 31.2820991,48.1935786 L33.783712,48.1943482 C35.0451636,48.1943482 36.2914078,47.8534201 37.3756935,47.2054257 C39.2826982,46.0833641 40.5950945,44.0985926 40.8832742,41.8883314 L40.9395415,41.4542829 L41.3683894,41.3981029 C43.5521682,41.1079676 45.5192419,39.7819648 46.6255783,37.8533734 C47.2612465,36.7659434 47.5996106,35.5053557 47.600371,34.2139844 L47.6011376,31.6558687 C47.6011376,31.5589005 47.6018917,31.4565451 47.5866843,31.3595768 L47.5463848,31.0232661 Z" id="Path"></path>
        <path d="M25.9713041,15.9497004 L25.9644608,35.0362909 C25.902871,35.0362909 25.8412811,35.0401388 25.7758894,35.0401388 C25.7142995,35.0401388 25.6496682,35.0462955 25.5842765,35.0401388 C25.5120415,35.0462955 25.4443687,35.0462955 25.3721336,35.0462955 C25.1805207,35.0462955 24.9683779,35.0401388 24.7387465,35.0185903 C24.6771567,35.0155119 24.6155668,35.0085856 24.5509355,35.0047377 C24.4893456,34.994733 24.4239539,34.9878067 24.3585622,34.9770325 L24.3692074,15.9327694 C24.4345991,15.9219951 24.4992304,15.9219951 24.5615806,15.9219951 C24.6254516,15.9181472 24.6908433,15.9112209 24.7524332,15.9112209 C24.8482396,15.9081425 24.9440461,15.9081425 25.0398525,15.9081425 C25.2314654,15.9081425 25.4131935,15.9112209 25.5949217,15.9219951 C25.659553,15.9219951 25.7249447,15.9289215 25.7865346,15.9327694 C25.8511659,15.9389261 25.9089539,15.9427741 25.9713041,15.9497004 Z" id="Path"></path>
        <path d="M33.7846244,49.3325712 L31.2822512,49.3318016 C31.1370207,49.3318016 31.0001544,49.3264145 30.8442788,49.3056355 C30.7788871,49.3056355 30.7180576,49.2956309 30.6572281,49.2902438 L30.597159,49.2802391 C30.5614217,49.274852 30.5165599,49.2694648 30.461053,49.2594602 C30.1128041,49.2086673 29.7797627,49.1163165 29.4368364,48.9831775 L29.3509147,48.9431589 C29.2657535,48.9123753 29.1851544,48.8762046 29.0992327,48.8300292 C28.3228963,48.4621654 27.6317212,47.8695814 27.1078272,47.1192316 L27.0424355,47.0222633 C26.9663986,46.9045161 26.8911221,46.7921561 26.8150853,46.6543995 C26.7953157,46.6290031 26.7747857,46.5982195 26.7504539,46.5474266 C26.6941866,46.4504583 26.6394401,46.3427158 26.593818,46.2357428 C26.5383111,46.1133781 26.5025737,46.0364191 26.4675968,45.9394508 C26.4272972,45.8478697 26.3771129,45.7147307 26.3269286,45.5669695 C26.2911912,45.4746188 26.2562143,45.3676458 26.2257995,45.2652904 L26.1254309,44.8620255 C26.0950161,44.7342736 26.069924,44.6119089 26.0501544,44.484157 C26.0090945,44.2140311 25.9794401,43.938518 25.9642327,43.6884014 L25.9611912,39.1701411 C25.9011221,39.1755283 25.8402926,39.1755283 25.7749009,39.1755283 C25.7148318,39.1801458 25.6486797,39.1801458 25.583288,39.1801458 C25.4220899,39.1855329 25.2555691,39.1847633 25.0890484,39.1847633 C24.972712,39.1847633 24.8518134,39.1847633 24.7362373,39.1747587 C24.6708456,39.1801458 24.6100161,39.1801458 24.5446244,39.1747587 C24.4837949,39.1747587 24.4184032,39.1747587 24.3575737,39.1693715 L24.3507304,43.6360693 C24.335523,43.9277438 24.3051083,44.1978697 24.2594862,44.4987792 C24.2442788,44.6111393 24.2184263,44.733504 24.1933341,44.8412465 C24.1575968,44.9890077 24.1226198,45.1213771 24.0769977,45.2745255 C24.0671129,45.3460973 24.0268134,45.4638445 23.9811912,45.5915964 C23.9355691,45.7139611 23.8853848,45.8517176 23.8245553,45.9994788 C23.8093479,46.0348799 23.7789332,46.1072214 23.7439562,46.1834107 C23.6831267,46.3165497 23.6329424,46.4181355 23.5827581,46.5097167 L23.4763065,46.6882615 C23.4109147,46.8006215 23.3196705,46.9437652 23.2238641,47.0869089 C22.6794401,47.8672727 21.9875046,48.459087 21.1602235,48.8515777 C21.084947,48.8977531 20.9587258,48.948546 20.8378272,48.9893342 C20.5253157,49.111699 20.1968364,49.2040497 19.8485876,49.254073 C19.7885184,49.2648473 19.7375737,49.274852 19.6622972,49.2802391 C19.5862604,49.2902438 19.5261912,49.3002484 19.455477,49.3056355 C19.3087258,49.3202577 19.1733802,49.3256449 19.026629,49.3256449 L16.5250161,49.3241057 C16.0908456,49.3241057 15.6376659,49.2779303 15.0879194,49.180962 L14.3860991,49.0532102 L15.0019977,49.5734527 C15.0673894,49.6196281 15.1274585,49.6658035 15.1829654,49.7012046 L15.3799009,49.8451178 C15.4452926,49.8851365 15.5106843,49.9259247 15.5813986,49.9721001 L15.8840253,50.1460273 C15.9243249,50.1714238 15.9547396,50.1868156 15.9950392,50.2075945 L16.0604309,50.2376085 C16.1516751,50.289171 16.242159,50.3299592 16.3531728,50.3761346 C16.5044862,50.4423193 16.6056152,50.4931122 16.7113065,50.5238958 L16.8215599,50.5654536 C16.8626198,50.5808454 16.9082419,50.5954676 16.9378963,50.6008548 L17.0542327,50.6362559 C17.1196244,50.6624219 17.1804539,50.6824313 17.2458456,50.7032102 L17.6845783,50.8101831 C17.7803848,50.830962 17.9012834,50.851741 18.0122972,50.8617456 L18.1286336,50.8825245 C18.2540945,50.8979163 18.3651083,50.9125385 18.4609147,50.9133081 L18.4662373,50.9133081 L18.6981498,50.9333174 L19.0258687,50.934087 C19.3186106,50.934087 19.5809378,50.9186952 19.822735,50.8879117 L19.9436336,50.8725199 C19.979371,50.8679023 20.0143479,50.8625152 20.0348779,50.8571281 L20.231053,50.821727 C20.2918825,50.8117223 20.3625968,50.7963305 20.4333111,50.7809387 L20.8066521,50.6793529 C20.9427581,50.6385646 21.0286797,50.6131682 21.099394,50.5823846 L21.2552696,50.5315917 C21.3465138,50.495421 21.4423203,50.4546327 21.5328041,50.4138445 C21.91603,50.246074 22.2848088,50.0421327 22.6178502,49.8174126 C22.7334263,49.7412232 22.8193479,49.6796561 22.9356843,49.5980796 L23.0664677,49.4857195 C23.1425046,49.4295395 23.2185415,49.3687419 23.3295553,49.2717736 C23.4200392,49.1901971 23.510523,49.1132382 23.5911221,49.0316617 C23.7127811,48.9193016 23.803265,48.8277204 23.8793018,48.7361393 L24.4039562,48.1135413 C24.5043249,47.9804023 24.6008917,47.8480329 24.6913756,47.7102764 L25.1559608,47.0314984 L25.6197857,47.7102764 C25.7604539,47.9149872 25.9269747,48.1597167 26.1185876,48.389824 C26.214394,48.5068016 26.3048779,48.609157 26.3862373,48.6915031 C26.5116982,48.8292596 26.6029424,48.9208408 26.6934263,49.0078044 C26.7991175,49.1147773 26.894924,49.1963538 27.0105,49.2994788 C27.1070668,49.39106 27.1975507,49.4618622 27.2834724,49.5234294 L27.3990484,49.6157801 C27.4994171,49.6919695 27.5807765,49.7489191 27.6514908,49.7889378 L27.7069977,49.8251085 C27.8020438,49.9012979 27.9031728,49.962865 28.0240714,50.0344368 C28.14497,50.1113958 28.2407765,50.1621887 28.3320207,50.2083641 L28.4126198,50.2491523 C28.5236336,50.3053324 28.6544171,50.3715171 28.7654309,50.4069182 L28.8612373,50.4538632 C28.9418364,50.4946514 29.0178733,50.5246654 29.0984724,50.5508314 L29.2954078,50.6170161 C29.3250622,50.6324079 29.355477,50.6424126 29.4109839,50.6578044 L29.5067903,50.688588 C29.5569747,50.7039798 29.6178041,50.7193715 29.6831959,50.7347633 L29.844394,50.7801691 C29.9204309,50.7963305 29.9964677,50.8109527 30.0664217,50.821727 L30.1424585,50.8371188 C30.2732419,50.8679023 30.3241866,50.8725199 30.3789332,50.877907 L30.489947,50.8932988 C30.727182,50.9240824 31.0047166,50.9394742 31.3172281,50.9394742 L31.3476429,50.9394742 C31.4388871,50.9394742 31.5240484,50.9394742 31.6145323,50.9348566 L31.8266751,50.9194648 C31.9376889,50.9194648 32.0487028,50.904073 32.1650392,50.8886813 L32.2859378,50.8686719 C32.4068364,50.8586673 32.527735,50.8386579 32.6486336,50.8078743 L33.057712,50.7109061 C33.1284263,50.6901271 33.193818,50.6701178 33.2440023,50.6493389 L33.3557765,50.6139378 C33.4006382,50.6031635 33.4363756,50.5885413 33.4964447,50.5677624 L33.5770438,50.5369788 C33.7085876,50.4969602 33.8196014,50.4453977 33.9154078,50.3992223 C34.0712834,50.3384247 34.1572051,50.2976365 34.2431267,50.2514611 L34.3290484,50.2060553 C34.3541406,50.1960507 34.3792327,50.1806589 34.3997627,50.1698846 L34.7426889,49.9713305 C34.8027581,49.9359294 34.8689101,49.8943715 34.9343018,49.8489658 L35.1205922,49.7165964 C35.1814217,49.6758081 35.2422512,49.6296327 35.3175276,49.5734527 L36.0391175,49.0432055 L35.2323664,49.1855796 C34.6772972,49.2871654 34.2180346,49.3325712 33.7846244,49.3325712 Z" id="Path"></path>
        <path d="M32.5267465,20.5001295 L34.150894,20.5008991 L33.9668848,15.0437396 L33.8923687,12.8227041 L32.4849263,12.8219345 L31.4356175,13.7816127 C30.0182903,13.2544438 28.2177373,12.8611836 25.9738894,12.7988468 C25.9130599,12.7934597 25.8522304,12.7934597 25.7868387,12.7934597 C25.7267696,12.7934597 25.6606175,12.7880726 25.5952258,12.7934597 C25.5146267,12.7880726 25.4340276,12.7880726 25.3526682,12.7880726 C25.1511705,12.7880726 24.9496728,12.7934597 24.7527373,12.8034644 C24.6873456,12.8034644 24.6219539,12.8034644 24.5611244,12.8080819 C24.4957327,12.813469 24.430341,12.813469 24.3695115,12.8234737 C18.2561475,13.2036509 13.3920691,17.187816 12.4005484,23.512303 L16.8342581,23.5146118 C17.1391659,18.940941 19.2643963,15.1999662 24.3687512,14.9113701 C24.4295806,14.9013655 24.4949724,14.8959784 24.5603641,14.9013655 C24.6211935,14.8905912 24.6865853,14.8905912 24.751977,14.8959784 C24.8477834,14.8859737 24.9435899,14.8859737 25.0393963,14.8859737 C25.226447,14.8859737 25.4127373,14.8913608 25.5944654,14.9021351 C25.6598571,14.9021351 25.7206866,14.9067526 25.7860783,14.9121397 C25.8461475,14.9121397 25.9122995,14.9175269 25.9723687,14.9221444 C29.1697189,15.1738002 31.267576,16.7883991 32.5267465,20.5001295 Z" id="Path"></path>
        <path d="M16.9689954,27.4195091 L12.2980507,27.4172004 C12.9116682,33.119859 17.1560461,37.8435996 24.3582581,38.1483571 C24.4183272,38.1537442 24.4844793,38.1537442 24.5445484,38.1537442 C24.6053779,38.1591313 24.6707696,38.1591313 24.7361613,38.1591313 C24.8524977,38.1637869 24.9688341,38.1637869 25.0897327,38.1637869 C25.2562535,38.1637869 25.4227742,38.1645185 25.5839724,38.1591313 C25.6493641,38.1591313 25.7101935,38.1591313 25.7755853,38.1545138 C25.8356544,38.1545138 25.9018065,38.1545138 25.9618756,38.1491267 C29.4572903,38.0436929 31.682129,37.2794905 34.0027742,36.1728207 L34.6962304,30.0468879 L33.037106,30.0461183 C31.6585576,33.8586649 30.0077972,35.8796071 25.9633963,36.0512256 C25.9025668,36.0566127 25.8371751,36.0612302 25.7763456,36.0612302 C25.7109539,36.0612302 25.6501244,36.0666174 25.5847327,36.0612302 C25.5140184,36.0666174 25.4440645,36.0666174 25.3733502,36.0658478 C25.1558848,36.0658478 24.9445023,36.0612302 24.737682,36.0450688 C24.67153,36.0404513 24.6061382,36.0350642 24.5453088,36.0296771 C24.4799171,36.0250595 24.4198479,36.0196724 24.3590184,36.0142853 C19.7899631,35.5432965 17.5719677,31.8608104 16.9689954,27.4195091 Z" id="Path"></path>
        <path d="M37.6444839,7.36508284 C37.5707281,7.25195317 37.496212,7.15652407 37.4209355,7.06186455 C37.3654286,6.98798396 37.3350138,6.94642612 37.3000369,6.90486059 C37.2749447,6.88254249 37.2262811,6.82559286 37.1707742,6.76017775 C37.1487235,6.73555089 37.0232627,6.6170341 36.9996912,6.59317682 L36.9966498,13.5133338 L43.8300829,13.5164121 C43.4453364,13.128539 42.8887465,12.7075735 42.3853825,12.4959364 L42.2766498,12.4513002 C42.1876866,12.4189774 42.0416959,12.3651062 41.8820184,12.3181612 C41.5246452,12.2158058 41.1520645,12.1650129 40.7536313,12.1650129 L38.3371797,12.1642433 L38.3387005,9.7100222 C38.3387005,8.86886082 38.098424,8.05848302 37.6444839,7.36508284 Z" id="Path"></path>
    </g>
</svg>