<?xml version="1.0" encoding="UTF-8"?>
<svg width="199px" height="73px" viewBox="0 0 199 73" version="1.1" xmlns="http://www.w3.org/2000/svg" xmlns:xlink="http://www.w3.org/1999/xlink">
    <title>E50D038B-6C26-4A05-AA00-757B6AEC45A3</title>
    <g id="5.0---Interface" stroke="none" stroke-width="1" fill="none" fill-rule="evenodd">
        <g id="Drop-Down-Menu-3.1.1" transform="translate(-150.000000, -30.000000)" fill="#5B6670">
            <g id="Group-2" transform="translate(150.000000, 30.000000)">
                <path d="M52.75,46.8772359 C52.75,49.7528767 50.38805,52.085084 47.4748057,52.085084 C44.5615613,52.085084 42.2002591,49.7528767 42.2002591,46.8772359 C42.2002591,44.0002746 44.5615613,41.6680672 47.4748057,41.6680672 C50.38805,41.6680672 52.75,44.0002746 52.75,46.8772359 M47.4748057,23.4376275 C48.9311039,23.4376275 50.1127267,24.6043915 50.1127267,26.042542 C50.1127267,27.4806925 48.9311039,28.6467962 47.4748057,28.6467962 C46.0185074,28.6467962 44.8375324,27.4806925 44.8375324,26.042542 C44.8375324,24.6043915 46.0185074,23.4376275 47.4748057,23.4376275 M42.2002591,36.4595588 C42.2002591,39.3358599 39.8383092,41.6680672 36.9250648,41.6680672 C34.0124682,41.6680672 31.6511661,39.3358599 31.6511661,36.4595588 C31.6511661,33.5832578 34.0124682,31.2503901 36.9250648,31.2503901 C39.8383092,31.2503901 42.2002591,33.5832578 42.2002591,36.4595588 M40.8825942,15.6255252 C40.8825942,17.7820907 39.1095122,19.5312462 36.9250648,19.5312462 C34.7393217,19.5312462 32.968831,17.7820907 32.968831,15.6255252 C32.968831,13.4676391 34.7393217,11.7191439 36.9250648,11.7191439 C39.1095122,11.7191439 40.8825942,13.4676391 40.8825942,15.6255252 M0,26.042542 C0,23.166241 2.36194997,20.8340336 5.27519435,20.8340336 C8.18843872,20.8340336 10.5497409,23.166241 10.5497409,26.042542 C10.5497409,28.9195034 8.18843872,31.2503901 5.27519435,31.2503901 C2.36194997,31.2503901 0,28.9195034 0,26.042542 M5.27519435,49.4801695 C3.81889607,49.4801695 2.63792108,48.3147262 2.63792108,46.8772359 C2.63792108,45.4377648 3.81889607,44.2723214 5.27519435,44.2723214 C6.73214044,44.2723214 7.91246761,45.4377648 7.91246761,46.8772359 C7.91246761,48.3147262 6.73214044,49.4801695 5.27519435,49.4801695 M10.5497409,36.4595588 C10.5497409,33.5832578 12.9116908,31.2503901 15.8249352,31.2503901 C18.7381796,31.2503901 21.1001296,33.5832578 21.1001296,36.4595588 C21.1001296,39.3358599 18.7381796,41.6680672 15.8249352,41.6680672 C12.9116908,41.6680672 10.5497409,39.3358599 10.5497409,36.4595588 M11.8699971,57.2935924 C11.8699971,55.137027 13.6404878,53.3872111 15.8249352,53.3872111 C18.0106783,53.3872111 19.781169,55.137027 19.781169,57.2935924 C19.781169,59.4521388 18.0106783,61.1999737 15.8249352,61.1999737 C13.6404878,61.1999737 11.8699971,59.4521388 11.8699971,57.2935924 M31.6511661,57.2935924 C31.6511661,54.4179517 34.0124682,52.085084 36.9250648,52.085084 C39.8383092,52.085084 42.2002591,54.4179517 42.2002591,57.2935924 C42.2002591,60.1712141 39.8383092,62.5034215 36.9250648,62.5034215 C34.0124682,62.5034215 31.6511661,60.1712141 31.6511661,57.2935924 M31.6511661,67.7112696 C31.6511661,70.5869103 29.2892161,72.9191176 26.3759717,72.9191176 C23.4627274,72.9191176 21.1001296,70.5869103 21.1001296,67.7112696 C21.1001296,64.8343082 23.4627274,62.5034215 26.3759717,62.5034215 C29.2892161,62.5034215 31.6511661,64.8343082 31.6511661,67.7112696 M31.6511661,46.8772359 C31.6511661,49.7528767 29.2892161,52.085084 26.3759717,52.085084 C23.4627274,52.085084 21.1001296,49.7528767 21.1001296,46.8772359 C21.1001296,44.0002746 23.4627274,41.6680672 26.3759717,41.6680672 C29.2892161,41.6680672 31.6511661,44.0002746 31.6511661,46.8772359 M31.6511661,26.042542 C31.6511661,28.9195034 29.2892161,31.2503901 26.3759717,31.2503901 C23.4627274,31.2503901 21.1001296,28.9195034 21.1001296,26.042542 C21.1001296,23.166241 23.4627274,20.8340336 26.3759717,20.8340336 C29.2892161,20.8340336 31.6511661,23.166241 31.6511661,26.042542 M31.6511661,5.2078481 C31.6511661,8.08414914 29.2892161,10.4170168 26.3759717,10.4170168 C23.4627274,10.4170168 21.1001296,8.08414914 21.1001296,5.2078481 C21.1001296,2.33154706 23.4627274,-7.10542736e-15 26.3759717,-7.10542736e-15 C29.2892161,-7.10542736e-15 31.6511661,2.33154706 31.6511661,5.2078481 M21.1001296,15.6255252 C21.1001296,18.5018263 18.7381796,20.8340336 15.8249352,20.8340336 C12.9116908,20.8340336 10.5497409,18.5018263 10.5497409,15.6255252 C10.5497409,12.7479036 12.9116908,10.4176771 15.8249352,10.4176771 C18.7381796,10.4176771 21.1001296,12.7479036 21.1001296,15.6255252" id="Fill-17"></path>
                <path d="M66.4543394,30.3671702 C69.7200201,32.3619032 72.3774423,33.6037854 75.3019048,33.6037854 C77.8443513,33.6037854 79.1739896,32.8141653 79.1739896,31.3075444 C79.1739896,29.7650734 77.9973431,29.2760421 75.7191553,28.4855028 C69.1887212,26.2269503 66,24.0814633 66,19.4136043 C66,15.1235496 69.8349958,12 75.7951876,12 C78.6417634,12 81.6413309,12.6774738 84.6019551,14.1077985 L84.6019551,19.3768351 C81.2991855,17.7203794 78.5277149,16.8176938 76.1364058,16.8176938 C73.6310483,16.8176938 72.3403534,17.5705446 72.3403534,18.8878037 C72.3403534,19.9412434 73.4789837,20.8816175 75.8322766,21.7475338 C78.1484805,22.6134502 80.3497088,23.3286125 82.2866784,24.4951176 C84.5648662,25.8877538 85.7044237,28.0709293 85.7044237,30.9324978 C85.7044237,35.5985183 81.9834764,38.5722331 75.4530422,38.5722331 C72.2263049,38.5722331 69.2267373,37.7440053 66.4543394,36.0884689 L66.4543394,30.3671702 Z" id="Fill-4"></path>
                <polygon id="Fill-6" points="86.9134303 46.6650578 92.1142261 35.3346069 85.4326546 20.6949215 91.3557574 20.6949215 94.9246402 29.2005732 98.7206926 20.6949215 104.566836 20.6949215 92.7224847 46.6650578"></polygon>
                <path d="M105.879413,20.6945538 L111.384338,20.6945538 L111.384338,22.8768101 C113.168316,21.0705196 114.991237,20.3544381 117.382546,20.3544381 C121.180453,20.3544381 123.343665,22.6883676 123.343665,27.092407 L123.343665,38.1204307 L117.799797,38.1204307 L117.799797,27.8443386 C117.799797,25.4359513 117.079344,24.2694462 115.332456,24.2694462 C113.625437,24.2694462 112.332888,25.3991821 111.384338,27.01703 L111.384338,38.1204307 L105.879413,38.1204307 L105.879413,20.6945538 Z" id="Fill-8"></path>
                <path d="M137.613262,27.6946877 C137.424109,25.3984467 136.132486,24.0811875 134.310492,24.0811875 C132.450482,24.0811875 131.082828,25.3607582 130.780553,27.6946877 L137.613262,27.6946877 Z M134.72867,38.4974996 C128.57747,38.4974996 125.046604,34.9207687 125.046604,29.2003893 C125.046604,23.8559758 128.691519,20.3546219 134.271549,20.3546219 C139.739385,20.3546219 143.195147,24.0058105 143.195147,30.178452 L143.195147,30.3668945 L130.74161,30.3668945 L130.74161,30.4422715 C130.74161,33.2275438 132.792628,34.9207687 136.09447,34.9207687 C138.257682,34.9207687 140.498781,34.1688371 142.776042,32.5877585 L142.776042,36.2003394 C140.384733,37.7437295 137.765327,38.4974996 134.72867,38.4974996 L134.72867,38.4974996 Z" id="Fill-10"></path>
                <path d="M145.26916,20.6945538 L150.812101,20.6945538 L150.812101,25.3605743 C152.595152,22.0495015 154.190903,20.4307343 156.354115,20.4307343 C157.455657,20.4307343 158.557198,20.8820771 159.847893,21.7103049 L158.367117,26.7164412 C157.342535,25.9259019 156.430148,25.4745591 155.444509,25.4745591 C153.393491,25.4745591 151.57057,27.3562265 150.812101,30.6305302 L150.812101,38.1204307 L145.26916,38.1204307 L145.26916,20.6945538 Z" id="Fill-12"></path>
                <path d="M165.460747,27.0173977 C165.460747,28.7859997 166.676337,29.9901933 168.610525,29.9901933 C170.547494,29.9901933 171.763084,28.7859997 171.763084,27.0173977 C171.763084,25.2487958 170.547494,24.0446021 168.610525,24.0446021 C166.676337,24.0446021 165.460747,25.2487958 165.460747,27.0173977 M168.610525,43.3907542 C171.345834,43.3907542 172.787666,42.6379034 172.787666,41.2820365 C172.787666,40.0401544 171.345834,39.249615 168.7255,39.249615 C165.95403,39.249615 164.512197,40.0024659 164.512197,41.2452672 C164.512197,42.6746727 165.877997,43.3907542 168.610525,43.3907542 M160.29704,26.7535782 C160.29704,22.8771778 163.448672,20.6949215 169.484896,20.6949215 L178.406639,20.6949215 L178.406639,24.3451909 L175.939298,24.3451909 C176.507686,25.210188 176.773799,26.1514814 176.773799,27.3189057 C176.773799,30.4801438 174.875773,32.3241228 171.155753,32.9639081 C168.7255,33.3775624 167.206708,33.0025158 167.206708,34.3565443 C167.206708,35.5230494 168.7255,35.3732146 172.02827,35.7868689 C175.82525,36.2759002 177.799308,38.0821907 177.799308,40.9060707 C177.799308,44.6703249 174.648603,46.6650578 168.421371,46.6650578 C162.537212,46.6650578 159.347563,44.6317171 159.347563,41.545856 C159.347563,39.5134346 160.943315,38.0077329 164.01706,37.2171936 C162.65126,36.8035393 161.966969,36.0883769 161.966969,35.0717066 C161.966969,33.7167589 162.955389,32.8508426 164.929448,32.3985806 C161.815832,31.4968142 160.29704,29.651916 160.29704,26.7535782" id="Fill-14"></path>
                <polygon id="Fill-16" points="181.131193 46.6650578 186.331988 35.3346069 179.650417 20.6949215 185.57352 20.6949215 189.142402 29.2005732 192.938455 20.6949215 198.785525 20.6949215 186.940247 46.6650578"></polygon>
                <polygon id="Fill-18" points="69.6552999 59.2654275 70.7568413 59.2654275 70.7568413 51.6532691 69.6552999 51.6532691"></polygon>
                <polygon id="Fill-20" points="77.9653539 51.6535449 78.9213212 51.6535449 83.9802519 57.5605283 83.9802519 51.6535449 85.0706666 51.6535449 85.0706666 59.2657033 84.0924459 59.2657033 79.0557686 53.347689 79.0557686 59.2657033 77.9653539 59.2657033"></polygon>
                <polygon id="Fill-21" points="91.2611806 51.6535449 92.4081559 51.6535449 94.8022467 57.0806893 97.2426986 51.6535449 98.3785472 51.6535449 94.9264946 59.3208572 94.6455459 59.3208572"></polygon>
                <polygon id="Fill-22" points="104.560994 51.6535449 109.181348 51.6535449 109.181348 52.6224152 105.652336 52.6224152 105.652336 54.9296869 109.080281 54.9296869 109.080281 55.9105072 105.652336 55.9105072 105.652336 58.2839637 109.29447 58.2839637 109.29447 59.2657033 104.560994 59.2657033"></polygon>
                <path d="M115.714008,57.2366829 C116.3779,57.9840184 116.97225,58.3517111 117.72701,58.3517111 C118.491042,58.3517111 118.950945,57.9729876 118.950945,57.3708908 C118.950945,56.7357016 118.502169,56.4341936 117.670449,55.9102315 C116.3779,55.0856806 115.702881,54.6297416 115.702881,53.5376942 C115.702881,52.3776237 116.614342,51.5089497 117.974579,51.5089497 C118.568929,51.5089497 119.141953,51.6872807 119.715904,52.0319926 L119.715904,53.2692786 C119.086319,52.767378 118.536476,52.5008008 117.929145,52.5008008 C117.219819,52.5008008 116.759916,52.8905551 116.759916,53.4034864 C116.759916,54.004664 117.344067,54.3282336 118.276853,54.9073496 C119.402502,55.5986119 120.06454,56.1115432 120.06454,57.3938716 C120.06454,58.5309613 119.154934,59.3996353 117.79377,59.3996353 C116.984304,59.3996353 116.343593,59.1872928 115.714008,58.6752807 L115.714008,57.2366829 Z" id="Fill-23"></path>
                <polygon id="Fill-24" points="128.832735 52.6454879 126.012122 52.6454879 126.012122 51.6536368 132.746545 51.6536368 132.746545 52.6454879 129.924077 52.6454879 129.924077 59.2657952 128.832735 59.2657952"></polygon>
                <polygon id="Fill-25" points="139.087362 51.6535449 140.042402 51.6535449 142.809236 54.8515522 145.573289 51.6535449 146.529257 51.6535449 146.529257 59.2657033 145.462022 59.2657033 145.462022 53.3247082 142.809236 56.3903462 140.154596 53.3247082 140.154596 59.2657033 139.087362 59.2657033"></polygon>
                <polygon id="Fill-26" points="153.750936 51.6535449 158.370363 51.6535449 158.370363 52.6224152 154.84135 52.6224152 154.84135 54.9296869 158.270222 54.9296869 158.270222 55.9105072 154.84135 55.9105072 154.84135 58.2839637 158.483484 58.2839637 158.483484 59.2657033 153.750936 59.2657033"></polygon>
                <polygon id="Fill-27" points="165.317676 51.6535449 166.272716 51.6535449 171.332574 57.5605283 171.332574 51.6535449 172.422062 51.6535449 172.422062 59.2657033 171.444768 59.2657033 166.408091 53.347689 166.408091 59.2657033 165.317676 59.2657033"></polygon>
                <polygon id="Fill-28" points="181.586645 52.6454879 178.766031 52.6454879 178.766031 51.6536368 185.499527 51.6536368 185.499527 52.6454879 182.677987 52.6454879 182.677987 59.2657952 181.586645 59.2657952"></polygon>
                <path d="M191.589623,57.2366829 C192.253515,57.9840184 192.847865,58.3517111 193.601698,58.3517111 C194.366657,58.3517111 194.82656,57.9729876 194.82656,57.3708908 C194.82656,56.7357016 194.377784,56.4341936 193.546064,55.9102315 C192.253515,55.0856806 191.578496,54.6297416 191.578496,53.5376942 C191.578496,52.3776237 192.48903,51.5089497 193.849266,51.5089497 C194.444544,51.5089497 195.017568,51.6872807 195.590592,52.0319926 L195.590592,53.2692786 C194.961935,52.767378 194.411164,52.5008008 193.80476,52.5008008 C193.095434,52.5008008 192.635531,52.8905551 192.635531,53.4034864 C192.635531,54.004664 193.219682,54.3282336 194.152469,54.9073496 C195.27719,55.5986119 195.940155,56.1115432 195.940155,57.3938716 C195.940155,58.5309613 195.029622,59.3996353 193.668458,59.3996353 C192.858992,59.3996353 192.219208,59.1872928 191.589623,58.6752807 L191.589623,57.2366829 Z" id="Fill-29"></path>
            </g>
        </g>
    </g>
</svg>