<svg width="1441" height="122" viewBox="0 0 1441 122" fill="currentColor" xmlns="http://www.w3.org/2000/svg">
<path d="M1440.71 61.7071C1441.1 61.3166 1441.1 60.6834 1440.71 60.2929L1434.34 53.9289C1433.95 53.5384 1433.32 53.5384 1432.93 53.9289C1432.54 54.3195 1432.54 54.9526 1432.93 55.3431L1438.59 61L1432.93 66.6569C1432.54 67.0474 1432.54 67.6805 1432.93 68.0711C1433.32 68.4616 1433.95 68.4616 1434.34 68.0711L1440.71 61.7071ZM0 61V62H2V61V60H0V61ZM6 61V62H10V61V60H6V61ZM14 61V62H18V61V60H14V61ZM22 61V62H26V61V60H22V61ZM30 61V62H34V61V60H30V61ZM38 61V62H42V61V60H38V61ZM46 61V62H50V61V60H46V61ZM54 61V62H58V61V60H54V61ZM62 61V62H66V61V60H62V61ZM70 61V62H74V61V60H70V61ZM78 61V62H82V61V60H78V61ZM86 61V62H90V61V60H86V61ZM94 61V62H98V61V60H94V61ZM102 61V62H106V61V60H102V61ZM110 61V62H114V61V60H110V61ZM118 61V62H122V61V60H118V61ZM126 61V62H130V61V60H126V61ZM134 61V62H138V61V60H134V61ZM142 61V62H146V61V60H142V61ZM150 61V62H154V61V60H150V61ZM158 61V62H162V61V60H158V61ZM166 61V62H170V61V60H166V61ZM174 61V62H178V61V60H174V61ZM182 61V62H186V61V60H182V61ZM190 61V62H194V61V60H190V61ZM198 61V62H202V61V60H198V61ZM206 61V62H210V61V60H206V61ZM214 61V62H218V61V60H214V61ZM222 61V62H226V61V60H222V61ZM230 61V62H234V61V60H230V61ZM238 61V62H242V61V60H238V61ZM246 61V62H250V61V60H246V61ZM254 61V62H258V61V60H254V61ZM262 61V62H266V61V60H262V61ZM270 61V62H274V61V60H270V61ZM278 61V62H282V61V60H278V61ZM286 61V62H290V61V60H286V61ZM294 61V62H298V61V60H294V61ZM302 61V62H306V61V60H302V61ZM310 61V62H314V61V60H310V61ZM318 61V62H322V61V60H318V61ZM326 61V62H330V61V60H326V61ZM334 61V62H338V61V60H334V61ZM342 61V62H346V61V60H342V61ZM350 61V62H354V61V60H350V61ZM358 61V62H362V61V60H358V61ZM366 61V62H370V61V60H366V61ZM374 61V62H378V61V60H374V61ZM382 61V62H386V61V60H382V61ZM390 61V62H394V61V60H390V61ZM398 61V62H402V61V60H398V61ZM406 61V62H410V61V60H406V61ZM414 61V62H418V61V60H414V61ZM422 61V62H426V61V60H422V61ZM430 61V62H434V61V60H430V61ZM438 61V62H442V61V60H438V61ZM446 61V62H450V61V60H446V61ZM454 61V62H458V61V60H454V61ZM462 61V62H466V61V60H462V61ZM470 61V62H474V61V60H470V61ZM478 61V62H482V61V60H478V61ZM486 61V62H490V61V60H486V61ZM494 61V62H498V61V60H494V61ZM502 61V62H506V61V60H502V61ZM510 61V62H514V61V60H510V61ZM518 61V62H522V61V60H518V61ZM526 61V62H530V61V60H526V61ZM534 61V62H538V61V60H534V61ZM542 61V62H546V61V60H542V61ZM550 61V62H554V61V60H550V61ZM558 61V62H562V61V60H558V61ZM566 61V62H570V61V60H566V61ZM574 61V62H578V61V60H574V61ZM582 61V62H586V61V60H582V61ZM590 61V62H594V61V60H590V61ZM598 61V62H602V61V60H598V61ZM606 61V62H610V61V60H606V61ZM614 61V62H618V61V60H614V61ZM622 61V62H626V61V60H622V61ZM630 61V62H634V61V60H630V61ZM638 61V62H642V61V60H638V61ZM646 61V62H650V61V60H646V61ZM654 61V62H658V61V60H654V61ZM662 61V62H666V61V60H662V61ZM670 61V62H674V61V60H670V61ZM678 61V62H682V61V60H678V61ZM686 61V62H690V61V60H686V61ZM694 61V62H698V61V60H694V61ZM702 61V62H706V61V60H702V61ZM710 61V62H714V61V60H710V61ZM718 61V62H722V61V60H718V61ZM726 61V62H730V61V60H726V61ZM734 61V62H738V61V60H734V61ZM742 61V62H746V61V60H742V61ZM750 61V62H754V61V60H750V61ZM758 61V62H762V61V60H758V61ZM766 61V62H770V61V60H766V61ZM774 61V62H778V61V60H774V61ZM782 61V62H786V61V60H782V61ZM790 61V62H794V61V60H790V61ZM798 61V62H802V61V60H798V61ZM806 61V62H810V61V60H806V61ZM814 61V62H818V61V60H814V61ZM822 61V62H826V61V60H822V61ZM830 61V62H834V61V60H830V61ZM838 61V62H842V61V60H838V61ZM846 61V62H850V61V60H846V61ZM854 61V62H858V61V60H854V61ZM862 61V62H866V61V60H862V61ZM870 61V62H874V61V60H870V61ZM878 61V62H882V61V60H878V61ZM886 61V62H890V61V60H886V61ZM894 61V62H898V61V60H894V61ZM902 61V62H906V61V60H902V61ZM910 61V62H914V61V60H910V61ZM918 61V62H922V61V60H918V61ZM926 61V62H930V61V60H926V61ZM934 61V62H938V61V60H934V61ZM942 61V62H946V61V60H942V61ZM950 61V62H954V61V60H950V61ZM958 61V62H962V61V60H958V61ZM966 61V62H970V61V60H966V61ZM974 61V62H978V61V60H974V61ZM982 61V62H986V61V60H982V61ZM990 61V62H994V61V60H990V61ZM998 61V62H1002V61V60H998V61ZM1006 61V62H1010V61V60H1006V61ZM1014 61V62H1018V61V60H1014V61ZM1022 61V62H1026V61V60H1022V61ZM1030 61V62H1034V61V60H1030V61ZM1038 61V62H1042V61V60H1038V61ZM1046 61V62H1050V61V60H1046V61ZM1054 61V62H1058V61V60H1054V61ZM1062 61V62H1066V61V60H1062V61ZM1070 61V62H1074V61V60H1070V61ZM1078 61V62H1082V61V60H1078V61ZM1086 61V62H1090V61V60H1086V61ZM1094 61V62H1098V61V60H1094V61ZM1102 61V62H1106V61V60H1102V61ZM1110 61V62H1114V61V60H1110V61ZM1118 61V62H1122V61V60H1118V61ZM1126 61V62H1130V61V60H1126V61ZM1134 61V62H1138V61V60H1134V61ZM1142 61V62H1146V61V60H1142V61ZM1150 61V62H1154V61V60H1150V61ZM1158 61V62H1162V61V60H1158V61ZM1166 61V62H1170V61V60H1166V61ZM1174 61V62H1178V61V60H1174V61ZM1182 61V62H1186V61V60H1182V61ZM1190 61V62H1194V61V60H1190V61ZM1198 61V62H1202V61V60H1198V61ZM1206 61V62H1210V61V60H1206V61ZM1214 61V62H1218V61V60H1214V61ZM1222 61V62H1226V61V60H1222V61ZM1230 61V62H1234V61V60H1230V61ZM1238 61V62H1242V61V60H1238V61ZM1246 61V62H1250V61V60H1246V61ZM1254 61V62H1258V61V60H1254V61ZM1262 61V62H1266V61V60H1262V61ZM1270 61V62H1274V61V60H1270V61ZM1278 61V62H1282V61V60H1278V61ZM1286 61V62H1290V61V60H1286V61ZM1294 61V62H1298V61V60H1294V61ZM1302 61V62H1306V61V60H1302V61ZM1310 61V62H1314V61V60H1310V61ZM1318 61V62H1322V61V60H1318V61ZM1326 61V62H1330V61V60H1326V61ZM1334 61V62H1338V61V60H1334V61ZM1342 61V62H1346V61V60H1342V61ZM1350 61V62H1354V61V60H1350V61ZM1358 61V62H1362V61V60H1358V61ZM1366 61V62H1370V61V60H1366V61ZM1374 61V62H1378V61V60H1374V61ZM1382 61V62H1386V61V60H1382V61ZM1390 61V62H1394V61V60H1390V61ZM1398 61V62H1402V61V60H1398V61ZM1406 61V62H1410V61V60H1406V61ZM1414 61V62H1418V61V60H1414V61ZM1422 61V62H1426V61V60H1422V61ZM1430 61V62H1434V61V60H1430V61ZM1438 61V62H1440V61V60H1438V61ZM1440.71 61.7071C1441.1 61.3166 1441.1 60.6834 1440.71 60.2929L1434.34 53.9289C1433.95 53.5384 1433.32 53.5384 1432.93 53.9289C1432.54 54.3195 1432.54 54.9526 1432.93 55.3431L1438.59 61L1432.93 66.6569C1432.54 67.0474 1432.54 67.6805 1432.93 68.0711C1433.32 68.4616 1433.95 68.4616 1434.34 68.0711L1440.71 61.7071ZM0 61V62H2V61V60H0V61ZM6 61V62H10V61V60H6V61ZM14 61V62H18V61V60H14V61ZM22 61V62H26V61V60H22V61ZM30 61V62H34V61V60H30V61ZM38 61V62H42V61V60H38V61ZM46 61V62H50V61V60H46V61ZM54 61V62H58V61V60H54V61ZM62 61V62H66V61V60H62V61ZM70 61V62H74V61V60H70V61ZM78 61V62H82V61V60H78V61ZM86 61V62H90V61V60H86V61ZM94 61V62H98V61V60H94V61ZM102 61V62H106V61V60H102V61ZM110 61V62H114V61V60H110V61ZM118 61V62H122V61V60H118V61ZM126 61V62H130V61V60H126V61ZM134 61V62H138V61V60H134V61ZM142 61V62H146V61V60H142V61ZM150 61V62H154V61V60H150V61ZM158 61V62H162V61V60H158V61ZM166 61V62H170V61V60H166V61ZM174 61V62H178V61V60H174V61ZM182 61V62H186V61V60H182V61ZM190 61V62H194V61V60H190V61ZM198 61V62H202V61V60H198V61ZM206 61V62H210V61V60H206V61ZM214 61V62H218V61V60H214V61ZM222 61V62H226V61V60H222V61ZM230 61V62H234V61V60H230V61ZM238 61V62H242V61V60H238V61ZM246 61V62H250V61V60H246V61ZM254 61V62H258V61V60H254V61ZM262 61V62H266V61V60H262V61ZM270 61V62H274V61V60H270V61ZM278 61V62H282V61V60H278V61ZM286 61V62H290V61V60H286V61ZM294 61V62H298V61V60H294V61ZM302 61V62H306V61V60H302V61ZM310 61V62H314V61V60H310V61ZM318 61V62H322V61V60H318V61ZM326 61V62H330V61V60H326V61ZM334 61V62H338V61V60H334V61ZM342 61V62H346V61V60H342V61ZM350 61V62H354V61V60H350V61ZM358 61V62H362V61V60H358V61ZM366 61V62H370V61V60H366V61ZM374 61V62H378V61V60H374V61ZM382 61V62H386V61V60H382V61ZM390 61V62H394V61V60H390V61ZM398 61V62H402V61V60H398V61ZM406 61V62H410V61V60H406V61ZM414 61V62H418V61V60H414V61ZM422 61V62H426V61V60H422V61ZM430 61V62H434V61V60H430V61ZM438 61V62H442V61V60H438V61ZM446 61V62H450V61V60H446V61ZM454 61V62H458V61V60H454V61ZM462 61V62H466V61V60H462V61ZM470 61V62H474V61V60H470V61ZM478 61V62H482V61V60H478V61ZM486 61V62H490V61V60H486V61ZM494 61V62H498V61V60H494V61ZM502 61V62H506V61V60H502V61ZM510 61V62H514V61V60H510V61ZM518 61V62H522V61V60H518V61ZM526 61V62H530V61V60H526V61ZM534 61V62H538V61V60H534V61ZM542 61V62H546V61V60H542V61ZM550 61V62H554V61V60H550V61ZM558 61V62H562V61V60H558V61ZM566 61V62H570V61V60H566V61ZM574 61V62H578V61V60H574V61ZM582 61V62H586V61V60H582V61ZM590 61V62H594V61V60H590V61ZM598 61V62H602V61V60H598V61ZM606 61V62H610V61V60H606V61ZM614 61V62H618V61V60H614V61ZM622 61V62H626V61V60H622V61ZM630 61V62H634V61V60H630V61ZM638 61V62H642V61V60H638V61ZM646 61V62H650V61V60H646V61ZM654 61V62H658V61V60H654V61ZM662 61V62H666V61V60H662V61ZM670 61V62H674V61V60H670V61ZM678 61V62H682V61V60H678V61ZM686 61V62H690V61V60H686V61ZM694 61V62H698V61V60H694V61ZM702 61V62H706V61V60H702V61ZM710 61V62H714V61V60H710V61ZM718 61V62H722V61V60H718V61ZM726 61V62H730V61V60H726V61ZM734 61V62H738V61V60H734V61ZM742 61V62H746V61V60H742V61ZM750 61V62H754V61V60H750V61ZM758 61V62H762V61V60H758V61ZM766 61V62H770V61V60H766V61ZM774 61V62H778V61V60H774V61ZM782 61V62H786V61V60H782V61ZM790 61V62H794V61V60H790V61ZM798 61V62H802V61V60H798V61ZM806 61V62H810V61V60H806V61ZM814 61V62H818V61V60H814V61ZM822 61V62H826V61V60H822V61ZM830 61V62H834V61V60H830V61ZM838 61V62H842V61V60H838V61ZM846 61V62H850V61V60H846V61ZM854 61V62H858V61V60H854V61ZM862 61V62H866V61V60H862V61ZM870 61V62H874V61V60H870V61ZM878 61V62H882V61V60H878V61ZM886 61V62H890V61V60H886V61ZM894 61V62H898V61V60H894V61ZM902 61V62H906V61V60H902V61ZM910 61V62H914V61V60H910V61ZM918 61V62H922V61V60H918V61ZM926 61V62H930V61V60H926V61ZM934 61V62H938V61V60H934V61ZM942 61V62H946V61V60H942V61ZM950 61V62H954V61V60H950V61ZM958 61V62H962V61V60H958V61ZM966 61V62H970V61V60H966V61ZM974 61V62H978V61V60H974V61ZM982 61V62H986V61V60H982V61ZM990 61V62H994V61V60H990V61ZM998 61V62H1002V61V60H998V61ZM1006 61V62H1010V61V60H1006V61ZM1014 61V62H1018V61V60H1014V61ZM1022 61V62H1026V61V60H1022V61ZM1030 61V62H1034V61V60H1030V61ZM1038 61V62H1042V61V60H1038V61ZM1046 61V62H1050V61V60H1046V61ZM1054 61V62H1058V61V60H1054V61ZM1062 61V62H1066V61V60H1062V61ZM1070 61V62H1074V61V60H1070V61ZM1078 61V62H1082V61V60H1078V61ZM1086 61V62H1090V61V60H1086V61ZM1094 61V62H1098V61V60H1094V61ZM1102 61V62H1106V61V60H1102V61ZM1110 61V62H1114V61V60H1110V61ZM1118 61V62H1122V61V60H1118V61ZM1126 61V62H1130V61V60H1126V61ZM1134 61V62H1138V61V60H1134V61ZM1142 61V62H1146V61V60H1142V61ZM1150 61V62H1154V61V60H1150V61ZM1158 61V62H1162V61V60H1158V61ZM1166 61V62H1170V61V60H1166V61ZM1174 61V62H1178V61V60H1174V61ZM1182 61V62H1186V61V60H1182V61ZM1190 61V62H1194V61V60H1190V61ZM1198 61V62H1202V61V60H1198V61ZM1206 61V62H1210V61V60H1206V61ZM1214 61V62H1218V61V60H1214V61ZM1222 61V62H1226V61V60H1222V61ZM1230 61V62H1234V61V60H1230V61ZM1238 61V62H1242V61V60H1238V61ZM1246 61V62H1250V61V60H1246V61ZM1254 61V62H1258V61V60H1254V61ZM1262 61V62H1266V61V60H1262V61ZM1270 61V62H1274V61V60H1270V61ZM1278 61V62H1282V61V60H1278V61ZM1286 61V62H1290V61V60H1286V61ZM1294 61V62H1298V61V60H1294V61ZM1302 61V62H1306V61V60H1302V61ZM1310 61V62H1314V61V60H1310V61ZM1318 61V62H1322V61V60H1318V61ZM1326 61V62H1330V61V60H1326V61ZM1334 61V62H1338V61V60H1334V61ZM1342 61V62H1346V61V60H1342V61ZM1350 61V62H1354V61V60H1350V61ZM1358 61V62H1362V61V60H1358V61ZM1366 61V62H1370V61V60H1366V61ZM1374 61V62H1378V61V60H1374V61ZM1382 61V62H1386V61V60H1382V61ZM1390 61V62H1394V61V60H1390V61ZM1398 61V62H1402V61V60H1398V61ZM1406 61V62H1410V61V60H1406V61ZM1414 61V62H1418V61V60H1414V61ZM1422 61V62H1426V61V60H1422V61ZM1430 61V62H1434V61V60H1430V61ZM1438 61V62H1440V61V60H1438V61Z" fill="#FBC938"/>
</svg>
