<?xml version="1.0" encoding="UTF-8"?>
<svg id="Layer_2" data-name="Layer 2" xmlns="http://www.w3.org/2000/svg" viewBox="0 0 297.93 144.91">
    <defs>
        <style>
            .cls-1 {
            fill: currentColor;
            }
        </style>
    </defs>
    <g id="Layer_1-2" data-name="Layer 1">
        <g>
            <path class="cls-1" d="M294.44,51.21s-.03-.02-.05-.03c-.25-.22-2.12-2.02-.76-5.51.04-.1,0-.22-.09-.28-1.58-.89-13.77-7.88-15.42-13.25-1.75-5.7-4.68-7.84-11.51-11.5-.09-.05-.14-.15-.12-.25.43-1.57,3.66-13.69,2.42-18.18-.03-.11-.14-.18-.26-.16-.89.15-4.45.92-5.26,4.14l-1.11,6.39-.18-12.36c0-.16-.17-.27-.32-.2-1.61.72-8.98,4.55-13.35,15.31-.03.08-.1.13-.18.14-1.27.15-11.84,1.53-23.32,8.14-12.23,7.04-24,11.86-24.74,11.77-.74-.09-6.39-1.11-17.33,1.76s-40.29-2.66-57.96-2.12c0,0-4.31.14-9.91,2.85.04-.05.07-.09.11-.14-4.55-1.89-13.06-1.84-17.76-1.72-8.1.21-16.01,2.7-23.06,6.61-8.03,4.46-14.01,11.64-21.79,16.44-6.57,4.05-15.25,7.04-22.22,2.16-.92-.64-1.61-1.48-2.01-2.59-.02.01-5.12,3.25-3.63,7.14.01.02.03.03.03.05.11.29.25.57.45.87-4.74-1.23-7.6-6.06-6.37-10.81.94-3.61,4.13-5.44,7.61-5.88-21.65-10.25-46.35,38.78-.37,51.09,27.37,7.33,52.05-18.96,63.66-31.28,1.08-1.15,2.44-2.63,3.93-4.25-.18.59-.36,1.19-.53,1.81-6.62,23.71-14.33,28.25-17.78,29.05-1.18.27-2.07,1.24-2.32,2.42-1.82,8.57-7.86,38.27-5.14,42.04,3.19,4.41,6.37,4.17,12.01,3.92,5.64-.25,6.62-4.41,5.88-6.13-.73-1.72-3.25-3.03-5.52-3.03-2.14,0-1.08-16.22,4.36-26.85.62-1.21,1.86-1.99,3.22-2.07,9.08-.54,44.6-4.6,49.99-35.37.05-.28.47-.24.45.05-.23,3.15-1.1,8.26-4.01,14.36-.06.13,0,.28.14.32,3.81.91,46.89,11.49,64.26,7.18.29-.07.29-.08.58-.15-3.91-5.98-2.62-14-2.41-16.65-.53,6.83,2.86,14.19,3.88,16.23v.64s10.42,1.72,25.37,11.5c14.95,9.78,18.28,13,18.84,14.28.56,1.28-.29,11.95,7.08,13.75,0,0,3.27,3.71,7.14,2.58,3.87-1.13,4.34-3.11,4.24-4.24s-5.09-5.56-8.77-16.5c-3.68-10.94-28.11-22.12-32.44-28.42,0,0-.35-.29-.31-1.23,2.25-8.48-.82-13.97-.82-13.97,3.35,3.83,2.42,10.38,1.73,13.48,4.57-2.53,7.72-5.24,9.27-8.02.11-.19.4-.13.42.09.08.75.14,1.93-.09,2.79-.34,1.22,8.93-11.13,11.96-14.64.16-.19.46-.01.38.22-.31.94-.71,2.26-.66,2.78.08.84,8.38-14.26,20.72-14.13,12.34.13,16.52,5.46,25.84,2.76,8.97-2.6,4.25-5.02,3.88-5.2ZM196.81,76.1c.04-.39.07-.61.07-.61-.03.2-.05.41-.07.61Z"/>
            <path class="cls-1" d="M146.73,90.27l-1.16-.41c-.13-.12-12.31-2.89-12.31-2.89,0,0-4.37,8.04-15.25,14.17,0,0,1.77,2.59,2.29,3.38.5.76,4.73,6.7-3.93,15.97-.68.73-.81,1.83-.29,2.69.1.16.19.31.27.45.68,1.22,1.42,2.42,2.16,3.61,2.02,3.21,4.13,7.21,6.33,10.31.73,1.02,1.46,2.04,2.23,3.04.54.7,1.23,1.63,1.87,2.26.06.06.12.1.18.15l-.02.03c3.41,1.5,8.72.79,10.33-.33,1.14-.78.91-4.67-.95-5.46-1.48-.63-3.93.24-4.76.64h0s-8.18-15.22-8.18-15.22c0-.01,0-.03,0-.04.17-2.14,8.7-9.03,14.6-15.02,0,0,0,0,0,0,11.11-8.27,6.58-17.33,6.58-17.33Z"/>
            <g>
                <path class="cls-1" d="M182.39,136.84c-1.21,0-3.18.88-3.18.88,0,0-.07-.55-.09-.94-.03-.86-.36-11.52,1.71-14.8,1.87-2.96,16.6-24.45,18-27.96-.21.06-.25.07-.51.13-4.48,1.11-10.67,1.23-17.45.78-3.97,9.27-8.57,19.84-8.57,19.84,0,0-.83,16.99-1.03,20.89-.07,1.41-.22,2.89.05,4.3.2,1.07.61,2.29,1.61,2.85,2.19,1.23,10.27,1.76,12.7-.42.84-.76.87-5.55-3.23-5.56Z"/>
                <path class="cls-1" d="M198.87,93.94c.05-.13.08-.23.08-.3-.07.02-.14.05-.22.07.05.08.09.16.14.23Z"/>
            </g>
            <path class="cls-1" d="M294.89,45.79s-.99,1.35-.72,2.89c.27,1.53,2.17,3.07,2.49,3.07s3.55-1.95-1.77-5.95Z"/>
        </g>
    </g>
</svg>