<svg width="205" height="40" viewBox="0 0 205 40" fill="none" xmlns="http://www.w3.org/2000/svg">
<g clip-path="url(#clip0_599_756)">
<path d="M88.6248 14.1292H93.9545L93.8729 11.5642L88.6248 11.6553V8.84093C88.6248 7.61355 88.903 6.69782 89.4643 6.09851C90.0256 5.49921 90.678 5.19716 91.4264 5.19716C91.9589 5.19716 92.4626 5.35058 92.9279 5.65742C93.3932 5.96427 93.7482 6.40056 93.9881 6.95672L94.2663 6.99507L95.7487 4.71292C95.5088 4.33895 95.2066 4.03211 94.8468 3.79239C94.487 3.55266 94.0984 3.36568 93.6858 3.23144C93.2733 3.09719 92.8655 2.99651 92.4626 2.92939C92.0644 2.86227 91.6998 2.8287 91.3832 2.8287C90.5533 2.8287 89.7713 2.95815 89.0373 3.20747C88.3034 3.46157 87.6558 3.84992 87.0945 4.36772C86.5332 4.88552 86.0871 5.53756 85.7513 6.30947C85.4155 7.08617 85.2523 7.99232 85.2523 9.03271V11.732L81.4434 11.919V14.1196H85.2523V30.181L84.4128 32.2618V32.5015H89.661V32.2618L88.62 30.181V14.1292H88.6248Z" fill="#270E15"/>
<path d="M112.711 16.5504C111.829 14.9347 110.62 13.6594 109.085 12.7244C107.55 11.7895 105.794 11.3245 103.812 11.3245C102.316 11.3245 100.953 11.593 99.7253 12.1251C98.4972 12.6573 97.4274 13.4148 96.5207 14.3881C95.6141 15.3614 94.9041 16.5025 94.3956 17.8113C93.8871 19.1202 93.6328 20.549 93.6328 22.0976C93.6328 24.1784 94.0646 26.0386 94.9329 27.6639C95.8012 29.294 97.0005 30.5741 98.5404 31.509C100.075 32.444 101.831 32.909 103.812 32.909C105.309 32.909 106.672 32.6405 107.9 32.1084C109.128 31.5762 110.202 30.8186 111.123 29.8454C112.045 28.8721 112.759 27.7214 113.268 26.403C113.776 25.0845 114.031 23.6462 114.031 22.0976C114.031 20.0168 113.589 18.1661 112.707 16.5504H112.711ZM110.164 24.84C109.963 25.7078 109.67 26.4893 109.281 27.1845C108.893 27.8797 108.413 28.4742 107.837 28.968C107.262 29.4618 106.643 29.8454 105.976 30.1091C105.309 30.3776 104.585 30.5118 103.812 30.5118C102.532 30.5118 101.38 30.1522 100.368 29.4283C99.3511 28.7091 98.5643 27.7071 98.0031 26.4269C97.4418 25.1468 97.1636 23.7037 97.1636 22.1024C97.1636 21.1147 97.2691 20.199 97.485 19.3599C97.6961 18.5209 97.9935 17.7538 98.3677 17.0586C98.7418 16.3634 99.2072 15.7689 99.7685 15.2751C100.33 14.7813 100.958 14.4025 101.654 14.134C102.349 13.8655 103.069 13.7313 103.817 13.7313C105.098 13.7313 106.24 14.0909 107.243 14.8148C108.245 15.534 109.032 16.5168 109.608 17.7586C110.183 19.0004 110.471 20.4483 110.471 22.1024C110.471 23.0612 110.37 23.977 110.169 24.8448L110.164 24.84Z" fill="#270E15"/>
<path d="M125.261 21.5222L130.423 14.2059L132.505 11.9669V11.7224H127.659L127.578 11.9669L127.218 14.1675L123.735 19.2353L120.363 14.1675L119.926 11.9669L119.845 11.7224H114.553V11.9669L116.559 14.2059L121.768 22.0688L116.079 30.1858L113.992 32.2713V32.5111H118.881L118.962 32.2713L119.322 30.2289L123.294 24.3701L127.18 30.2289L127.54 32.2713L127.659 32.5111H133.028V32.2713L131.022 30.1858L125.261 21.5222Z" fill="#270E15"/>
<path d="M150.682 12.7053C149.281 11.7847 147.64 11.3245 145.774 11.3245C144.306 11.3245 142.93 11.6984 141.649 12.4464C140.368 13.1943 139.432 14.1963 138.842 15.4525V11.6073L134.717 12.1299V12.3313L135.518 14.8532V37.5213L134.717 39.7651V40.0048H139.965V39.7651L138.842 37.5213V29.6728C139.298 30.3152 139.859 30.881 140.526 31.3748C141.193 31.8686 141.951 32.2474 142.79 32.5159C143.63 32.7844 144.479 32.9138 145.333 32.9138C146.748 32.9138 148.053 32.6453 149.238 32.1131C150.428 31.581 151.469 30.833 152.366 29.8694C153.263 28.9105 153.954 27.7646 154.448 26.4461C154.942 25.1229 155.191 23.6893 155.191 22.1407C155.191 20.0312 154.793 18.1613 153.987 16.5312C153.186 14.9011 152.083 13.6258 150.682 12.7053ZM151.363 24.8831C151.162 25.7222 150.864 26.4941 150.461 27.1845C150.063 27.8797 149.593 28.4742 149.06 28.968C148.528 29.4618 147.914 29.8502 147.218 30.1283C146.523 30.4063 145.789 30.5502 145.016 30.5502C143.894 30.5502 142.92 30.3056 142.09 29.8118C141.26 29.318 140.56 28.6324 139.984 27.7502C139.408 26.868 139.029 25.866 138.842 24.7489V20.2229C138.977 18.9956 139.337 17.912 139.927 16.9771C140.512 16.0422 141.27 15.3134 142.191 14.7956C143.112 14.273 144.119 14.0141 145.218 14.0141C146.499 14.0141 147.621 14.3545 148.586 15.0354C149.545 15.7162 150.303 16.6798 150.85 17.9168C151.397 19.1586 151.67 20.5825 151.67 22.1839C151.67 23.1428 151.569 24.0441 151.368 24.8879L151.363 24.8831Z" fill="#270E15"/>
<path d="M161.638 3.11157L157.513 3.63417V3.83553L158.314 6.35741V30.1858L157.513 32.2713V32.5111H162.439V32.2713L161.638 30.1858V3.11157Z" fill="#270E15"/>
<path d="M182.477 18.6552C182.477 17.1066 182.141 15.7833 181.475 14.6902C180.808 13.597 179.863 12.7628 178.649 12.1875C177.43 11.6121 176.039 11.3245 174.461 11.3245C172.883 11.3245 171.42 11.6025 170.235 12.1635C169.045 12.7244 168.086 13.4628 167.352 14.3881C166.618 15.3086 166.143 16.3442 165.932 17.4901L169.218 18.3291C169.323 17.3415 169.592 16.4881 170.019 15.7641C170.446 15.0449 171.041 14.4984 171.803 14.1244C172.566 13.7504 173.439 13.5635 174.427 13.5635C175.363 13.5635 176.183 13.7457 176.893 14.1052C177.598 14.4648 178.16 15.0066 178.577 15.7258C178.99 16.4449 179.196 17.3271 179.196 18.3675V19.6093L172.624 20.7312C171.127 21.0236 169.846 21.4455 168.776 21.9921C167.707 22.5387 166.891 23.2482 166.33 24.116C165.768 24.9838 165.49 26.005 165.49 27.1797C165.49 28.3543 165.768 29.3228 166.33 30.1618C166.891 31.0008 167.687 31.6721 168.714 32.1659C169.741 32.6597 170.925 32.9042 172.259 32.9042C173.113 32.9042 173.929 32.7844 174.706 32.5446C175.478 32.3049 176.183 31.9597 176.812 31.5043C177.44 31.0488 177.992 30.483 178.476 29.8022C178.726 29.4522 178.951 29.0687 179.157 28.6611V32.5015H183.283V32.2618L182.482 30.0611V18.6456L182.477 18.6552ZM178.289 27.3858C177.742 28.292 177.028 29.0351 176.145 29.6104C175.262 30.1858 174.207 30.4735 172.979 30.4735C172.178 30.4735 171.477 30.32 170.873 30.0132C170.273 29.7063 169.813 29.294 169.491 28.7714C169.17 28.2488 169.011 27.6447 169.011 26.9495C169.011 25.8037 169.39 24.9023 170.153 24.2455C170.916 23.5934 172.005 23.1044 173.42 22.7832L179.153 21.7428V25.3482C178.975 26.0482 178.687 26.729 178.289 27.3906V27.3858Z" fill="#270E15"/>
<path d="M204.156 30.1858V18.4921C204.156 16.9963 203.849 15.7209 203.235 14.6662C202.62 13.6114 201.757 12.7915 200.649 12.2018C199.541 11.6169 198.279 11.3196 196.864 11.3196C195.847 11.3196 194.911 11.5018 194.057 11.8614C193.204 12.221 192.446 12.7148 191.793 13.3429C191.136 13.971 190.599 14.6853 190.172 15.486V11.6025L186.003 12.1251V12.3265L186.842 14.8483V30.1858L186.003 32.2665V32.5063H190.973V32.2665L190.172 30.1858V19.614C190.412 18.5449 190.815 17.586 191.376 16.7326C191.937 15.8792 192.633 15.2223 193.458 14.7716C194.288 14.3162 195.166 14.0908 196.101 14.0908C197.037 14.0908 197.9 14.2778 198.605 14.6518C199.315 15.0257 199.862 15.5819 200.246 16.3154C200.634 17.049 200.826 17.9647 200.826 19.0579V30.1906L200.025 32.2713V32.5111H204.995V32.2713L204.156 30.1906V30.1858Z" fill="#270E15"/>
<g clip-path="url(#clip1_599_756)">
<path d="M66.988 11.6665C66.988 11.6665 66.9812 11.662 66.9767 11.6597C66.9198 11.6096 66.4943 11.1995 66.8038 10.4044C66.8129 10.3816 66.8038 10.3543 66.7833 10.3406C66.4238 10.1379 63.6505 8.54543 63.2751 7.32205C62.8769 6.02348 62.2103 5.53595 60.6564 4.70214C60.6359 4.69075 60.6246 4.66796 60.6291 4.64518C60.7269 4.28751 61.4618 1.52635 61.1797 0.503451C61.1729 0.478391 61.1478 0.462444 61.1205 0.467C60.918 0.501173 60.1081 0.676593 59.9238 1.41017L59.6713 2.86592L59.6303 0.0500932C59.6303 0.0136423 59.5917 -0.0114177 59.5575 0.0045296C59.1912 0.168559 57.5145 1.0411 56.5203 3.49242C56.5134 3.51065 56.4975 3.52204 56.4793 3.52432C56.1904 3.55849 53.7856 3.87288 51.1738 5.37876C48.3913 6.9826 45.7135 8.08068 45.5452 8.06018C45.3768 8.03967 44.0914 7.8073 41.6024 8.46114C39.1134 9.11497 32.436 7.85514 28.4159 7.97816C28.4159 7.97816 27.4353 8.01006 26.1612 8.62744C26.1703 8.61605 26.1772 8.60694 26.1863 8.59555C25.1511 8.16497 23.215 8.17636 22.1457 8.2037C20.3028 8.25154 18.5032 8.81881 16.8993 9.70958C15.0724 10.7256 13.7119 12.3614 11.9418 13.4549C10.4471 14.3776 8.47229 15.0587 6.88654 13.947C6.67723 13.8012 6.52025 13.6098 6.42924 13.3569C6.42469 13.3592 5.26439 14.0974 5.60338 14.9836C5.60565 14.9881 5.6102 14.9904 5.6102 14.995C5.63523 15.061 5.66708 15.1248 5.71258 15.1932C4.63418 14.9129 3.9835 13.8126 4.26334 12.7304C4.4772 11.908 5.20296 11.4911 5.9947 11.3909C1.06909 9.05574 -4.55042 20.2257 5.91052 23.0301C12.1375 24.7 17.7524 18.7107 20.3938 15.9039C20.6396 15.642 20.949 15.3048 21.288 14.9357C21.247 15.0701 21.2061 15.2068 21.1674 15.3481C19.6613 20.7496 17.9072 21.7839 17.1222 21.9662C16.8538 22.0277 16.6513 22.2487 16.5944 22.5175C16.1804 24.4699 14.8062 31.2361 15.425 32.095C16.1508 33.0997 16.8743 33.045 18.1574 32.988C19.4406 32.9311 19.6635 31.9833 19.4952 31.5915C19.3291 31.1997 18.7558 30.9012 18.2393 30.9012C17.7524 30.9012 17.9936 27.206 19.2313 24.7843C19.3723 24.5086 19.6544 24.3309 19.9639 24.3127C22.0296 24.1897 30.1108 23.2648 31.3371 16.2548C31.3485 16.191 31.444 16.2001 31.4395 16.2662C31.3872 16.9838 31.1892 18.148 30.5272 19.5376C30.5135 19.5673 30.5272 19.6014 30.559 19.6106C31.4258 19.8179 41.227 22.2282 45.1789 21.2463C45.2448 21.2303 45.2448 21.2281 45.3108 21.2121C44.4213 19.8498 44.7147 18.0227 44.7625 17.4189C44.6419 18.9749 45.4132 20.6517 45.6453 21.1164V21.2622C45.6453 21.2622 48.0159 21.6541 51.4172 23.8821C54.8185 26.1102 55.5761 26.8438 55.7035 27.1354C55.8309 27.427 55.6375 29.8578 57.3143 30.2679C57.3143 30.2679 58.0582 31.1131 58.9387 30.8557C59.8192 30.5982 59.9261 30.1471 59.9033 29.8897C59.8806 29.6323 58.7453 28.623 57.9081 26.1307C57.0708 23.6384 51.5128 21.0914 50.5276 19.6561C50.5276 19.6561 50.448 19.59 50.4571 19.3759C50.969 17.444 50.2706 16.1933 50.2706 16.1933C51.0327 17.0658 50.8211 18.558 50.6641 19.2643C51.7039 18.6879 52.4205 18.0705 52.7732 17.4372C52.7982 17.3939 52.8642 17.4075 52.8687 17.4577C52.8869 17.6285 52.9006 17.8974 52.8482 18.0933C52.7709 18.3712 54.8799 15.5577 55.5693 14.758C55.6057 14.7147 55.6739 14.7557 55.6557 14.8081C55.5852 15.0223 55.4942 15.323 55.5056 15.4415C55.5238 15.6328 57.4121 12.1928 60.2196 12.2224C63.0271 12.252 63.9781 13.4663 66.0985 12.8512C68.1392 12.2589 67.0654 11.7075 66.9812 11.6665H66.988ZM44.7762 17.3369C44.7853 17.2481 44.7921 17.198 44.7921 17.198C44.7853 17.2435 44.7807 17.2914 44.7762 17.3369Z" fill="#270E15"/>
<path d="M6.64778 14.897C6.64778 14.897 8.95247 16.1067 11.0365 14.9358C13.6096 13.4914 18.1439 8.41104 21.5679 9.12639C21.5679 9.12639 20.4964 9.08311 18.5716 10.5252C16.2988 12.227 13.3275 17.0704 10.3448 17.7015C6.62731 18.4852 6.64551 14.897 6.64551 14.897H6.64778Z" fill="#270E15"/>
<path d="M33.3826 20.5651L33.1187 20.4717C33.0891 20.4444 30.3181 19.8133 30.3181 19.8133C30.3181 19.8133 29.3238 21.645 26.8485 23.0415C26.8485 23.0415 27.2512 23.6316 27.3695 23.8115C27.4833 23.9847 28.4456 25.3379 26.4754 27.4498C26.3207 27.6161 26.2911 27.8667 26.4094 28.0626C26.4322 28.0991 26.4527 28.1332 26.4709 28.1651C26.6256 28.4431 26.7939 28.7165 26.9623 28.9876C27.4218 29.7189 27.9019 30.6301 28.4024 31.3364C28.5685 31.5687 28.7346 31.8011 28.9098 32.0289C29.0326 32.1884 29.1896 32.4003 29.3352 32.5438C29.3489 32.5575 29.3625 32.5666 29.3762 32.578L29.3716 32.5848C30.1474 32.9265 31.3555 32.7648 31.7218 32.5096C31.9812 32.3319 31.9288 31.4457 31.5057 31.2657C31.1689 31.1222 30.6115 31.3204 30.4227 31.4115L28.5617 27.9442C28.5617 27.9419 28.5617 27.9373 28.5617 27.935C28.6004 27.4475 30.541 25.8778 31.8833 24.5132C34.411 22.6292 33.3804 20.5651 33.3804 20.5651H33.3826Z" fill="#270E15"/>
<path d="M41.4952 31.1746C41.2199 31.1746 40.7717 31.3751 40.7717 31.3751C40.7717 31.3751 40.7558 31.2498 40.7513 31.161C40.7444 30.965 40.6694 28.5365 41.1403 27.7893C41.5658 27.1149 44.917 22.2191 45.2355 21.4195C45.1877 21.4331 45.1786 21.4354 45.1195 21.4491C44.1002 21.702 42.6919 21.7293 41.1494 21.6268C40.2462 23.7387 39.1996 26.1467 39.1996 26.1467C39.1996 26.1467 39.0108 30.0173 38.9653 30.9058C38.9494 31.227 38.9153 31.5642 38.9767 31.8854C39.0222 32.1292 39.1155 32.4071 39.343 32.5347C39.8412 32.8149 41.6795 32.9357 42.2324 32.439C42.4235 32.2659 42.4303 31.1746 41.4975 31.1724L41.4952 31.1746Z" fill="#270E15"/>
<path d="M45.2447 21.4012C45.2561 21.3716 45.2629 21.3488 45.2629 21.3329C45.247 21.3374 45.2311 21.3443 45.2129 21.3488C45.2243 21.3671 45.2334 21.3853 45.2447 21.4012Z" fill="#270E15"/>
<path d="M67.0904 10.4318C67.0904 10.4318 66.8652 10.7393 66.9266 11.0902C66.9881 11.441 67.4203 11.7896 67.4931 11.7896C67.5659 11.7896 68.3008 11.3453 67.0904 10.4341V10.4318Z" fill="#270E15"/>
<path d="M31.4191 14.6077C31.4191 14.6077 29.1327 10.1151 24.4277 11.8238C24.4277 11.8238 25.2399 10.3521 27.4627 9.36788C29.6855 8.38371 39.4821 10.1037 41.7049 9.53419C43.9277 8.96464 44.9924 9.21296 45.5999 9.09222C46.2073 8.97148 55.6058 3.35804 56.7274 4.62926C56.7274 4.62926 56.3748 5.57243 56.9618 6.1921C56.9618 6.1921 50.5801 9.44762 49.8088 14.3935C49.8202 14.6145 47.0605 12.9423 44.9424 15.2114C44.9424 15.2114 38.7427 11.1881 31.4191 14.6077Z" fill="#270E15"/>
<path d="M62.0331 6.37206C62.0331 6.37206 62.5609 8.43609 64.4083 9.55924C64.4083 9.55924 62.3038 7.90755 60.2812 7.93261C60.2812 7.93261 61.9375 7.77314 62.0331 6.36978V6.37206Z" fill="#270E15"/>
</g>
</g>
<defs>
<clipPath id="clip0_599_756">
<rect width="205" height="40" fill="white"/>
</clipPath>
<clipPath id="clip1_599_756">
<rect width="67.7823" height="33.0131" fill="white"/>
</clipPath>
</defs>
</svg>
