<svg width="256" height="256" viewBox="0 0 256 256" fill="none" xmlns="http://www.w3.org/2000/svg">
<rect width="256" height="256" fill="#FBC938"/>
<g clip-path="url(#clip0_2798_11571)">
<path d="M226.621 113.632C226.621 113.632 226.601 113.619 226.587 113.612C226.417 113.463 225.143 112.246 226.069 109.886C226.097 109.818 226.069 109.737 226.008 109.696C224.932 109.095 216.626 104.367 215.501 100.736C214.309 96.8809 212.313 95.4337 207.659 92.9585C207.598 92.9247 207.564 92.857 207.577 92.7894C207.87 91.7277 210.071 83.5311 209.226 80.4946C209.206 80.4202 209.131 80.3729 209.049 80.3864C208.442 80.4879 206.017 81.0086 205.465 83.1862L204.709 87.5077L204.586 79.1488C204.586 79.0406 204.47 78.9662 204.368 79.0136C203.271 79.5005 198.249 82.0906 195.272 89.3674C195.251 89.4215 195.204 89.4553 195.149 89.4621C194.284 89.5636 187.082 90.4968 179.259 94.967C170.926 99.7281 162.907 102.988 162.402 102.927C161.898 102.866 158.049 102.176 150.594 104.117C143.14 106.058 123.142 102.318 111.102 102.683C111.102 102.683 108.166 102.778 104.35 104.611C104.377 104.577 104.398 104.55 104.425 104.516C101.325 103.238 95.5262 103.272 92.3237 103.353C86.8046 103.495 81.415 105.179 76.6114 107.823C71.14 110.839 67.0654 115.695 61.7644 118.941C57.2878 121.68 51.3735 123.702 46.6244 120.402C45.9975 119.969 45.5274 119.401 45.2548 118.65C45.2412 118.657 41.7662 120.848 42.7814 123.479C42.7883 123.493 42.8019 123.499 42.8019 123.513C42.8768 123.709 42.9722 123.898 43.1085 124.101C39.8788 123.269 37.9301 120.003 38.7682 116.791C39.4087 114.349 41.5822 113.112 43.9534 112.814C29.2018 105.882 12.372 139.04 43.7013 147.365C62.3503 152.322 79.1665 134.543 87.0772 126.211C87.8131 125.434 88.7397 124.433 89.755 123.337C89.6323 123.736 89.5097 124.142 89.3938 124.561C84.8832 140.596 79.6298 143.666 77.2791 144.207C76.4751 144.39 75.8687 145.046 75.6983 145.844C74.4583 151.639 70.3428 171.725 72.1961 174.275C74.3697 177.257 76.5364 177.095 80.3793 176.926C84.2223 176.757 84.89 173.943 84.3858 172.78C83.8884 171.617 82.1713 170.731 80.6246 170.731C79.1665 170.731 79.8888 159.762 83.5954 152.573C84.0178 151.754 84.8627 151.227 85.7894 151.173C91.9762 150.808 116.178 148.062 119.851 127.253C119.885 127.063 120.171 127.09 120.158 127.287C120.001 129.417 119.408 132.873 117.425 136.998C117.384 137.086 117.425 137.187 117.521 137.214C120.117 137.83 149.47 144.985 161.305 142.07C161.503 142.023 161.503 142.016 161.701 141.969C159.036 137.924 159.915 132.501 160.059 130.709C159.697 135.328 162.007 140.305 162.702 141.685V142.117C162.702 142.117 169.802 143.281 179.989 149.895C190.175 156.509 192.444 158.686 192.826 159.552C193.207 160.418 192.628 167.634 197.65 168.851C197.65 168.851 199.878 171.36 202.515 170.596C205.151 169.831 205.472 168.492 205.404 167.728C205.335 166.964 201.935 163.968 199.428 156.57C196.921 149.171 180.275 141.61 177.324 137.35C177.324 137.35 177.086 137.153 177.113 136.518C178.646 130.783 176.554 127.07 176.554 127.07C178.837 129.66 178.203 134.09 177.733 136.186C180.847 134.475 182.993 132.643 184.05 130.763C184.124 130.634 184.322 130.675 184.336 130.823C184.39 131.331 184.431 132.129 184.274 132.71C184.043 133.535 190.359 125.183 192.424 122.81C192.533 122.681 192.737 122.803 192.682 122.958C192.471 123.594 192.199 124.487 192.233 124.838C192.287 125.406 197.943 115.195 206.351 115.283C214.759 115.37 217.607 118.975 223.957 117.149C230.069 115.391 226.853 113.754 226.601 113.632H226.621ZM160.099 130.465C160.127 130.201 160.147 130.053 160.147 130.053C160.127 130.188 160.113 130.33 160.099 130.465Z" fill="#010101"/>
<path d="M45.9097 123.222C45.9097 123.222 52.8119 126.813 59.0532 123.337C66.7595 119.049 80.3392 103.968 90.5938 106.092C90.5938 106.092 87.3845 105.963 81.6202 110.244C74.8133 115.296 65.9146 129.674 56.9819 131.547C45.8483 133.874 45.9028 123.222 45.9028 123.222H45.9097Z" fill="#010101"/>
<path d="M125.977 140.048L125.187 139.771C125.098 139.689 116.799 137.816 116.799 137.816C116.799 137.816 113.821 143.253 106.408 147.399C106.408 147.399 107.614 149.151 107.969 149.685C108.309 150.199 111.191 154.216 105.291 160.485C104.827 160.979 104.739 161.723 105.093 162.304C105.161 162.413 105.223 162.514 105.277 162.609C105.74 163.434 106.245 164.245 106.749 165.05C108.125 167.221 109.563 169.926 111.062 172.023C111.559 172.712 112.057 173.402 112.581 174.078C112.949 174.552 113.419 175.181 113.856 175.607C113.896 175.647 113.937 175.674 113.978 175.708L113.965 175.729C116.288 176.743 119.906 176.263 121.003 175.505C121.78 174.978 121.623 172.347 120.356 171.813C119.347 171.387 117.678 171.975 117.112 172.246L111.539 161.953C111.539 161.946 111.539 161.932 111.539 161.926C111.655 160.478 117.467 155.819 121.487 151.768C129.057 146.175 125.97 140.048 125.97 140.048H125.977Z" fill="#010101"/>
<path d="M150.275 171.543C149.45 171.543 148.108 172.138 148.108 172.138C148.108 172.138 148.06 171.766 148.047 171.502C148.026 170.92 147.802 163.711 149.212 161.493C150.486 159.491 160.523 144.958 161.477 142.584C161.333 142.625 161.306 142.632 161.129 142.672C158.077 143.423 153.859 143.504 149.239 143.2C146.534 149.469 143.4 156.617 143.4 156.617C143.4 156.617 142.834 168.107 142.698 170.745C142.65 171.698 142.548 172.699 142.732 173.653C142.868 174.376 143.148 175.201 143.829 175.58C145.321 176.412 150.827 176.77 152.483 175.296C153.055 174.782 153.075 171.543 150.282 171.536L150.275 171.543Z" fill="#010101"/>
<path d="M161.504 142.53C161.538 142.442 161.558 142.374 161.558 142.327C161.51 142.341 161.463 142.361 161.408 142.374C161.442 142.429 161.47 142.483 161.504 142.53Z" fill="#010101"/>
<path d="M226.929 109.967C226.929 109.967 226.254 110.88 226.438 111.921C226.622 112.963 227.917 113.998 228.135 113.998C228.353 113.998 230.554 112.679 226.929 109.974V109.967Z" fill="#010101"/>
<path d="M120.097 122.363C120.097 122.363 113.249 109.027 99.1587 114.099C99.1587 114.099 101.591 109.73 108.248 106.809C114.905 103.887 144.245 108.993 150.902 107.302C157.559 105.612 160.748 106.349 162.567 105.99C164.386 105.632 192.533 88.9685 195.893 92.7421C195.893 92.7421 194.836 95.5419 196.594 97.3814C196.594 97.3814 177.482 107.045 175.172 121.728C175.206 122.384 166.941 117.42 160.598 124.155C160.598 124.155 142.03 112.212 120.097 122.363Z" fill="#010101"/>
<path d="M211.782 97.9157C211.782 97.9157 213.362 104.043 218.895 107.377C218.895 107.377 212.593 102.474 206.535 102.548C206.535 102.548 211.496 102.075 211.782 97.9089V97.9157Z" fill="#010101"/>
</g>
<defs>
<clipPath id="clip0_2798_11571">
<rect width="203" height="98" fill="white" transform="translate(26 79)"/>
</clipPath>
</defs>
</svg>
