<?xml version="1.0" encoding="UTF-8"?>
<svg id="Layer_2" data-name="Layer 2" xmlns="http://www.w3.org/2000/svg" viewBox="0 0 497.9 181.84">
  <defs>
    <style>
      .cls-1 {
        fill: #d31e47;
      }
    </style>
  </defs>
  <g id="Layer_1-2" data-name="Layer 1">
    <path class="cls-1" d="M111.4,105.82c-1.95-3.83-8.79-.85-12.26-4.08-.95-.85-2.99-2.72-4.02-5.9-.99-3.02-2.48-5.43-4.99-7.4-4.46-3.53-15.01-8.87-14.28-16.08.33-3.22,4.17-3.88,5.74-6.24.96-1.36,1.09-3.22,2.21-4.48,1.26-1.46-.51-1.46-1.75-1.56-2.65-.1-4.64,2.83-6.84,4.03-3.61,1.91-6.86,4.64-10.94,5.54-1.2.25-7.28,2.17-3.31,3.18,2.71.7,5.76.5,8.01,2.47,2.89,2.51,5.25,5.74,8.15,8.26,1.47,1.26,2.91,2.47,4.11,4.03,1.38,1.81,1.2,3.88,2.22,5.75.99,1.81,2.94.2,4.15,1.21,3.97,3.32-1.55,4.93-2.98,6.5-1.86,2.07-2.23,3.38-5.64,4.78-1.51.61-11.3,1.82-12.49,2.73-1.21.9-.57,1.2-.26,1.55.32.36,2,.91,2.74.96,4.12.4,16.77,2.82,19.37-.45,1.77-2.27,4.4-2.53,7.32-1.71,2.05.55,6.12.15,9.65-1.31,2.04-.85,7.69-.9,6.1-1.77M388.13,108.64h-8.6v-26.69h-5.21v31.4h13.81v-4.71ZM207.75,136.91c2.47-1.11,3.89-3.33,3.89-6.6,0-5.12-3.39-7.94-8.32-7.94h-8.14v31.4h8.05c5.99,0,9.28-3.05,9.28-9.1,0-3.74-1.6-6.51-4.76-7.76M200.39,126.84h2.24c2.47,0,3.93,1.25,3.93,3.97s-1.33,4.2-3.93,4.2h-2.24v-8.17ZM202.73,149.29h-2.33v-9.74h2.33c3.11,0,4.62,1.76,4.62,4.9s-1.37,4.85-4.62,4.85M207.66,95.02h-7.27v-13.07h-5.21v31.4h5.21v-13.62h7.27v13.62h5.21v-31.4h-5.21v13.07ZM231.78,127.07h6.03v26.69h5.21v-26.69h6.03v-4.71h-17.28v4.71ZM220.24,140.1h8.18v-4.62h-8.18v-8.4h9.19v-4.71h-14.4v31.4h14.81v-4.71h-9.6v-8.96ZM109.08,121.79c-.02.05-.2.15-.44.25-.23.11-.39.21-.39.21-3.93,2.21-5.95,5.63-5.56,11.23.56,7.76,6.19,46.9,6.19,46.9l10.78-3.48s-1-6.34-2.22-14.1c3.67-1.11,7.35-2.67,11-4.68,3.61-2.01,6.87-4.39,9.72-6.95,5.87,5.19,10.68,9.47,10.68,9.47l8.62-7.41s-29.84-25.64-36.03-30.17c-4.47-3.33-8.4-3.43-12.35-1.26M123.54,149.25c-2.8,1.56-5.29,2.47-7.77,3.03-1.35-8.62-2.55-16.43-2.72-17.33-.33-2.31-.17-3.23.65-3.73.8-.45,1.67-.1,3.4,1.41.75.65,6.63,5.84,13.12,11.59-1.78,1.82-3.89,3.47-6.68,5.03M78.15,181.84h11.12v-55.76h-11.12v55.76ZM58.83,122.3s-.21-.15-.44-.26c-.22-.1-.39-.2-.41-.25.01.05.02.05.02.05-3.95-2.22-7.86-2.11-12.35,1.21-6.21,4.53-36.09,30.07-36.09,30.07l8.62,7.41s4.79-4.23,10.66-9.37c2.88,2.56,6.12,4.89,9.76,6.95,3.61,2.02,7.31,3.57,10.97,4.63-1.24,7.81-2.26,14.16-2.26,14.16l10.76,3.48s5.71-39.14,6.25-46.85c.41-5.59-1.57-9.01-5.49-11.23M53.98,134.94c-.13.9-1.38,8.71-2.74,17.33-2.5-.56-4.99-1.51-7.79-3.08-2.78-1.56-4.89-3.17-6.66-5.03,6.52-5.74,12.4-10.94,13.13-11.54,1.76-1.51,2.62-1.86,3.43-1.41.8.45.97,1.41.63,3.73M231.86,108.64h-9.6v-8.96h8.19v-4.62h-8.19v-8.41h9.19v-4.71h-14.4v31.4h14.81v-4.71ZM336.91,108.64h-9.6v-8.96h8.18v-4.62h-8.18v-8.41h9.19v-4.71h-14.4v31.4h14.82v-4.71ZM84.09,0C37.65,0,0,38.03,0,84.93c0,19.54,6.54,37.48,17.52,51.83l2.3-1.91c-6.11-8.36-10.62-17.93-13.07-28.36.71.15,1.57.4,2.98.85,4.67,1.52,13.48,4.43,19.83,1.52,4.03-1.92,11.05-3.48,13.75-4.53,2.55-1.06,7.93,1.3,1.58-2.93h-.03c-.08-.05-.18-.1-.33-.15-.21-.1-.42-.15-.65-.2-.62-.15-5.72.85-6.85.7-.36-.1-.69-.2-1.03-.4-2.77-1.51,9.04-10.82,9.43-13.15-3.39.36-6.18,2.53-9.22,3.88-3.56,1.56-7.48,1.61-11.29,1.66-4.37,0-7.76,3.43-11.6,4.99-2.01.85-5.3,1.61-7.52,3.06-.16-.95-.31-1.91-.43-2.87.07-1.66.25-3.68.66-5.99.87-5.04,2.9-8.97,7.41-15.01,0,0,4.39-5.33,6.95-7.05,1-.71,2.07-1.66,3.13-1.01,1.12.71-.31,5.09,2.69,5.84,1.81.4.21,3.43.84,5.19.66,1.87-7.46,9.06-5.31,9.92,1.19.5,6.57-2.26,9.43-3.18,2.52-.8,5.2-.85,7.96-3.48,2.84-2.67,5.66-4.18,5.66-4.18,2.31-1.96,4.55-3.98,6.83-5.94,2.23-1.97,4.35-3.98,6.51-5.99,1.35-1.3,7.45-4.73,7.99-5.89,2.84-6.19,10.25-9.82,15.75-13.75,1.01-.7,2.11-2.22,2.73-3.07.62-.86,1.29-2.16,1.65-2.58.7-.8.87-1.4,1.66-1.8.31-.16,1.56-.16,2.09.45,1.8,1.91,4.24,3.58,4.33,5.59.15,3.12,8.8,5.84,10.77,8.26.81,1,1.29,1.96,1.62,2.92-1.51-.6-3-1.35-4.32-2.32-.87-.65-2.91-.5-3.95-.65-2.99-.56-2.3.85-.64,2.57,1.69,1.81,3.66,3.33,5.2,5.29,1.79,2.22,1.62,4.03,2.1,6.69.53,2.83,2.2,5.29,3.58,7.81,1.39,2.51,1.3,5.19,2.07,7.91.83,2.71,3.12,4.99,5.02,7.01,1.62,1.71,5.3,5.9,7.31,4.98,2.14-.9,4.79,1.71,5.6.96.81-.71-2.14-4.19-1.01-5.24,1.14-1.07,6.05.6,7.06,3.78,1.14,3.73,1.02,4.03.84,6.7-.12,1.76-.81,3.18-1.98,4.43-1.46,1.47-4.84,3.93-4.17,6.41,3.1-1.66,6.47-1.81,9.93-1.71,3.35.1,5.83-1.31,8.07-3.73.99-1.07,3.85-4.43,5.47-2.72.98,1-1.9,5.13,1.26,4.28,2.11-.56,3.98-2.21,5.89-3.28.51-.3.98-.6,1.38-.9-2.49,10.58-7.1,20.35-13.36,28.81l2.3,1.91c11.13-14.4,17.82-32.54,17.82-52.23C168.17,38.03,130.51,0,84.09,0M158.1,85.03c-7.07,1.51-9.24-4.69-15.12-8.62-5.9-3.93-11.31-5.43-16.77-10.92-2.19-2.22-2.75-6-4.94-8.31-2.91-3.13-4.68-3.98-8.62-5.54-6.92-2.72-12.87-4.73-18.62-9.52-.97-.8-3.26-1.86-5.4-2.27-.91-.2-1.32-.05-1.63.3-.86,1.11-1.64,2.47-2.4,3.73-.21.35-.92,1.36-1.49,1.91-1.11,1.01-2.5,2.32-3.57,2.92-5.79,3.58-13.42,6.61-16.71,12.6-.61,1.1-6.92,4.08-8.38,5.23-2.3,1.91-4.54,3.78-6.9,5.54-2.21,1.67-5.26,4.23-7.56,5.94-1.21-.45-2.46-.85-3.61-1.05-2.71-.56-4.99-2.67-7.32-4.08-2.99-1.91-2.76-2.11-3.71-2.67-.82-.45-1.23-.75-1.55-.9-2.22-1.31-2.36,0-5.51,1.96-2.63,1.61-5.66,4.33-7.92,6.5-1.8,1.71-3.64,3.53-5.52,5.39C7.54,41.96,41.97,9.42,84.09,9.42s75.85,31.93,79.14,72.52c-1.29,1.72-3.11,2.63-5.13,3.08M271.53,108.64h-8.59v-26.69h-5.21v31.4h13.81v-4.71ZM399.48,81.49c-5.26,0-8.55,2.73-8.55,14.04v4.25c0,11.31,3.29,14.04,8.55,14.04s8.55-2.73,8.55-14.04v-4.25c0-11.31-3.29-14.04-8.55-14.04M402.82,99.63c0,5.59-.32,9.33-3.34,9.33s-3.34-3.74-3.34-9.33v-3.97c0-5.59.32-9.33,3.34-9.33s3.34,3.74,3.34,9.33v3.97ZM390.8,135.76l-1.65-1.29c-1.83-1.43-3.02-2.86-3.02-4.8,0-1.8.96-3,2.56-3,2.06,0,2.7,1.66,2.88,3.88h4.94v-1.06c0-4.48-2.56-7.53-7.77-7.53-4.76,0-7.73,2.91-7.73,7.99,0,3.97,1.88,6.33,4.89,8.68l1.65,1.29c2.38,1.89,4.35,3.42,4.35,6.19,0,2.17-.96,3.37-2.88,3.37-2.19,0-3.29-1.94-3.38-4.62h-4.89v1.16c0,4.85,2.6,8.17,8.09,8.17,5.12,0,8.18-3,8.18-8.41,0-4.8-2.15-6.83-6.22-10.02M369.02,140.1h8.18v-4.62h-8.18v-8.4h9.19v-4.71h-14.4v31.4h14.81v-4.71h-9.6v-8.96ZM351.58,145.96c-1.69-7.16-3.52-16.07-4.62-23.6h-5.26c1.74,10.16,4.34,22.35,6.63,30.29.23.79.5,1.11,1.55,1.11h3.16c1.1,0,1.32-.32,1.6-1.2,2.29-7.85,4.89-20.04,6.63-30.2h-5.07c-1.14,7.53-2.93,16.44-4.62,23.6M365.96,107.95h-4.31v1.18c0,3.57-1.07,6.44-1.35,7.89h2.18c.82-1.14,3.48-4,3.48-7.61v-1.45ZM424.22,101.11l-7.59-19.16h-5.17v31.4h4.94v-20.32l8.05,20.32h4.71v-31.4h-4.94v19.16ZM493.59,107.95v1.18c0,3.57-1.07,6.44-1.34,7.89h2.18c.82-1.14,3.48-4,3.48-7.61v-1.45h-4.31ZM489.2,91.09c0-5.59-2.79-9.15-8.82-9.15h-7.77v31.4h5.21v-12.88h2.33c1.83,3.92,3.84,9.7,4.8,12.88h5.21c-.73-3.14-3.11-9.93-5.26-14.13,2.84-1.39,4.3-4.29,4.3-8.13M480.19,95.85h-2.38v-9.38h2.38c2.65,0,3.84,1.85,3.84,4.66s-1.19,4.71-3.84,4.71M440.95,100.84h3.52v1.43c0,4.2-.59,6.74-3.29,6.74s-3.39-2.4-3.39-9.33v-4.06c0-6.88.78-9.33,3.39-9.33,2.06,0,2.79,1.48,3.06,4.39h4.85v-1.02c0-4.25-2.01-8.22-7.86-8.22-5.17,0-8.64,2.73-8.64,14.04v4.48c0,11.17,3.29,13.9,8.55,13.9s8.32-2.59,8.32-11.59v-6.14h-8.5v4.71ZM458.83,99.68h8.18v-4.62h-8.18v-8.41h9.19v-4.71h-14.4v31.4h14.81v-4.71h-9.6v-8.96ZM302.12,95.02h-7.27v-13.07h-5.21v31.4h5.21v-13.62h7.27v13.62h5.21v-31.4h-5.21v13.07ZM275.28,140.1h8.18v-4.62h-8.18v-8.4h9.19v-4.71h-14.4v31.4h14.82v-4.71h-9.6v-8.96ZM268.93,86.66h6.04v26.69h5.21v-26.69h6.03v-4.71h-17.28v4.71ZM345.88,100.47h2.33c1.83,3.92,3.84,9.7,4.8,12.88h5.21c-.73-3.14-3.11-9.93-5.26-14.13,2.84-1.39,4.3-4.29,4.3-8.13,0-5.59-2.79-9.15-8.82-9.15h-7.77v31.4h5.21v-12.88ZM345.88,86.47h2.38c2.65,0,3.84,1.85,3.84,4.66s-1.19,4.71-3.84,4.71h-2.38v-9.38ZM305.24,131.51c0-5.59-2.79-9.14-8.82-9.14h-7.77v31.4h5.21v-12.89h2.33c1.83,3.92,3.84,9.7,4.8,12.89h5.21c-.73-3.14-3.11-9.93-5.26-14.13,2.84-1.38,4.3-4.29,4.3-8.13M296.23,136.26h-2.38v-9.37h2.38c2.65,0,3.84,1.85,3.84,4.67s-1.19,4.71-3.84,4.71M250.45,127.07h6.04v26.69h5.21v-26.69h6.04v-4.71h-17.28v4.71ZM321.83,122.36h-5.21v31.4h13.81v-4.71h-8.6v-26.69ZM333.86,153.77h5.21v-31.4h-5.21v31.4ZM248.36,82.92c-.18-.69-.5-.97-1.55-.97h-4.16c-1.1,0-1.42.28-1.6.97-2.33,8.03-4.94,20.36-6.68,30.43h5.08c.32-2.22.73-4.57,1.14-6.93h8c.46,2.35.82,4.71,1.14,6.93h5.3c-1.74-10.07-4.39-22.35-6.67-30.43M241.46,101.81c1.01-5.27,2.1-10.44,3.15-14.73,1.01,4.29,2.15,9.47,3.16,14.73h-6.31ZM317.32,81.95h-5.21v31.4h5.21v-31.4Z"/>
  </g>
</svg>